<svg id="Ebene_1" data-name="Ebene 1" xmlns="http://www.w3.org/2000/svg" viewBox="0 0 398 365"><defs><style>.cls-1,.cls-3{fill:#fff;}.cls-2,.cls-3{stroke:#000;stroke-miterlimit:10;}.cls-2{stroke-width:7px;}.cls-3{stroke-width:3px;}</style></defs><title>logo_Prozess</title><path d="M55.15,231.53c-4.06-5.83-6.45-12.72-8-19.67a82.08,82.08,0,0,1-1.6-21.36,92.69,92.69,0,0,1,1.37-10.63c.37-1.75.64-3.51,1.09-5.24s1-3.43,1.49-5.13c.25-.85.5-1.7.79-2.55l1-2.48,2-4.92c.32-.82.76-1.6,1.17-2.39s.81-1.57,1.24-2.35c.84-1.56,1.69-3.1,2.6-4.61-.4,1.73-.85,3.43-1.31,5.12s-1,3.33-1.38,5l-1.19,5.06-.62,2.51-.47,2.54c-.31,1.69-.64,3.38-1,5.06s-.48,3.39-.73,5.08l-.37,2.54c-.14.84-.15,1.7-.23,2.55l-.45,5.1A130.12,130.12,0,0,0,51,211.23,100.49,100.49,0,0,0,55.15,231.53Z"/><path d="M79.06,170.38c-1.67-6.91-1.39-14.19-.31-21.23A82.08,82.08,0,0,1,85,128.66a92.69,92.69,0,0,1,5.13-9.41c1-1.5,1.87-3,2.92-4.48s2.16-2.84,3.25-4.24c.54-.7,1.09-1.41,1.66-2.09l1.81-2,3.66-3.86c.6-.65,1.29-1.21,2-1.8s1.32-1.17,2-1.74c1.35-1.14,2.7-2.27,4.09-3.35-1,1.47-2,2.89-3.08,4.3s-2.16,2.73-3.11,4.19l-2.94,4.29-1.49,2.11-1.36,2.2q-1.36,2.19-2.75,4.36c-.88,1.47-1.67,3-2.52,4.47L93,123.88c-.43.74-.76,1.53-1.14,2.29l-2.27,4.58a130.13,130.13,0,0,0-7,19.21A100.5,100.5,0,0,0,79.06,170.38Z"/><path d="M304.75,121.82a25.62,25.62,0,0,1,9.58,8.8,38.06,38.06,0,0,1,5.3,12.09l.62,3.25a28.55,28.55,0,0,1,.36,3.28l.11,1.64a10.45,10.45,0,0,1,0,1.64c0,1.09-.08,2.18-.14,3.27a22.71,22.71,0,0,1-.4,3.23c-.18,1.07-.38,2.13-.59,3.19s-.6,2.08-.94,3.11-.7,2-1.11,3c-.26-2.18-.3-4.28-.4-6.36-.1-1-.18-2.08-.25-3.11s-.09-2.05-.25-3.07-.24-2-.33-3-.31-2-.45-3c-.24-2-.74-3.94-1.13-5.9a68.62,68.62,0,0,0-3.85-11.33A57.39,57.39,0,0,0,304.75,121.82Z"/><path d="M307.89,72.73a29.18,29.18,0,0,1,12,7.28,44.91,44.91,0,0,1,8.51,11.41L330,94.63a14.6,14.6,0,0,1,.67,1.65l.6,1.67a47.39,47.39,0,0,1,1.87,6.82,27.53,27.53,0,0,1,.55,3.48c.14,1.16.26,2.33.36,3.49s0,2.34,0,3.51-.07,2.33-.18,3.49c-.89-2.19-1.54-4.38-2.24-6.54-.4-1.07-.78-2.13-1.15-3.19s-.68-2.13-1.13-3.16-.82-2.07-1.2-3.11-.88-2-1.3-3c-.82-2-1.85-4-2.81-6a82.91,82.91,0,0,0-7-11.1A63.7,63.7,0,0,0,307.89,72.73Z"/><path class="cls-1" d="M280.27,252.49s12.26-17.41,17.29-20.71c8.44-5.54,36.71-19.42,43-43.29,12.56,34.69-28.06,67.5-56.53,74.38S280.27,252.49,280.27,252.49Z"/><path d="M281.24,253.06c3.65-5.17,7.45-10.27,11.59-15,4.35-5,9.56-7.78,15.12-11.27,14.47-9.08,28.86-20.84,33.66-38h-2.17c9.31,27.09-12.93,51.61-34.82,64.3A84,84,0,0,1,288,260.57a70.13,70.13,0,0,1-8.86,2.19c-1.12.2-6,1.51-7.21.37-2-1.92,7.18-8.45,8.93-9.67,1.18-.82.05-2.78-1.14-1.94-3.38,2.37-7.77,5.28-9.78,9-3.31,6.09,5.83,5.12,9.15,4.55,22.91-3.92,45.9-19.45,57.8-39.44,6.82-11.46,9.11-24.66,4.72-37.41a1.13,1.13,0,0,0-2.17,0c-5.09,18.16-21.27,29.79-36.64,39.07a47.57,47.57,0,0,0-13,10.85c-3.7,4.45-7.18,9.09-10.51,13.81C278.46,253.11,280.41,254.23,281.24,253.06Z"/><path class="cls-1" d="M266,182.13s-8.1-3.52-7.72,10-26.34,26.75-26.34,26.75l-31.32,25.56-1.24-2.15a50.47,50.47,0,0,1-15.76-4.47c-13.37-6.07-9.88-20.16-19.86-28.88-5.4-4.72-29.88-5-29.05-12.77,2.63-6.48,5.19-13,7.39-19.66,1.82-5.48,5.66-23.54-7-14.59-5.11,3.62-9.95,17.72-12.41,23.3-3.39,7.69-6.73,16.06-7.72,24.56-3.11,26.62,20.84,37.32,41.76,43,18.1,4.91,36.56,9.84,55.29,11.47,0,0,33.32-26.47,36.63-30a95,95,0,0,0,19.75-28.21C275.72,190.1,266,182.13,266,182.13Z"/><path d="M266.29,181c-4.21-1.73-7.68,1.38-8.66,5.35-1.28,5.17-.2,9.34-3.49,14-3.05,4.32-7.36,7.8-11.66,10.81-3.83,2.69-8.19,4.63-11.94,7.37-5.48,4-10.58,8.64-15.83,12.92l-14.89,12.15,1.77.23c-1.78-3.09-1.74-2.49-5.66-3.23-5.66-1.07-12.14-2.93-16.49-6.85-6-5.4-6.57-14.09-10.7-20.67-3.23-5.13-7.13-7-12.8-8.46s-13.68-1.82-18.35-5.51c-3.79-3,1.35-10.51,2.74-14.23a96.71,96.71,0,0,0,3.83-11.59c.87-3.7,2.32-9.64,0-13.1s-7.18-1.18-9.79.9c-5.33,4.23-7.84,12-10.32,18-6.46,15.81-15.8,34.35-6.4,51,7.18,12.67,22.06,18.83,35.35,22.77,11.09,3.29,22.38,6.16,33.69,8.56,5.84,1.24,11.72,2.3,17.63,3.09,2.41.32,6.41,1.48,8.67.46,3-1.35,5.9-4.7,8.43-6.73q7.55-6,15.06-12.15c9.32-7.59,17.9-15,24.8-25s18-29.23,5.56-39.73c-1.1-.93-2.7.65-1.59,1.59,11.48,9.71.48,27.77-5.91,37-5.52,8-12.14,14.44-19.56,20.57-8.3,6.85-16.71,13.58-25.13,20.29-.79.63-2,2.06-3,2.37-1.32.42,2-.3-1.45-.21-3.24.09-6.77-.78-10-1.28a319.9,319.9,0,0,1-31.34-6.82c-15.1-3.94-32.27-7.56-43.84-18.86-14.9-14.55-8.08-34.31-1-51,2.68-6.33,4.86-13.18,8.8-18.88,1.44-2.08,5.43-6.61,8.42-5.48,2.34.88,1.78,5.19,1.59,7.09-.65,6.67-3.34,13.07-5.7,19.25-1.72,4.48-5.93,9.88-1.25,13.68,4.34,3.53,11.19,4.22,16.44,5.43,3.06.71,6.52,1.26,9.3,2.79,3.21,1.76,5.33,5.25,6.84,8.48,3.09,6.58,4.36,14,10.32,18.8,3.18,2.56,7.26,4.05,11.11,5.27,2.45.77,5.33.84,7.69,1.75,1.32.51,1.21.35,2.05,1.82a1.14,1.14,0,0,0,1.77.23l16.82-13.72c4.53-3.7,10.27-9.13,14.62-11.84,7.78-4.82,15.83-9,21.77-16.24,3.34-4.06,4.53-7.77,4.78-12.9.17-3.59,1.55-9.26,6.3-7.31C267,183.76,267.61,181.59,266.29,181Z"/><path d="M121.19,188.67c-2.34,8.85,11.88,13.75,16.22,19.63,2.62,3.55,13.68,25.61,10.07,27.85-6.12,3.79-19.65-11.15-22.35-15.26-6.07-9.23-9.44-20.68-5.42-31.42"/><path d="M215.9,252.34c8.71,2.8,19.31-15.62,25.41-19.65,3.68-2.43,16.72-6.14,18.77-2.41,3.47,6.31-7.55,17.34-11.79,19.82-9.54,5.58-21.14,8.34-31.66,3.77"/><path class="cls-1" d="M111.74,247.63c-8.66,7.19-19.66,27,12.44,39.13,0,0-5.94-12.81-4.31-17.81,9.38,13.88,20.56,11.42,20.56,11.42S129.8,268,131.05,263.24c6.75-1,15,7,15,7,1.37-2.89.66-7.72-1.79-12.44-7-1.91-14-4-20.88-6.09C119.54,250.55,115.59,249.21,111.74,247.63Z"/><path d="M110.95,246.83c-5.51,4.69-9.86,11.83-9.35,19.28.8,11.64,12.71,18,22.29,21.72,1,.4,1.63-.87,1.27-1.65-2.17-4.73-5.47-11.67-4.2-16.95l-2.06.27c4.77,6.71,12.85,13.75,21.83,11.94a1.14,1.14,0,0,0,.5-1.88c-3.14-3.67-6.39-7.79-8.27-12.27a5.71,5.71,0,0,1-.69-1.95c.1-1.29-.61-.64.94-1,2-.41,4.66,1.36,6.32,2.33a31.44,31.44,0,0,1,5.74,4.32,1.14,1.14,0,0,0,1.88-.5,13.53,13.53,0,0,0,.07-8.36c-1.08-4-1.61-5.17-5.51-6.26-10-2.78-20-5.54-29.65-9.38-1.34-.54-1.93,1.64-.6,2.17,6.58,2.63,13.36,4.62,20.14,6.64,3.09.92,7.72,1.36,10.46,3,3.57,2.15,4.22,8.06,2.92,11.58l1.88-.5c-4.15-4-9.84-7.78-15.8-7.33a1.15,1.15,0,0,0-1.08.83c-1,6.43,5.79,13.68,9.66,18.22l.5-1.88c-7.87,1.58-15.19-5.13-19.29-10.91a1.14,1.14,0,0,0-2.06.27c-1.46,6,1.95,13.27,4.43,18.68l1.27-1.65c-9.05-3.54-20.92-9.78-20.67-21.1.14-6.33,4.05-12.15,8.73-16.14C113.64,247.48,112,245.9,110.95,246.83Z"/><path class="cls-1" d="M282.5,246.35c-5.11-3.63-8.35-8.64-13.2-12.61-18.18-14.83-25.58,9.8-45.59,14.68-18.39,4.48-54.79-2-73-10.89-13.19-6.45-9.3-20.44-19-29.44-5.26-4.87-29.72-5.85-28.67-13.6,2.82-6.4,5.56-12.87,8-19.44,2-5.43,6.33-23.37-6.54-14.79-5.21,3.47-10.45,17.42-13.08,22.94-3.61,7.59-7.19,15.86-8.43,24.33-3.16,21.6,11.94,33.17,28.87,40.11,3.85,1.58,7.79,2.92,11.64,4.08,6.91,2.09,13.87,4.18,20.88,6.09,14.38,3.92,29,7.06,43.81,7.8,19.47,1,40.05,1.39,59.26,3.63,7.31.85,13.84,5.05,20.9,6.5,7.76,1.6,22.08-3.59,27-10.77C301.5,255.88,289,251,282.5,246.35Z"/><path d="M283.07,245.38c-7.53-5.7-13.43-16.83-23.94-17.43-7-.4-12.71,4.82-17.79,9-8,6.56-15.84,10.89-26.34,11.63-10.87.77-21.93-.5-32.6-2.51-10.24-1.93-20.75-4.52-30.2-9-10.63-5.07-10.4-15.43-15.62-24.47-3.71-6.41-8.85-8-15.66-9.79a105.16,105.16,0,0,1-11-3.14c-1.52-.58-4-1.39-5-2.8-1.77-2.45,1-6.31,2-8.78,1.13-2.67,15.26-34.85,1-30.86-7.94,2.22-11.56,11.9-14.56,18.6C88.79,186,83.32,196.27,81.75,207.52,79,227.57,92.83,240.77,110,248.1c12.56,5.37,26.19,8.84,39.39,12.22a203.86,203.86,0,0,0,40.53,6.5c16.12.8,32.26,1.19,48.34,2.61a81.07,81.07,0,0,1,22.5,5.14c4.79,1.81,9.18,3,14.29,2.29C283,275.75,295.77,271,297.85,262c1.95-8.37-9.43-13-14.78-16.67-1.2-.82-2.32,1.13-1.14,1.94,3.32,2.28,7,4.12,10.11,6.73,5,4.23,4.19,9.29-.61,13.39-7.56,6.45-18.34,9-27.72,5.84-5.36-1.82-10.41-4.33-16.08-5.13-6.16-.87-12.43-1.26-18.63-1.68-12.41-.84-24.84-1.24-37.26-1.81-25.82-1.2-52.17-7.81-76.37-16.82-9.1-3.39-18.4-8-24.79-15.56-7.22-8.52-8.17-19.33-5.52-29.87,2.58-10.24,7.62-20.17,12.2-29.68,1.72-3.56,3.63-7.8,6.56-10.55,3.23-3,8.09-4.78,8.31,1,.28,7.26-3.44,14.93-6.11,21.39-2.5,6.06-7.23,11.68-.15,15.73,5.53,3.17,12.36,4,18.39,5.75,3.33,1,6.15,2.05,8.41,4.8,3.29,4,4.56,9,6.29,13.81,2.7,7.48,6.82,12.09,14.16,15.26a131.21,131.21,0,0,0,25.83,7.77c17.28,3.54,39.58,7.29,55.41-2.7,6.76-4.27,12.48-11.66,20.22-14.14,11.72-3.75,19.47,10.54,27.36,16.5C283.09,248.19,284.21,246.24,283.07,245.38Z"/><path class="cls-1" d="M197.48,266s13.16-.55,35.16,17.45S274,308,274,308s9.83,4,10.5,2,4.33-5.33-10.83-15-41-34.67-54.5-35"/><path d="M197.48,267.16c10.59-.32,22.19,7.87,30.12,13.8,13.9,10.39,27.41,20.75,43.69,27.22,4.19,1.66,13.58,6.91,15,.2.84-3.93-2.53-7.13-5.24-9.43-6.29-5.34-13.64-9.58-20.17-14.66-7.33-5.71-14.56-11.59-22.27-16.77-5.74-3.86-12.35-8.24-19.47-8.64-1.45-.08-1.44,2.17,0,2.25,6.26.36,12.17,4.27,17.26,7.62,6.82,4.49,13.24,9.58,19.67,14.61,5.15,4,10.28,8.13,15.71,11.77,3.1,2.08,13.86,7.54,12.3,12.82-1,3.36-7,0-9.39-.87s-4.92-1.91-7.33-3a150.93,150.93,0,0,1-19.46-10.79c-8.6-5.59-16.17-12.53-24.73-18.15-7.05-4.63-16.82-10.48-25.71-10.21-1.44,0-1.45,2.29,0,2.25Z"/><path class="cls-2" d="M245.56,198c-.76-1.42-2.14-2.9-2.17-5.4a6.37,6.37,0,0,1,.38-2.24,19.71,19.71,0,0,1-13.8-1.06c-7.74-3.5.6-14.82-10.28-16.16-15.88,12.05-35.32-2.39-35.32-2.39-4.53,11.57-9.22,9.73-18.06,10.1-8.61.36-17.34-15.71-17.36-15.65-1,3.45.94,13.18.83,17.06-.12,4.16-3.43,5.35-5.4,9.08-4.54,8.58,1.2,24.49,12.43,30.65,3.95,2.17,8.92.8,12.27,3.51,4.09,3.31,1.69,6.33,4.47,10.45,6.63,9.8,32.12,8.08,39.51-1.11a15.52,15.52,0,0,1,5.65-4.83c3.82-1.82,6.62-.93,9.38-1.21C239.38,227.63,250.23,206.7,245.56,198Z"/><ellipse class="cls-3" cx="192.53" cy="230.27" rx="17.5" ry="22.75" transform="translate(-53.72 401.89) rotate(-84.98)"/><ellipse class="cls-3" cx="196.59" cy="193.29" rx="19.1" ry="22.75" transform="matrix(0.13, -0.99, 0.99, 0.13, -19.82, 364.09)"/><path class="cls-3" d="M175.75,157.89c-1.81-2.56-3.89-5.27-5.48-8a18.39,18.39,0,0,0-5.27-.51c-10.07.42-17.94,7.81-17.57,16.5a13.71,13.71,0,0,0,.67,3.64c2.2,6.84,9.62,11.7,18.23,11.33,8.84-.37,16-6.11,17.34-13.38A74.7,74.7,0,0,1,175.75,157.89Z"/><path class="cls-3" d="M242.95,160.58a20.17,20.17,0,0,0-10.79-1.69c-1.3,1.49-2.64,2.93-4,4.31a66.8,66.8,0,0,1-9.41,8.07c-.94,7,3.48,14.52,11.23,18a19.71,19.71,0,0,0,13.8,1.06,14.68,14.68,0,0,0,9.32-7.9C256.68,174.52,252.13,164.73,242.95,160.58Z"/><ellipse class="cls-3" cx="232.86" cy="211.78" rx="19.99" ry="15.38" transform="translate(-80.62 240.15) rotate(-47.46)"/><ellipse class="cls-3" cx="157.39" cy="204.39" rx="15.38" ry="19.99" transform="translate(-80.52 104.65) rotate(-29.66)"/><path d="M210.29,155.48c-2.15-9.9.56-21.25,4-30.56.28-.76-.43-1.35-1.08-1.42L200,121.91a1.13,1.13,0,0,0-1.12,1.13,114.78,114.78,0,0,1-1.3,18.71c-.33,2.1-.72,4.2-1.26,6.26-.42,1.61-1.77,3.94-1.87,5.5-.07,1.23.87,2.41,1.27,3.54a35.88,35.88,0,0,1,1.72,8.28c.35,3.33-1.69,10.13,2.84,10.34,1.49.07,3.6.06,4.37-1.41.2-.38-.34-4.74-.29-2.94a15.63,15.63,0,0,1,.74-4.8,39.6,39.6,0,0,1,5-10.16c.79-1.22-1.16-2.35-1.94-1.14-2.55,4-5,8.25-5.81,13-.19,1.1.25,3.68-.17,4.65a.42.42,0,0,0,.33.43l-1.38.15s-1.91.27-1.25.84c-.64-.55,0-6.06-.08-7a39.62,39.62,0,0,0-2.2-11.38,5.47,5.47,0,0,1-.61-2.73c.15-1.59,1.2-3.54,1.59-5.1a79.37,79.37,0,0,0,1.73-10.41,123.2,123.2,0,0,0,.76-14.55L200,124.16l13.2,1.58-1.08-1.42c-3.6,9.69-6.26,21.47-4,31.76C208.43,157.49,210.6,156.89,210.29,155.48Z"/><path class="cls-1" d="M248.49,125.15c-10.41,1.28-29,15.7-38.79,29.89l-.49.73v.05c-4.19,6.59-6.57,13.06-5.62,18.13.06.25.12.5.2.74l.36.08a21.44,21.44,0,0,0,4.93-.16,17.8,17.8,0,0,0,1.83-.54h0a31.13,31.13,0,0,0,7.16-3.82,75.33,75.33,0,0,0,13.4-12.38C241.63,146.23,249.61,131.8,248.49,125.15Z"/><path d="M248.19,124.06c-11.92,1.84-23.09,11.91-31.1,20.27-3.59,3.75-7.47,8.18-9.85,12.57-2.91,5.39-6.24,11.77-4.52,18.09a1.12,1.12,0,0,0,.79.79c11.72,2.47,23.33-10.62,29.91-18.42a96,96,0,0,0,12.12-17.8c2.21-4.3,4.65-9.44,4.09-14.41-.16-1.42-2.41-1.44-2.25,0,.54,4.81-2,9.81-4.13,13.93a94.51,94.51,0,0,1-10.87,16,74.78,74.78,0,0,1-14.84,14.17c-2.48,1.7-12.34,7.88-13,2-.56-4.91,3.27-11.94,5.78-15.78,2.67-4.09,7.37-8.76,11.15-12.39,7.3-7,16.94-15.3,27.34-16.91C250.21,126,249.61,123.84,248.19,124.06Z"/><path class="cls-1" d="M195.82,154.31l-.26-.51c-7.8-15.34-24.11-32-34.19-34.69-1.77,5.63,2.53,18.1,9.28,29.78a87.19,87.19,0,0,0,13,17.56c5.17,5.17,10.5,8.4,15.13,7.87h0C200,168.87,199.64,162,195.82,154.31Z"/><path d="M196.79,153.74a93.9,93.9,0,0,0-16.68-22.82c-5.15-5.24-11.26-10.73-18.44-12.89a1.14,1.14,0,0,0-1.38.79c-1.22,4.83.35,10.11,1.94,14.68a95.74,95.74,0,0,0,9.73,19.71c5.47,8.63,15.09,23,26.88,22.25a1.15,1.15,0,0,0,1.08-.83c1.37-7.33,0-14.16-3.13-20.88-.61-1.31-2.55-.17-1.94,1.14a32.58,32.58,0,0,1,3.43,13.29c0,.87.06,4.92.13,4.8q1.18.5-.75.28a8.92,8.92,0,0,1-2.74-.48c-7.35-2.11-13.32-9.73-17.61-15.66a102.09,102.09,0,0,1-10.58-18.36c-2.47-5.57-5.83-13.12-4.27-19.33l-1.38.79c7.29,2.19,13.41,8,18.53,13.43a91.64,91.64,0,0,1,15.25,21.25C195.51,156.17,197.45,155,196.79,153.74Z"/><path d="M173.17,138a81,81,0,0,1,5.63,6.37c1.79,2.19,3.47,4.46,5.11,6.76s3.19,4.67,4.63,7.11a41.56,41.56,0,0,1,3.76,7.65c-1.65-2.32-3.39-4.51-5.06-6.78s-3.34-4.53-5-6.83-3.22-4.62-4.74-7S174.52,140.55,173.17,138Z"/><path d="M235.1,140c-1.5,2.42-3.14,4.73-4.82,7s-3.42,4.48-5.17,6.69-3.56,4.36-5.39,6.5-3.68,4.25-5.47,6.46a41.56,41.56,0,0,1,4.23-7.4c1.59-2.35,3.32-4.59,5.07-6.81s3.61-4.35,5.52-6.43A81,81,0,0,1,235.1,140Z"/><path class="cls-1" d="M274.54,270.72c1.94,6.69,24.26,9,36.81,8.58,28.42-.93,44.44-22.93,54.57-47.31,7.29-17.54-8.95,1.18-13,5.32-8.92,9.13-24.23,14.22-36.28,17.74-6.24,1.82-12.81,3.52-19.35,3.7-5.42.15-10.19-2.88-15.28-2.84C273.73,256,273.18,264.13,274.54,270.72Z"/><path d="M273.45,271c2.16,5.64,10.74,6.95,15.85,7.85a94.25,94.25,0,0,0,26.43,1.23c18.27-2,32.32-14,41.82-29.14a115,115,0,0,0,6.53-12.06c1.69-3.57,4.09-7.82,4.65-11.77.6-4.21-2.31-4-5.07-2-4.37,3.18-7.75,7.62-11.54,11.42-8.3,8.32-20,12.57-31,16-6.9,2.15-14,4.33-21.2,5-6.52.56-12.23-3.05-18.61-2.63-8.58.56-9.15,9.51-7.9,16.2.27,1.42,2.43.82,2.17-.6-.62-3.32-1.2-7.78.86-10.76,3.59-5.2,11-1.42,15.78-.38,8.55,1.87,17.88-1.13,26-3.54,14.23-4.22,27.78-9.48,38.11-20.48,1.35-1.43,8.33-10.24,10.46-9.48.87.31-7.4,17.41-8.49,19.37-7.62,13.73-18.66,26.24-34.12,30.94-8.42,2.56-17.33,2.45-26,1.69-5.35-.47-20.17-1-22.61-7.34C275.11,269.08,272.93,269.66,273.45,271Z"/><path d="M191.06,110.28A223.67,223.67,0,0,0,222.85,113a443.85,443.85,0,0,1,24.4-43c-14.11-11-33.54-9.67-33.54-9.67S204.35,75.48,191.06,110.28Z"/><path d="M190.76,111.36a208.26,208.26,0,0,0,32.08,2.73,1.11,1.11,0,0,0,1-.56,399.68,399.68,0,0,1,24.4-43,1.15,1.15,0,0,0-.4-1.54c-8.1-6-17.92-9-27.94-9.72-3-.22-6-1.07-7.78,1.52-3.14,4.59-5.4,10.12-7.77,15.13-5.27,11.13-10,22.53-14.36,34-.52,1.35,1.66,1.94,2.17.6,6.2-16.16,12.78-32.44,21.3-47.56a12.15,12.15,0,0,1,1.21-2.1c-1.09,1.22-.93.19.23.48a18.3,18.3,0,0,0,3.23,0c10.22.43,20.31,3.35,28.56,9.51l-.4-1.54A420.53,420.53,0,0,0,224,108.16c-.41.8-1.16,3.38-1.94,3.87-.32.2-4.11-.28-5.47-.34a215.37,215.37,0,0,1-25.23-2.49C189.94,109,189.33,111.13,190.76,111.36Z"/><path d="M296.68,185.2l-11,.17,1.13,1.13a108.92,108.92,0,0,0-26.5-69.64C252.7,108.1,243.39,99.53,233,94.1l.4,1.54,6.38-11-1.54.4c6,3.42,11.36,8.24,16.42,12.82a131.51,131.51,0,0,1,21.1,23.91c12.89,19.16,19.28,41.55,19.79,64.55a1.13,1.13,0,0,0,2.25,0c-.52-23.37-7-46.22-20.1-65.69a133.27,133.27,0,0,0-20.86-23.82c-5.34-4.88-11.15-10.09-17.47-13.72a1.14,1.14,0,0,0-1.54.4l-6.37,11a1.14,1.14,0,0,0,.4,1.54c9.69,5.06,18.34,12.91,25.58,21a106.56,106.56,0,0,1,27.11,69.48,1.14,1.14,0,0,0,1.13,1.13l11-.17A1.13,1.13,0,0,0,296.68,185.2Z"/><ellipse cx="275.85" cy="248.99" rx="2" ry="3.58" transform="translate(-77.71 363.39) rotate(-60)"/><path d="M261.93,238.46a5.65,5.65,0,0,1-.69-2,1.42,1.42,0,0,1,.09-1,1.14,1.14,0,0,1,.29-.15,3.3,3.3,0,0,1,1.32,0c1.44.16,1.43-2.1,0-2.25-2.07-.22-4,.72-4,3a7.87,7.87,0,0,0,1,3.46c.69,1.27,2.63.14,1.94-1.14Z"/><path d="M252.11,231.77c2.34.86,5.58,2.06,7.1,4.14.84,1.16,2.8,0,1.94-1.14-1.92-2.64-5.46-4.08-8.44-5.17-1.36-.5-1.95,1.68-.6,2.17Z"/><path class="cls-1" d="M297.77,245.71c.93,1.09,20.43-9.11,25-20.75"/><path d="M297.77,245.71c.32.13.66-.09,1-.2s.62-.29.93-.46c.61-.33,1.2-.67,1.79-1,1.18-.71,2.33-1.48,3.47-2.24,2.27-1.56,4.51-3.16,6.64-4.88a66.72,66.72,0,0,0,6.12-5.45,33.53,33.53,0,0,0,5.08-6.48,19.56,19.56,0,0,1-3.91,7.51,38,38,0,0,1-6,6,47.53,47.53,0,0,1-7.08,4.65,36.55,36.55,0,0,1-3.84,1.79c-.66.25-1.33.49-2,.68-.34.09-.69.18-1,.23a4.22,4.22,0,0,1-.54,0A.68.68,0,0,1,297.77,245.71Z"/><path class="cls-1" d="M299.14,270.74s28.25-2,38.5-11"/><path d="M299.14,270.74c6.65-1.37,13.27-2.52,19.77-4.1a98.11,98.11,0,0,0,9.63-2.7,39.62,39.62,0,0,0,9.09-4.19,25.09,25.09,0,0,1-8.52,5.64c-1.55.74-3.19,1.25-4.8,1.83s-3.28,1-4.94,1.36a81.92,81.92,0,0,1-10.06,1.72A68,68,0,0,1,299.14,270.74Z"/></svg>