<svg id="Ebene_1" data-name="Ebene 1" xmlns="http://www.w3.org/2000/svg" viewBox="0 0 398 365"><defs><style>.cls-1{fill:#fff;}.cls-2,.cls-3,.cls-5{stroke:#000;stroke-miterlimit:10;}.cls-2{stroke-width:7px;}.cls-3{fill:#d6264f;stroke-width:3px;}.cls-4{fill:#22b573;}.cls-5{stroke-width:0.75px;}</style></defs><title>logo_Prozess</title><path d="M271.87,247s12.26-17.41,17.29-20.71c8.44-5.54,36.71-19.42,43-43.29,12.56,34.69-28.06,67.5-56.53,74.38S271.87,247,271.87,247Z"/><path class="cls-1" d="M272.84,247.61c3.65-5.17,7.45-10.27,11.59-15,4.35-5,9.56-7.78,15.12-11.27,14.47-9.08,28.86-20.84,33.66-38H331c9.31,27.09-12.93,51.61-34.82,64.3a84,84,0,0,1-16.63,7.49,70.13,70.13,0,0,1-8.86,2.19c-1.12.2-6,1.51-7.21.37-2-1.92,7.18-8.45,8.93-9.67,1.18-.82.05-2.78-1.14-1.94-3.38,2.37-7.77,5.28-9.78,9-3.31,6.09,5.83,5.12,9.15,4.55,22.91-3.92,45.9-19.45,57.8-39.44,6.82-11.46,9.11-24.66,4.72-37.41a1.13,1.13,0,0,0-2.17,0c-5.09,18.16-21.27,29.79-36.64,39.07a47.57,47.57,0,0,0-13,10.85c-3.7,4.45-7.18,9.09-10.51,13.81C270.06,247.66,272,248.78,272.84,247.61Z"/><path d="M257.59,176.68s-8.1-3.52-7.72,10-26.34,26.75-26.34,26.75L192.21,239,191,236.84a50.47,50.47,0,0,1-15.76-4.47c-13.37-6.07-9.88-20.16-19.86-28.88-5.4-4.72-29.88-5-29.05-12.77,2.63-6.48,5.19-13,7.39-19.66,1.82-5.48,5.66-23.54-7-14.59-5.11,3.62-9.95,17.72-12.41,23.3-3.39,7.69-6.73,16.06-7.72,24.56-3.11,26.62,20.84,37.32,41.76,43,18.1,4.91,36.56,9.84,55.29,11.47,0,0,33.32-26.47,36.63-30A95,95,0,0,0,260,200.62C267.32,184.65,257.59,176.68,257.59,176.68Z"/><path d="M103.34,242.18c-8.66,7.19-19.66,27,12.44,39.13,0,0-5.94-12.81-4.31-17.81,9.38,13.88,20.56,11.42,20.56,11.42s-10.62-12.34-9.37-17.12c6.75-1,15,7,15,7,1.37-2.89.66-7.72-1.79-12.44-7-1.91-14-4-20.88-6.09C111.13,245.1,107.19,243.76,103.34,242.18Z"/><path class="cls-1" d="M102.54,241.38c-5.51,4.69-9.86,11.83-9.35,19.28.8,11.64,12.71,18,22.29,21.72,1,.4,1.63-.87,1.27-1.65-2.17-4.73-5.47-11.67-4.2-16.95l-2.06.27c4.77,6.71,12.85,13.75,21.83,11.94a1.14,1.14,0,0,0,.5-1.88c-3.14-3.67-6.39-7.79-8.27-12.27a5.71,5.71,0,0,1-.69-1.95c.1-1.29-.61-.64.94-1,2-.41,4.66,1.36,6.32,2.33a31.44,31.44,0,0,1,5.74,4.32,1.14,1.14,0,0,0,1.88-.5,13.53,13.53,0,0,0,.07-8.36c-1.08-4-1.61-5.17-5.51-6.26-10-2.78-20-5.54-29.65-9.38-1.34-.54-1.93,1.64-.6,2.17,6.58,2.63,13.36,4.62,20.14,6.64,3.09.92,7.72,1.36,10.46,3,3.57,2.15,4.22,8.06,2.92,11.58l1.88-.5c-4.15-4-9.84-7.78-15.8-7.33a1.15,1.15,0,0,0-1.08.83c-1,6.43,5.79,13.68,9.66,18.22l.5-1.88c-7.87,1.58-15.19-5.13-19.29-10.91a1.14,1.14,0,0,0-2.06.27c-1.46,6,1.95,13.27,4.43,18.68l1.27-1.65c-9.05-3.54-20.92-9.78-20.67-21.1.14-6.33,4.05-12.15,8.73-16.14C105.24,242,103.64,240.45,102.54,241.38Z"/><path d="M274.1,240.9c-5.11-3.63-8.35-8.64-13.2-12.61-18.18-14.83-25.58,9.8-45.59,14.68-18.39,4.48-54.79-2-73-10.89-13.19-6.45-9.3-20.44-19-29.44-5.26-4.87-29.72-5.85-28.67-13.6,2.82-6.4,5.56-12.87,8-19.44,2-5.43,6.33-23.37-6.54-14.79-5.21,3.47-10.45,17.42-13.08,22.94-3.61,7.59-7.19,15.86-8.43,24.33-3.16,21.6,11.94,33.17,28.87,40.11,3.85,1.58,7.79,2.92,11.64,4.08,6.91,2.09,13.87,4.18,20.88,6.09,14.38,3.92,29,7.06,43.81,7.8,19.47,1,40.05,1.39,59.26,3.63,7.31.85,13.84,5.05,20.9,6.5,7.76,1.6,22.08-3.59,27-10.77C293.1,250.43,280.6,245.51,274.1,240.9Z"/><path class="cls-1" d="M274.67,239.93c-7.53-5.7-13.43-16.83-23.94-17.43-7-.4-12.71,4.82-17.79,9-8,6.56-15.84,10.89-26.34,11.63-10.87.77-21.93-.5-32.6-2.51-10.24-1.93-20.75-4.52-30.2-9-10.63-5.07-10.4-15.43-15.62-24.47-3.71-6.41-8.85-8-15.66-9.79a105.16,105.16,0,0,1-11-3.14c-1.52-.58-4-1.39-5-2.8-1.77-2.45,1-6.31,2-8.78,1.13-2.67,15.26-34.85,1-30.86C91.6,154,88,163.63,85,170.34c-4.59,10.24-10.06,20.49-11.63,31.74-2.79,20,11.08,33.25,28.22,40.57,12.56,5.37,26.19,8.84,39.39,12.22a203.86,203.86,0,0,0,40.53,6.5c16.12.8,32.26,1.19,48.34,2.61a81.07,81.07,0,0,1,22.5,5.14c4.79,1.81,9.18,3,14.29,2.29,7.93-1.11,20.75-5.89,22.82-14.82,1.95-8.37-9.43-13-14.78-16.67-1.2-.82-2.32,1.13-1.14,1.94,3.32,2.28,7,4.12,10.11,6.73,5,4.23,4.19,9.29-.61,13.39-7.56,6.45-18.34,9-27.72,5.84-5.36-1.82-10.41-4.33-16.08-5.13-6.16-.87-12.43-1.26-18.63-1.68-12.41-.84-24.84-1.24-37.26-1.81C157.5,258,131.16,251.4,107,242.39c-9.1-3.39-18.4-8-24.79-15.56C75,218.32,74,207.5,76.65,197c2.58-10.24,7.62-20.17,12.2-29.68,1.72-3.56,3.63-7.8,6.56-10.55,3.23-3,8.09-4.78,8.31,1,.28,7.26-3.44,14.93-6.11,21.39-2.5,6.06-7.23,11.68-.15,15.73,5.53,3.17,12.36,4,18.39,5.75,3.33,1,6.15,2.05,8.41,4.8,3.29,4,4.56,9,6.29,13.81,2.7,7.48,6.82,12.09,14.16,15.26a131.21,131.21,0,0,0,25.83,7.77c17.28,3.54,39.58,7.29,55.41-2.7,6.76-4.27,12.48-11.66,20.22-14.14,11.72-3.75,19.47,10.54,27.36,16.5C274.69,242.74,275.81,240.79,274.67,239.93Z"/><path d="M189.07,260.59S202.23,260,224.23,278s41.33,24.5,41.33,24.5,9.83,4,10.5,2,4.33-5.33-10.83-15-41-34.67-54.5-35"/><path class="cls-1" d="M189.07,261.71c10.59-.32,22.19,7.87,30.12,13.8,13.9,10.39,27.41,20.75,43.69,27.22,4.19,1.66,13.58,6.91,15,.2.84-3.93-2.53-7.13-5.24-9.43-6.29-5.34-13.64-9.58-20.17-14.66-7.33-5.71-14.56-11.59-22.27-16.77-5.74-3.86-12.35-8.24-19.47-8.64-1.45-.08-1.44,2.17,0,2.25,6.26.36,12.17,4.27,17.26,7.62,6.82,4.49,13.24,9.58,19.67,14.61,5.15,4,10.28,8.13,15.71,11.77,3.1,2.08,13.86,7.54,12.3,12.82-1,3.36-7,0-9.39-.87s-4.92-1.91-7.33-3a150.93,150.93,0,0,1-19.46-10.79c-8.6-5.59-16.17-12.53-24.73-18.15-7.05-4.63-16.82-10.48-25.71-10.21-1.44,0-1.45,2.29,0,2.25Z"/><path class="cls-2" d="M237.16,192.54c-.76-1.42-2.14-2.9-2.17-5.4a6.37,6.37,0,0,1,.38-2.24,19.71,19.71,0,0,1-13.8-1.06c-7.74-3.5.6-14.82-10.28-16.16-15.88,12.05-35.32-2.39-35.32-2.39-4.53,11.57-9.22,9.73-18.06,10.1-8.61.36-17.34-15.71-17.36-15.65-1,3.45.94,13.18.83,17.06-.12,4.16-3.43,5.35-5.4,9.08-4.54,8.58,1.2,24.49,12.43,30.65,3.95,2.17,8.92.8,12.27,3.51,4.09,3.31,1.69,6.33,4.47,10.45,6.63,9.8,32.12,8.08,39.51-1.11a15.52,15.52,0,0,1,5.65-4.83c3.82-1.82,6.62-.93,9.38-1.21C231,222.19,241.83,201.25,237.16,192.54Z"/><ellipse class="cls-3" cx="184.13" cy="224.82" rx="17.5" ry="22.75" transform="translate(-55.96 388.55) rotate(-84.98)"/><ellipse class="cls-3" cx="188.19" cy="187.84" rx="19.1" ry="22.75" transform="translate(-21.77 350.98) rotate(-82.8)"/><path class="cls-3" d="M167.34,152.44c-1.81-2.56-3.89-5.27-5.48-8a18.39,18.39,0,0,0-5.27-.51c-10.07.42-17.94,7.81-17.57,16.5a13.71,13.71,0,0,0,.67,3.64c2.2,6.84,9.62,11.7,18.23,11.33,8.84-.37,16-6.11,17.34-13.38A74.7,74.7,0,0,1,167.34,152.44Z"/><path class="cls-3" d="M234.54,155.13a20.17,20.17,0,0,0-10.79-1.69c-1.3,1.49-2.64,2.93-4,4.31a66.8,66.8,0,0,1-9.41,8.07c-.94,7,3.48,14.52,11.23,18a19.71,19.71,0,0,0,13.8,1.06,14.68,14.68,0,0,0,9.32-7.9C248.27,169.07,243.73,159.28,234.54,155.13Z"/><ellipse class="cls-3" cx="224.46" cy="206.33" rx="19.99" ry="15.38" transform="translate(-79.33 232.2) rotate(-47.46)"/><ellipse class="cls-3" cx="148.98" cy="198.94" rx="15.38" ry="19.99" transform="translate(-78.92 99.78) rotate(-29.66)"/><path d="M200.8,150.33l0-.13c-2-7.75.68-22.3,4.05-31l-13.2-1.58s.25,20.32-4.47,30.77l.26.51c3.82,7.7,3,20,3,20-.12.41,4.88.23,4.77-.37C193.94,163.44,196.39,156.93,200.8,150.33Z"/><path d="M201.89,150c-2.15-9.9.56-21.25,4-30.56.28-.76-.43-1.35-1.08-1.42l-13.2-1.58a1.13,1.13,0,0,0-1.12,1.13,114.78,114.78,0,0,1-1.3,18.71c-.33,2.1-.72,4.2-1.26,6.26-.42,1.61-1.77,3.94-1.87,5.5-.07,1.23.87,2.41,1.27,3.54a35.88,35.88,0,0,1,1.72,8.28c.35,3.33-1.69,10.13,2.84,10.34,1.49.07,3.6.06,4.37-1.41.2-.38-.34-4.74-.29-2.94a15.63,15.63,0,0,1,.74-4.8,39.6,39.6,0,0,1,5-10.16c.79-1.22-1.16-2.35-1.94-1.14-2.55,4-5,8.25-5.81,13-.19,1.1.25,3.68-.17,4.65a.42.42,0,0,0,.33.43l-1.38.15s-1.91.27-1.25.84c-.64-.55,0-6.06-.08-7a39.62,39.62,0,0,0-2.2-11.38,5.47,5.47,0,0,1-.61-2.73c.15-1.59,1.2-3.54,1.59-5.1A79.37,79.37,0,0,0,192,132.13a123.2,123.2,0,0,0,.76-14.55l-1.12,1.13,13.2,1.58-1.08-1.42c-3.6,9.69-6.26,21.47-4,31.76C200,152,202.19,151.44,201.89,150Z"/><path class="cls-4" d="M240.08,119.7c-10.41,1.28-29,15.7-38.79,29.89l-.49.73v.05c-4.19,6.59-6.57,13.06-5.62,18.13.06.25.12.5.2.74l.36.08a21.44,21.44,0,0,0,4.93-.16,17.8,17.8,0,0,0,1.83-.54h0a31.13,31.13,0,0,0,7.16-3.82,75.33,75.33,0,0,0,13.4-12.38C233.22,140.79,241.2,126.35,240.08,119.7Z"/><path d="M239.78,118.61c-11.92,1.84-23.09,11.91-31.1,20.27-3.59,3.75-7.47,8.18-9.85,12.57-2.91,5.39-6.24,11.77-4.52,18.09a1.12,1.12,0,0,0,.79.79c11.72,2.47,23.33-10.62,29.91-18.42a96,96,0,0,0,12.12-17.8c2.21-4.3,4.65-9.44,4.09-14.41-.16-1.42-2.41-1.44-2.25,0,.54,4.81-2,9.81-4.13,13.93a94.51,94.51,0,0,1-10.87,16,74.78,74.78,0,0,1-14.84,14.17c-2.48,1.7-12.34,7.88-13,2-.56-4.91,3.27-11.94,5.78-15.78,2.67-4.09,7.37-8.76,11.15-12.39,7.3-7,16.94-15.3,27.34-16.91C241.81,120.56,241.2,118.39,239.78,118.61Z"/><path class="cls-4" d="M187.41,148.86l-.26-.51c-7.8-15.34-24.11-32-34.19-34.69-1.77,5.63,2.53,18.1,9.28,29.78a87.19,87.19,0,0,0,13,17.56c5.17,5.17,10.5,8.4,15.13,7.87h0C191.59,163.42,191.24,156.56,187.41,148.86Z"/><path d="M188.39,148.3a93.9,93.9,0,0,0-16.68-22.82c-5.15-5.24-11.26-10.73-18.44-12.89a1.14,1.14,0,0,0-1.38.79c-1.22,4.83.35,10.11,1.94,14.68a95.74,95.74,0,0,0,9.73,19.71c5.47,8.63,15.09,23,26.88,22.25a1.15,1.15,0,0,0,1.08-.83c1.37-7.33,0-14.16-3.13-20.88-.61-1.31-2.55-.17-1.94,1.14a32.58,32.58,0,0,1,3.43,13.29c0,.87.06,4.92.13,4.8q1.18.5-.75.28a8.92,8.92,0,0,1-2.74-.48c-7.35-2.11-13.32-9.73-17.61-15.66a102.09,102.09,0,0,1-10.58-18.36c-2.47-5.57-5.83-13.12-4.27-19.33l-1.38.79c7.29,2.19,13.41,8,18.53,13.43a91.64,91.64,0,0,1,15.25,21.25C187.1,150.72,189,149.58,188.39,148.3Z"/><path class="cls-1" d="M164.76,132.59s16.33,21.92,19.14,27.89"/><path d="M164.76,132.59A81,81,0,0,1,170.4,139c1.79,2.19,3.47,4.46,5.11,6.76s3.19,4.67,4.63,7.11a41.55,41.55,0,0,1,3.76,7.65c-1.65-2.32-3.39-4.51-5.06-6.78s-3.34-4.53-5-6.83-3.22-4.62-4.74-7S166.11,135.1,164.76,132.59Z"/><path class="cls-1" d="M226.69,134.52S209,155.38,205.85,161.16"/><path d="M226.69,134.52c-1.5,2.42-3.14,4.73-4.82,7s-3.42,4.48-5.17,6.69-3.56,4.36-5.39,6.5-3.68,4.25-5.47,6.46a41.56,41.56,0,0,1,4.23-7.4c1.59-2.35,3.32-4.59,5.07-6.81s3.61-4.35,5.52-6.43A81,81,0,0,1,226.69,134.52Z"/><path d="M266.13,265.27c1.94,6.69,24.26,9,36.81,8.58,28.42-.93,44.44-22.93,54.57-47.31,7.29-17.54-8.95,1.18-13,5.32-8.92,9.13-24.23,14.22-36.28,17.74-6.24,1.82-12.81,3.52-19.35,3.7-5.42.15-10.19-2.88-15.28-2.84C265.32,250.53,264.77,258.68,266.13,265.27Z"/><path class="cls-1" d="M265,265.57c2.16,5.64,10.74,6.95,15.85,7.85a94.25,94.25,0,0,0,26.43,1.23c18.27-2,32.32-14,41.82-29.14a115,115,0,0,0,6.53-12.06c1.69-3.57,4.09-7.82,4.65-11.77.6-4.21-2.31-4-5.07-2-4.37,3.18-7.75,7.62-11.54,11.42-8.3,8.32-20,12.57-31,16-6.9,2.15-14,4.33-21.2,5-6.52.56-12.23-3.05-18.61-2.63-8.58.56-9.15,9.51-7.9,16.2.27,1.42,2.43.82,2.17-.6-.62-3.32-1.2-7.78.86-10.76,3.59-5.2,11-1.42,15.78-.38,8.55,1.87,17.88-1.13,26-3.54,14.23-4.22,27.78-9.48,38.11-20.48,1.35-1.43,8.33-10.24,10.46-9.48.87.31-7.4,17.41-8.49,19.37-7.62,13.73-18.66,26.24-34.12,30.94-8.42,2.56-17.33,2.45-26,1.69-5.35-.47-20.17-1-22.61-7.34C266.7,263.63,264.53,264.21,265,265.57Z"/><path d="M182.66,104.83a223.67,223.67,0,0,0,31.78,2.69,443.85,443.85,0,0,1,24.4-43c-14.11-11-33.54-9.67-33.54-9.67S195.95,70,182.66,104.83Z"/><path d="M182.36,105.92a208.26,208.26,0,0,0,32.08,2.73,1.11,1.11,0,0,0,1-.56,399.68,399.68,0,0,1,24.4-43,1.15,1.15,0,0,0-.4-1.54c-8.1-6-17.92-9-27.94-9.72-3-.22-6-1.07-7.78,1.52-3.14,4.59-5.4,10.12-7.77,15.13-5.27,11.13-10,22.53-14.36,34-.52,1.35,1.66,1.94,2.17.6C189.94,89,196.52,72.69,205,57.57a12.15,12.15,0,0,1,1.21-2.1c-1.09,1.22-.93.19.23.48a18.3,18.3,0,0,0,3.23,0c10.22.43,20.31,3.35,28.56,9.51l-.4-1.54a420.53,420.53,0,0,0-22.28,38.74c-.41.8-1.16,3.38-1.94,3.87-.32.2-4.11-.28-5.47-.34A215.37,215.37,0,0,1,183,103.75C181.54,103.52,180.93,105.68,182.36,105.92Z"/><path d="M288.28,180.88l-11,.17c-1-63.88-52.75-91.16-53.25-91.42l6.38-11a145.63,145.63,0,0,1,29.08,25.61C272.31,118.92,287.72,144.13,288.28,180.88Z"/><path d="M288.28,179.75l-11,.17,1.13,1.13a108.92,108.92,0,0,0-26.5-69.64c-7.62-8.76-16.92-17.32-27.31-22.75l.4,1.54,6.38-11-1.54.4c6,3.42,11.36,8.24,16.42,12.82a131.51,131.51,0,0,1,21.1,23.91c12.89,19.16,19.28,41.55,19.79,64.55a1.13,1.13,0,0,0,2.25,0c-.52-23.37-7-46.22-20.1-65.69a133.27,133.27,0,0,0-20.86-23.82C243.1,86.49,237.3,81.28,231,77.65a1.14,1.14,0,0,0-1.54.4l-6.37,11a1.14,1.14,0,0,0,.4,1.54c9.69,5.06,18.34,12.91,25.58,21A106.56,106.56,0,0,1,276.16,181a1.14,1.14,0,0,0,1.13,1.13l11-.17A1.13,1.13,0,0,0,288.28,179.75Z"/><ellipse class="cls-1" cx="267.45" cy="243.54" rx="2" ry="3.58" transform="translate(-77.19 353.39) rotate(-60)"/><path class="cls-1" d="M253.52,233a5.65,5.65,0,0,1-.69-2,1.42,1.42,0,0,1,.09-1,1.14,1.14,0,0,1,.29-.15,3.3,3.3,0,0,1,1.32,0c1.44.16,1.43-2.1,0-2.25-2.07-.22-4,.72-4,3a7.87,7.87,0,0,0,1,3.46c.69,1.27,2.63.14,1.94-1.14Z"/><path class="cls-1" d="M243.71,226.32c2.34.86,5.58,2.06,7.1,4.14.84,1.16,2.8,0,1.94-1.14-1.92-2.64-5.46-4.08-8.44-5.17-1.36-.5-1.95,1.68-.6,2.17Z"/><path d="M219.31,86.51C227,85.4,234.22,89.78,240.7,94l22.46,14.56A84.6,84.6,0,0,0,232.7,81.71c-1.29-.67-2.77-1.32-4.15-.88s-2.14,2.58-.91,3.37"/><path d="M219.31,87.64c8.54-.82,15.58,3.93,22.43,8.37l20.86,13.52c.91.59,2.19-.61,1.54-1.54a88.07,88.07,0,0,0-23.79-23.12c-2.79-1.82-8.38-6.47-12.1-5.12a3.21,3.21,0,0,0-1.58,5c.84,1.17,2.79,0,1.94-1.14q2.71-2,5-.18l1.43.8q2.14,1.22,4.2,2.56a83,83,0,0,1,8.94,6.72,86,86,0,0,1,14,15.59l1.54-1.54c-8-5.16-15.85-10.41-23.86-15.47-6.29-4-12.89-7.47-20.56-6.73-1.43.14-1.44,2.39,0,2.25Z"/><path class="cls-5" d="M271.17,147.84l4.06,13.32,1.53,10.53.52,9.35,11-.17s-13.94-38.14-22.15-46.36"/></svg>