<!DOCTYPE svg PUBLIC "-//W3C//DTD SVG 20010904//EN" "http://www.w3.org/TR/2001/REC-SVG-20010904/DTD/svg10.dtd">
<svg version="1.0" xmlns="http://www.w3.org/2000/svg" width="1000px" height="900px" viewBox="0 0 10000 9000" preserveAspectRatio="xMidYMid meet">
<g id="layer1" fill="#5b5159" stroke="none">
 <path d="M7365 8681 c-30 -8 -95 -39 -291 -139 -56 -29 -110 -52 -120 -52 -9 0 -31 -10 -48 -23 -17 -13 -58 -38 -91 -55 -33 -18 -116 -73 -185 -122 -69 -49 -163 -115 -210 -146 -46 -31 -110 -83 -142 -116 -34 -36 -98 -84 -160 -121 -139 -84 -181 -113 -247 -173 -31 -28 -76 -64 -101 -81 -25 -17 -54 -40 -64 -52 -11 -11 -23 -21 -28 -21 -5 0 -42 -26 -81 -58 -40 -32 -97 -73 -128 -91 -30 -18 -89 -58 -130 -88 -41 -30 -94 -64 -119 -74 -25 -11 -65 -31 -90 -44 -73 -38 -132 -47 -328 -46 -101 1 -188 -2 -194 -5 -6 -4 -49 -6 -95 -5 -46 1 -90 -2 -96 -7 -12 -10 -22 -12 -182 -32 -49 -6 -112 -18 -139 -26 -27 -8 -67 -14 -87 -14 -21 0 -48 -4 -61 -9 -13 -5 -57 -19 -98 -30 -41 -12 -109 -35 -150 -51 -41 -17 -80 -30 -87 -30 -7 0 -38 -11 -70 -25 -38 -17 -71 -25 -98 -23 -39 3 -40 4 -43 43 -5 59 17 173 43 225 36 70 23 160 -24 160 -15 0 -46 -16 -160 -78 -52 -29 -82 -25 -99 11 -11 22 -11 35 -1 65 18 55 50 122 81 168 36 54 38 107 4 129 -21 14 -28 14 -82 -7 -32 -12 -66 -27 -74 -34 -17 -14 -86 -38 -140 -49 -19 -4 -44 -15 -55 -25 -11 -10 -39 -28 -62 -40 -24 -12 -43 -28 -43 -36 0 -8 -4 -14 -10 -14 -14 0 -13 23 2 38 6 6 13 57 16 119 5 111 4 109 70 230 12 21 11 27 -5 45 -30 34 -91 57 -124 48 -53 -16 -153 -83 -218 -147 -63 -62 -64 -63 -120 -63 -54 0 -59 -2 -98 -42 -36 -38 -78 -115 -157 -291 -25 -54 -43 -132 -51 -207 -3 -36 -11 -100 -17 -142 -9 -66 -8 -84 6 -118 9 -22 16 -68 16 -103 0 -57 14 -152 39 -270 13 -62 6 -76 -63 -122 -49 -32 -101 -78 -266 -233 -30 -28 -58 -52 -62 -52 -10 0 -78 -93 -155 -209 -42 -64 -71 -122 -89 -180 -15 -47 -31 -90 -36 -95 -4 -6 -8 -20 -8 -32 0 -11 -11 -38 -25 -59 -14 -20 -32 -54 -39 -74 -82 -218 -77 -195 -67 -304 5 -55 19 -127 29 -161 25 -78 42 -149 42 -181 0 -13 5 -27 10 -30 6 -3 10 -17 10 -29 0 -13 15 -61 34 -107 37 -92 76 -239 106 -396 10 -56 28 -121 39 -144 12 -24 21 -48 21 -53 1 -6 9 -29 20 -51 11 -22 19 -48 20 -58 0 -10 9 -38 20 -63 11 -24 29 -64 40 -88 11 -25 20 -51 20 -59 0 -8 16 -34 35 -58 19 -24 35 -49 35 -56 0 -7 11 -31 24 -55 98 -178 177 -297 227 -344 59 -55 162 -54 211 2 36 42 98 175 98 213 0 52 -27 225 -44 286 -8 28 -24 84 -36 125 -11 41 -36 122 -55 180 -18 58 -39 137 -45 175 -7 39 -16 88 -21 111 -4 22 -11 90 -15 151 -7 109 -6 111 25 176 28 60 36 70 83 93 29 14 89 36 133 50 44 13 94 29 111 34 17 6 63 10 102 10 l72 0 -3 -172 c-3 -130 -9 -187 -22 -228 -15 -45 -18 -92 -18 -258 -1 -143 3 -206 11 -214 7 -7 12 -31 12 -54 0 -24 4 -45 9 -48 4 -3 12 -47 16 -98 4 -58 16 -115 30 -153 13 -33 31 -86 39 -117 9 -31 21 -60 26 -63 6 -3 10 -25 10 -48 0 -23 5 -60 11 -82 5 -22 14 -56 19 -75 16 -63 44 -105 103 -158 57 -52 57 -52 125 -52 67 0 69 1 110 43 23 23 42 50 42 59 0 9 5 20 10 23 5 3 10 19 10 34 0 15 7 42 16 60 20 39 22 177 4 212 -10 18 -12 72 -7 233 6 176 9 212 23 227 10 11 22 19 28 19 18 0 46 -55 56 -108 12 -68 38 -162 57 -202 76 -166 202 -308 311 -350 l63 -25 -6 -42 c-6 -42 10 -71 21 -36 3 10 11 28 17 41 9 19 6 27 -18 52 -16 17 -33 30 -38 30 -4 0 -37 14 -73 31 -51 25 -70 41 -90 74 -14 24 -35 50 -47 58 -20 13 -97 130 -97 147 0 3 -8 24 -19 46 -10 21 -24 66 -31 99 -20 103 -31 139 -57 183 -34 59 -65 56 -105 -10 -23 -37 -31 -66 -38 -135 -15 -140 -12 -254 9 -346 20 -83 19 -191 0 -203 -5 -3 -9 -18 -9 -34 0 -16 -5 -32 -10 -35 -6 -3 -10 -15 -10 -25 0 -11 -16 -35 -37 -55 -32 -31 -42 -35 -87 -35 -46 0 -57 5 -105 45 -30 24 -62 60 -72 79 -17 35 -20 47 -39 171 -6 39 -15 78 -20 87 -17 31 -40 102 -40 125 0 12 -4 25 -10 28 -5 3 -10 16 -10 29 0 12 -5 27 -10 32 -6 6 -13 55 -17 110 -3 54 -10 108 -16 119 -21 39 -30 122 -34 314 -3 161 -1 202 12 240 31 88 44 167 34 205 -6 21 -6 49 -1 69 4 17 6 56 4 85 -6 74 -28 87 -142 87 -72 -1 -102 -7 -195 -39 -60 -21 -123 -45 -139 -53 -30 -16 -86 -71 -86 -86 0 -4 -12 -33 -26 -63 -29 -62 -29 -104 0 -304 21 -147 37 -205 131 -495 45 -140 82 -351 70 -406 -11 -50 -51 -133 -81 -168 -23 -28 -31 -31 -83 -31 -48 0 -62 4 -88 27 -18 16 -40 42 -50 59 -10 18 -38 58 -61 90 -55 74 -112 172 -112 191 0 9 -15 41 -34 72 -31 52 -126 259 -126 276 0 4 -11 33 -24 64 -57 133 -77 197 -91 294 -17 119 -40 203 -94 341 -21 56 -44 128 -51 161 -11 59 -36 159 -65 263 -8 29 -15 89 -15 133 0 74 4 92 49 202 28 67 59 140 70 162 12 21 38 91 58 154 20 65 51 138 70 166 84 125 132 186 178 227 28 24 94 86 149 138 54 52 130 118 170 146 l71 50 3 53 c2 29 -2 67 -9 85 -6 17 -15 81 -20 141 -4 61 -13 134 -19 163 -8 39 -8 93 -1 200 14 190 42 283 139 465 17 32 45 71 61 87 27 27 36 30 95 30 l65 0 48 65 c26 36 53 65 60 65 6 0 25 11 41 25 59 50 126 66 177 43 32 -14 32 -28 -3 -91 -37 -69 -52 -123 -52 -190 0 -39 -6 -67 -21 -91 -24 -41 -19 -69 16 -92 29 -19 62 -11 76 19 20 42 90 85 159 97 37 7 78 21 95 35 17 12 54 31 82 41 79 28 86 13 41 -78 -98 -201 -104 -227 -63 -276 34 -40 73 -42 135 -5 60 35 141 75 145 71 2 -2 5 -21 6 -43 3 -26 -4 -56 -17 -85 -24 -51 -41 -117 -50 -203 -6 -47 -4 -61 11 -77 25 -27 73 -34 120 -17 22 8 85 32 140 52 55 21 124 43 154 51 30 7 75 22 100 33 25 10 78 24 116 29 103 15 208 31 320 48 55 9 135 20 179 25 43 5 83 12 87 15 5 3 103 5 217 5 224 0 264 6 345 53 24 15 51 26 60 26 23 0 84 35 137 79 25 21 83 64 130 96 47 31 105 74 130 95 25 20 56 43 70 51 14 8 45 31 69 52 24 20 49 37 55 37 6 1 38 28 70 60 33 33 65 60 71 60 7 0 20 9 30 20 16 17 47 37 212 133 29 17 72 54 96 82 25 28 78 73 118 99 41 27 104 73 141 103 37 29 70 53 74 53 4 0 16 7 26 17 10 9 27 21 38 27 10 6 43 28 72 48 29 21 109 62 178 92 69 30 157 73 195 95 143 85 215 115 288 119 76 5 167 -17 203 -49 11 -11 28 -19 37 -19 14 0 17 -10 17 -46 0 -40 -6 -53 -37 -89 -21 -23 -56 -65 -78 -93 -22 -28 -46 -51 -53 -52 -7 0 -17 -11 -23 -24 -16 -35 -223 -188 -304 -225 -11 -5 -37 -23 -58 -40 -21 -16 -48 -33 -60 -37 -45 -14 -156 -103 -281 -224 -132 -129 -406 -424 -406 -439 0 -14 39 -43 52 -38 7 2 29 -2 48 -9 33 -14 42 -12 171 35 75 27 171 59 215 71 43 12 105 35 137 52 48 24 74 30 150 34 115 6 179 24 241 68 82 58 142 73 326 85 108 6 193 17 245 31 112 30 225 36 300 17 33 -8 99 -21 145 -27 122 -17 224 -46 313 -91 60 -30 216 -128 257 -161 19 -15 38 -28 42 -28 10 0 96 -59 103 -71 4 -5 14 -9 24 -9 20 0 100 -83 143 -148 15 -22 51 -57 80 -76 53 -36 61 -45 129 -147 20 -30 61 -76 90 -104 30 -27 59 -59 65 -70 6 -11 15 -29 21 -40 63 -117 84 -172 102 -266 7 -30 25 -83 41 -117 29 -62 29 -62 7 -62 -40 0 -174 38 -241 69 -51 23 -89 52 -173 135 -60 58 -113 106 -120 106 -7 0 -30 18 -52 40 -22 22 -46 40 -54 40 -15 0 -45 14 -87 42 -93 61 -224 125 -400 194 l-145 57 -130 2 c-71 1 -159 7 -195 14 -118 20 -186 10 -240 -35 -37 -31 -55 -90 -40 -131 20 -52 260 -242 402 -317 36 -20 69 -40 73 -46 4 -6 59 -36 123 -67 64 -31 135 -72 157 -92 56 -50 125 -132 125 -149 0 -9 11 -30 25 -48 14 -18 25 -38 25 -44 0 -6 11 -28 25 -50 14 -22 25 -44 25 -50 0 -5 34 -44 75 -86 76 -77 107 -135 123 -227 4 -21 12 -38 17 -38 19 0 17 45 -7 115 -19 58 -35 83 -94 146 -46 50 -83 101 -104 146 -18 38 -41 80 -52 93 -10 14 -27 43 -37 65 -10 23 -49 72 -86 109 -52 52 -90 79 -164 116 -53 27 -114 59 -136 71 -22 13 -64 37 -94 52 -29 16 -70 42 -90 58 -19 17 -40 30 -45 30 -15 0 -154 110 -170 135 -9 13 -25 26 -36 30 -34 11 -61 95 -44 139 3 8 28 22 55 31 51 17 41 17 374 -3 141 -9 214 -25 281 -63 19 -10 43 -19 54 -19 10 0 22 -4 25 -10 3 -5 15 -10 25 -10 27 0 262 -117 310 -154 8 -7 29 -18 45 -26 17 -8 50 -30 75 -50 25 -20 57 -42 71 -49 15 -7 65 -52 112 -100 69 -71 100 -95 168 -128 101 -49 135 -59 217 -68 69 -8 92 2 92 39 0 11 -11 31 -24 43 -13 13 -30 49 -40 85 -26 100 -39 142 -46 153 -4 6 -17 37 -30 70 -13 33 -28 67 -35 75 -6 8 -21 36 -34 63 -12 26 -28 47 -35 47 -12 0 -96 81 -96 93 0 18 -128 163 -171 194 -26 19 -64 58 -84 88 -37 56 -80 95 -175 156 -30 20 -127 83 -215 141 -88 58 -182 113 -210 123 -27 9 -63 23 -80 30 -132 58 -177 71 -280 80 -33 3 -79 11 -102 16 -23 6 -61 8 -85 5 -24 -4 -61 -9 -83 -12 -22 -3 -44 -10 -49 -15 -6 -5 -24 -9 -41 -9 -17 0 -35 -4 -41 -8 -15 -14 -139 -31 -268 -37 -127 -6 -224 -34 -276 -80 -43 -37 -153 -66 -255 -67 -39 0 -129 -26 -169 -48 -17 -10 -58 -25 -91 -35 -33 -9 -71 -21 -85 -27 -14 -6 -58 -19 -98 -28 -40 -10 -89 -28 -108 -39 -39 -24 -81 -27 -119 -9 -54 24 -37 46 269 356 163 165 235 226 330 282 24 14 70 43 102 65 32 21 76 47 98 57 82 38 250 190 389 350 55 64 57 69 57 123 0 44 -4 57 -17 62 -10 4 -32 17 -49 30 -34 25 -161 63 -209 62 -16 -1 -43 -4 -60 -8z"/>
 <path d="M7183 8441 c-29 -16 -77 -37 -108 -46 -30 -10 -60 -24 -66 -31 -6 -8 -15 -11 -21 -8 -14 9 -90 -31 -122 -65 -17 -17 -36 -31 -43 -31 -7 0 -36 -18 -64 -39 -28 -21 -86 -58 -128 -82 -42 -23 -106 -62 -143 -86 -37 -24 -70 -43 -72 -43 -3 0 -47 -41 -98 -91 -51 -50 -118 -109 -148 -132 -30 -23 -71 -55 -91 -72 -20 -16 -64 -50 -99 -75 -66 -47 -317 -289 -313 -302 2 -4 -4 -5 -12 -2 -8 3 -30 -10 -52 -31 -48 -47 -219 -163 -319 -216 -81 -43 -148 -65 -249 -79 -33 -5 -69 -11 -80 -14 -75 -18 -170 -26 -382 -31 -133 -3 -249 -8 -258 -11 -8 -3 -46 -9 -85 -13 -96 -8 -90 -27 8 -24 42 1 183 4 313 7 186 3 257 9 330 24 52 12 131 26 177 32 45 7 85 16 88 21 3 5 14 9 25 9 32 0 188 83 284 150 50 35 108 76 130 91 22 15 49 37 60 50 11 12 43 37 71 55 28 18 64 49 80 69 48 62 192 193 261 240 71 47 302 243 331 280 11 14 24 25 29 25 5 0 24 13 43 30 19 16 40 29 46 30 6 0 19 9 29 20 10 11 22 20 26 20 4 0 53 27 107 60 55 33 104 60 109 60 6 0 18 9 28 20 10 11 23 20 29 20 6 0 25 14 41 31 32 33 122 84 142 81 6 -2 14 2 18 8 3 5 16 10 28 10 12 0 58 18 102 40 119 60 144 53 145 -36 0 -42 -10 -52 -135 -129 -60 -38 -130 -86 -154 -107 -24 -21 -48 -38 -52 -38 -5 0 -23 -19 -40 -42 -32 -46 -101 -105 -159 -137 -19 -11 -68 -54 -109 -95 -41 -42 -79 -76 -86 -76 -7 0 -20 -10 -31 -21 -10 -12 -38 -34 -61 -50 -26 -18 -50 -46 -62 -72 -40 -89 -174 -202 -356 -301 -84 -45 -129 -76 -135 -91 -9 -23 -99 -75 -130 -75 -15 0 -43 -19 -184 -127 -30 -24 -67 -59 -82 -78 -26 -34 -26 -36 -9 -55 21 -23 85 -26 197 -10 87 13 114 26 140 69 46 77 103 117 215 151 50 15 70 16 195 6 l96 -9 99 46 c149 70 217 100 228 102 6 2 32 12 57 24 26 11 49 21 52 21 3 0 37 15 75 34 38 18 91 36 117 40 27 3 65 9 84 12 50 8 85 -22 93 -77 4 -33 16 -53 55 -92 41 -41 57 -50 95 -54 36 -4 48 -10 53 -27 8 -23 63 -90 172 -205 68 -73 87 -111 62 -126 -5 -3 -10 -14 -10 -24 0 -11 -19 -39 -42 -63 -24 -25 -70 -76 -104 -114 -53 -60 -75 -76 -168 -122 -59 -29 -133 -74 -164 -99 -31 -25 -76 -55 -99 -65 -23 -10 -55 -29 -70 -42 -15 -13 -39 -27 -53 -31 -14 -4 -47 -24 -75 -45 -92 -69 -113 -78 -234 -99 -37 -7 -47 -5 -68 13 -23 20 -24 25 -14 62 14 54 32 68 116 94 104 32 129 46 169 90 41 46 42 48 20 78 -22 31 -60 28 -145 -13 -111 -53 -143 -50 -232 24 -40 32 -88 68 -107 80 -41 25 -92 27 -110 6 -11 -13 -8 -22 19 -55 17 -21 31 -43 31 -49 0 -12 127 -121 141 -121 14 0 10 -52 -5 -72 -16 -22 -39 -23 -56 -3 -7 8 -18 15 -26 15 -7 0 -18 9 -24 19 -5 11 -34 32 -62 46 -29 15 -63 33 -75 39 -33 18 -161 125 -217 181 -143 143 -289 205 -376 160 -23 -12 -30 -23 -32 -48 -2 -53 1 -68 23 -98 29 -42 19 -63 -28 -56 -25 4 -45 17 -65 42 -16 19 -62 54 -101 77 -40 23 -105 63 -145 90 -40 26 -94 54 -121 62 -26 7 -71 24 -99 36 -47 20 -64 22 -150 17 -69 -4 -109 -12 -139 -26 -23 -12 -51 -21 -61 -21 -11 0 -42 -18 -68 -40 -27 -22 -56 -40 -64 -40 -9 0 -25 -7 -36 -15 -12 -8 -24 -12 -27 -9 -12 12 -124 -39 -158 -72 -20 -19 -50 -43 -67 -52 -174 -97 -192 -102 -355 -107 -139 -3 -265 -20 -282 -36 -5 -5 -16 -9 -24 -9 -18 0 -231 -88 -246 -101 -15 -14 -61 -10 -75 6 -16 19 -53 10 -107 -27 -33 -22 -45 -38 -53 -71 -6 -23 -16 -56 -21 -73 -12 -40 -12 -114 1 -150 8 -23 5 -46 -15 -114 -15 -47 -35 -119 -46 -160 -22 -86 -57 -157 -105 -217 -19 -23 -34 -45 -34 -50 0 -5 -20 -31 -44 -58 -24 -28 -56 -69 -72 -91 -63 -90 -181 -222 -209 -234 -16 -7 -51 -26 -76 -41 -25 -16 -55 -29 -66 -29 -11 0 -42 -12 -68 -26 -26 -15 -90 -42 -142 -60 -52 -18 -106 -40 -120 -49 -33 -22 -77 -121 -97 -222 -19 -90 -15 -139 15 -191 13 -22 19 -53 19 -92 0 -32 5 -62 10 -65 6 -3 10 -26 10 -51 0 -25 9 -64 20 -86 11 -23 20 -47 20 -53 0 -6 9 -29 20 -50 50 -97 100 -371 72 -389 -14 -8 -96 74 -124 124 -14 25 -35 54 -47 64 -12 11 -21 23 -21 27 0 4 -21 42 -46 84 -25 43 -63 119 -86 169 -22 50 -44 96 -48 101 -10 14 -47 115 -54 146 -3 14 -18 52 -32 85 -15 32 -28 64 -29 69 -1 10 -9 32 -27 75 -46 110 -51 141 -53 360 -1 127 -7 226 -13 242 -9 21 -8 29 4 39 8 7 14 19 12 28 -1 9 1 21 4 27 4 6 10 56 14 110 4 67 12 111 25 137 10 21 19 48 19 60 0 12 11 46 25 75 14 30 25 66 25 81 0 31 14 53 90 141 31 36 69 85 85 110 36 57 138 164 190 200 22 15 67 41 100 59 33 18 69 41 80 50 25 23 120 67 163 76 111 23 236 74 315 126 32 21 61 39 64 39 2 0 23 13 46 29 40 27 82 44 187 72 25 6 63 18 85 25 23 7 70 18 105 24 108 20 159 34 157 45 -4 17 -92 6 -242 -31 -167 -42 -257 -75 -320 -119 -75 -52 -205 -123 -247 -136 -18 -6 -67 -19 -108 -30 -105 -28 -143 -44 -208 -88 -32 -21 -92 -58 -135 -82 -87 -48 -195 -152 -261 -253 -22 -33 -61 -83 -87 -112 -69 -76 -81 -102 -160 -338 -36 -106 -40 -129 -39 -210 1 -97 0 -113 -15 -136 -5 -8 -11 -100 -13 -205 l-4 -190 31 -97 c18 -54 46 -126 63 -160 18 -35 32 -67 33 -73 3 -49 155 -427 194 -485 10 -14 27 -44 39 -67 32 -64 71 -123 81 -123 5 0 19 -25 31 -55 28 -69 112 -145 159 -145 43 0 56 30 43 96 -6 27 -17 85 -26 129 -18 85 -41 158 -63 190 -7 11 -13 30 -13 43 0 12 -11 44 -24 70 -17 34 -26 73 -31 137 -4 51 -18 121 -31 161 -40 117 -30 204 37 339 24 48 27 50 114 80 86 30 232 91 285 118 50 26 66 34 104 53 21 10 50 34 64 54 14 19 45 55 68 80 23 25 58 70 77 100 19 30 47 66 62 80 14 13 36 40 47 60 12 19 34 49 49 65 40 43 91 159 140 320 38 126 43 155 50 290 4 83 8 151 8 152 1 1 17 11 36 23 34 21 37 21 69 6 43 -20 53 -18 256 77 30 14 71 28 90 32 125 23 229 34 320 34 116 1 159 13 268 75 35 20 66 36 69 36 3 0 30 23 61 50 31 28 68 54 82 57 14 3 41 13 60 21 19 9 42 16 50 17 43 4 82 20 98 39 24 31 29 33 141 66 103 31 213 40 249 21 9 -6 49 -21 87 -35 39 -14 95 -42 125 -62 30 -20 73 -45 95 -56 68 -33 165 -102 171 -121 8 -26 43 -44 101 -52 51 -7 53 -6 63 21 10 24 7 34 -19 71 -30 42 -37 75 -25 107 4 12 20 16 54 16 97 0 187 -50 329 -183 92 -86 206 -171 261 -194 19 -9 57 -37 84 -65 41 -40 55 -48 80 -46 24 2 36 12 53 43 35 61 28 82 -52 143 -38 30 -73 61 -76 71 -4 9 -16 25 -28 35 -22 20 -28 46 -12 46 25 0 63 -23 136 -84 115 -96 123 -99 192 -75 31 10 80 31 110 45 55 26 83 26 83 1 0 -31 -47 -63 -135 -91 -118 -38 -166 -70 -184 -122 -13 -38 -13 -44 8 -77 12 -19 40 -44 63 -56 41 -20 43 -20 73 -2 17 10 54 21 81 25 27 4 58 16 69 26 66 60 131 100 164 100 38 0 73 24 64 46 -3 8 5 16 23 20 15 4 61 35 103 68 42 34 110 77 151 95 99 45 144 77 209 147 29 33 71 77 92 100 44 46 89 125 89 156 0 12 -29 49 -74 92 -40 40 -91 97 -113 127 -22 30 -47 60 -56 68 -10 7 -17 19 -17 25 0 7 -11 23 -25 36 -22 21 -28 22 -49 10 -22 -11 -29 -10 -66 20 -49 38 -60 58 -60 102 0 26 -9 42 -34 67 -32 31 -38 33 -83 28 -106 -14 -153 -27 -256 -76 -60 -28 -112 -51 -117 -51 -4 0 -13 -7 -20 -15 -7 -8 -16 -13 -20 -10 -9 6 -30 -2 -140 -53 -152 -70 -166 -73 -295 -60 -113 11 -171 1 -265 -47 -46 -23 -130 -105 -130 -126 0 -17 -31 -38 -56 -39 -11 0 -24 -3 -28 -7 -3 -4 -35 -8 -69 -10 -34 -1 -79 -5 -99 -8 -27 -4 -38 -2 -38 8 0 21 28 54 67 78 21 13 65 45 97 71 33 26 67 48 76 48 26 0 160 71 160 85 0 22 39 51 130 96 122 61 329 230 360 293 11 23 20 48 20 54 0 7 4 12 9 12 17 0 148 103 211 167 36 36 81 73 100 83 19 10 44 28 55 40 11 12 41 37 67 57 27 19 48 41 48 48 0 8 17 26 38 42 20 15 53 42 73 59 21 18 54 40 75 50 22 10 52 28 67 41 15 12 43 30 61 38 59 28 81 60 80 116 -1 96 -64 124 -161 70z"/>
 <path d="M7915 7591 c-33 -10 -78 -27 -100 -38 -23 -12 -73 -23 -115 -27 -41 -4 -79 -11 -84 -16 -6 -6 -21 -10 -36 -10 -14 0 -51 -18 -83 -41 l-57 -41 0 -52 c0 -62 17 -83 95 -116 28 -12 68 -30 90 -40 143 -64 147 -65 345 -63 161 1 192 4 240 22 73 28 93 27 133 -9 19 -16 44 -30 56 -30 46 0 265 -120 344 -189 62 -54 130 -90 200 -105 15 -4 44 -22 65 -40 20 -18 55 -43 77 -54 22 -11 67 -44 100 -72 33 -28 94 -71 135 -95 41 -24 95 -64 120 -89 49 -50 136 -96 181 -96 22 0 34 8 49 33 11 17 20 36 20 40 0 5 -21 32 -48 60 -65 71 -118 139 -177 226 -27 40 -71 91 -97 113 -27 22 -48 48 -48 57 0 10 -9 26 -21 37 -11 10 -36 39 -55 65 -44 60 -296 287 -354 319 -25 13 -76 43 -115 67 -38 24 -81 48 -95 54 -14 6 -38 17 -55 25 -70 31 -226 74 -305 83 -47 5 -125 17 -175 25 -115 19 -156 19 -230 -3z m225 -32 c285 -31 385 -56 555 -138 111 -54 283 -169 353 -236 156 -151 185 -184 218 -242 22 -40 54 -78 83 -101 27 -20 61 -57 77 -82 42 -66 151 -209 191 -251 26 -27 33 -42 28 -57 -16 -52 -98 -26 -200 65 -56 49 -167 123 -185 123 -5 0 -32 22 -62 49 -29 26 -79 65 -110 84 -31 20 -60 41 -63 47 -9 14 -90 54 -150 74 -55 18 -118 60 -182 123 -23 23 -59 47 -80 53 -21 7 -56 23 -78 35 -22 12 -62 31 -90 41 -27 10 -69 30 -92 46 -45 30 -76 35 -120 17 -15 -7 -64 -16 -108 -20 -44 -5 -100 -11 -125 -15 -47 -7 -194 10 -245 27 -16 6 -46 14 -65 18 -19 5 -55 17 -80 28 -25 11 -60 26 -78 33 -41 16 -62 45 -62 87 0 71 77 107 285 133 33 4 89 20 125 36 69 29 135 45 160 37 8 -3 53 -9 100 -14z"/>
 <path d="M7906 7483 c-43 -14 -78 -41 -71 -53 3 -4 23 2 46 13 22 11 53 19 67 19 198 -8 359 -27 412 -49 19 -8 45 -12 56 -9 47 12 323 -107 418 -179 35 -27 69 -79 58 -89 -8 -8 -51 3 -102 26 -25 12 -61 24 -80 29 -38 8 -95 27 -122 40 -10 5 -31 9 -48 9 -28 0 -77 22 -132 61 -18 13 -43 19 -81 19 -31 0 -59 5 -62 10 -3 6 -21 10 -39 10 -17 0 -37 5 -44 12 -9 9 -17 9 -36 -2 -17 -9 -42 -11 -83 -6 -32 4 -78 9 -103 12 -25 2 -56 6 -69 7 -14 2 -37 19 -52 37 -24 28 -29 31 -35 17 -16 -42 47 -91 108 -84 24 3 41 0 48 -8 8 -10 45 -13 138 -13 94 0 137 -4 164 -16 21 -9 57 -16 81 -16 24 0 52 -7 63 -15 32 -25 105 -55 134 -55 15 0 35 -9 44 -19 17 -19 42 -27 120 -38 22 -3 55 -14 73 -24 19 -11 43 -19 53 -19 11 0 29 -5 40 -12 15 -10 23 -9 39 6 40 36 29 58 -74 157 -27 27 -55 49 -61 49 -6 0 -37 13 -70 29 -32 16 -81 37 -109 46 -27 10 -65 24 -83 32 -17 8 -56 17 -85 20 -28 3 -59 10 -69 14 -16 9 -229 34 -348 42 -40 3 -80 -1 -104 -10z"/>
 <path d="M2492 7561 c-70 -75 -133 -187 -147 -263 -10 -52 28 -171 64 -200 15 -13 42 -43 59 -68 26 -39 31 -55 34 -119 3 -68 1 -75 -21 -90 -23 -15 -25 -14 -45 14 -37 52 -174 185 -190 185 -9 0 -25 -9 -37 -21 -19 -19 -20 -30 -17 -118 3 -89 6 -101 35 -146 47 -73 79 -89 165 -82 40 3 77 12 87 21 9 8 43 26 76 41 117 53 147 62 220 70 33 4 76 13 95 21 19 8 55 20 80 25 24 6 50 15 57 21 31 25 6 94 -48 137 -44 34 -62 85 -54 148 6 49 4 58 -16 79 -16 17 -29 22 -43 18 -33 -10 -117 -64 -163 -106 -24 -21 -46 -38 -51 -38 -11 0 -34 257 -32 366 1 88 0 92 -26 113 -35 28 -50 27 -82 -8z m71 -178 c4 -87 7 -198 7 -246 0 -124 13 -125 164 -8 54 42 88 61 107 61 l29 0 0 -71 c0 -70 1 -72 45 -121 61 -68 72 -120 28 -134 -10 -3 -27 -10 -38 -14 -11 -5 -63 -16 -115 -25 -52 -10 -115 -26 -139 -36 -24 -11 -49 -19 -56 -19 -7 0 -18 -7 -25 -15 -7 -8 -22 -15 -33 -15 -11 0 -34 -10 -51 -23 -44 -33 -54 -35 -125 -26 -69 10 -85 19 -106 58 -26 51 -38 192 -19 219 11 15 14 15 37 -1 15 -9 59 -55 99 -102 43 -50 81 -85 92 -85 10 0 32 15 50 34 30 34 31 37 26 108 -4 57 -10 81 -28 103 -113 143 -138 201 -126 284 12 84 112 231 158 231 10 0 14 -38 19 -157z"/>
 <path d="M4065 6920 c-11 -5 -32 -9 -48 -9 -15 -1 -35 -5 -45 -10 -21 -11 -226 -82 -307 -106 -33 -10 -71 -22 -85 -27 -14 -5 -59 -14 -100 -21 -41 -7 -74 -17 -72 -22 4 -16 102 -11 167 9 84 26 223 72 260 87 42 17 182 58 220 65 44 7 68 21 59 35 -6 11 -22 10 -49 -1z"/>
 <path d="M7105 6880 c-3 -5 -14 -10 -24 -10 -28 0 -54 -48 -54 -97 0 -36 6 -50 33 -78 28 -29 41 -35 75 -35 33 0 47 6 73 33 27 28 32 40 32 83 0 40 -5 55 -22 70 -49 41 -99 57 -113 34z m91 -58 c41 -54 -7 -129 -76 -118 -42 7 -60 28 -60 71 0 54 33 78 94 69 16 -2 35 -12 42 -22z"/>
 <path d="M7872 6615 c-16 -7 -45 -35 -63 -62 -66 -95 -37 -171 97 -248 119 -68 144 -97 144 -164 0 -46 32 -90 82 -114 18 -9 62 -36 97 -61 36 -25 68 -46 73 -46 28 0 358 -305 358 -331 0 -6 9 -24 20 -39 11 -16 27 -47 35 -70 15 -41 26 -67 77 -178 32 -69 91 -122 137 -122 54 0 70 -11 82 -52 12 -45 49 -88 75 -88 10 0 28 9 40 21 21 20 22 27 17 117 -3 54 -9 101 -14 107 -5 5 -9 27 -9 50 -1 118 -71 290 -155 380 -24 25 -42 52 -39 58 2 7 -16 36 -40 65 -25 29 -55 67 -68 85 -44 63 -249 297 -260 297 -3 0 -39 30 -78 67 -109 102 -239 183 -325 203 -58 13 -104 35 -125 60 -8 10 -40 31 -71 48 -51 26 -59 28 -87 17z m69 -47 c14 -7 40 -25 59 -39 61 -46 124 -76 170 -83 47 -7 161 -69 194 -105 11 -12 25 -21 31 -21 7 0 33 -19 57 -42 24 -24 74 -72 111 -106 37 -35 105 -110 152 -165 47 -56 102 -122 122 -146 52 -62 82 -108 75 -115 -3 -4 11 -23 31 -44 20 -20 50 -68 67 -107 17 -38 37 -81 44 -95 7 -14 19 -63 26 -110 7 -47 16 -96 20 -110 5 -14 9 -50 9 -80 1 -30 4 -62 6 -70 3 -8 1 -21 -4 -29 -15 -24 -52 -2 -72 45 -23 50 -43 64 -95 64 -48 0 -95 35 -113 85 -7 20 -24 54 -38 74 -13 20 -27 48 -30 64 -3 15 -10 30 -14 33 -5 3 -9 14 -9 24 0 11 -17 45 -37 76 -21 31 -45 68 -54 81 -10 14 -71 77 -136 142 -83 80 -139 126 -184 150 -35 18 -75 44 -89 57 -14 12 -46 32 -72 44 -64 28 -87 60 -81 109 5 36 2 42 -49 92 -29 30 -86 71 -125 92 -59 31 -75 45 -92 80 -23 48 -20 73 17 130 27 40 59 48 103 25z"/>
 <path d="M8090 6395 c-9 -10 -9 -23 -2 -42 10 -30 269 -292 299 -304 31 -12 202 -173 239 -224 37 -52 87 -91 104 -80 26 16 4 100 -44 164 -14 19 -26 40 -26 46 0 6 -30 40 -67 76 -37 35 -115 112 -173 170 -99 100 -194 169 -273 198 -37 14 -42 14 -57 -4z m105 -53 c53 -27 165 -104 165 -113 0 -12 105 -117 190 -190 61 -53 78 -76 137 -192 32 -62 25 -82 -13 -38 -81 95 -235 247 -284 281 -31 21 -87 71 -125 111 -88 91 -97 100 -123 121 -12 10 -22 25 -22 34 0 17 22 13 75 -14z"/>
 <path d="M4710 6550 c-19 -11 -76 -40 -125 -64 -53 -25 -97 -53 -107 -68 -9 -14 -40 -52 -68 -84 -71 -81 -105 -147 -120 -229 -7 -38 -21 -92 -31 -118 -23 -59 -26 -191 -5 -239 8 -18 17 -44 20 -58 10 -47 64 -118 133 -173 74 -59 107 -71 217 -82 38 -4 88 -13 111 -19 46 -14 99 -10 130 10 11 6 61 22 110 33 159 38 179 44 216 62 39 19 206 177 232 219 30 48 45 148 37 240 -19 204 -46 266 -167 387 -92 92 -128 113 -273 162 -103 35 -131 41 -205 41 -53 0 -79 -5 -105 -20z m143 -20 c124 -18 310 -82 339 -117 7 -9 29 -26 49 -39 63 -40 129 -136 156 -228 26 -89 35 -213 21 -291 -12 -73 -56 -154 -98 -180 -19 -13 -53 -42 -75 -65 -50 -52 -105 -82 -170 -91 -86 -13 -138 -26 -208 -49 -57 -19 -73 -21 -105 -12 -20 6 -73 14 -117 17 -128 10 -169 24 -238 87 -52 47 -66 67 -90 129 -16 41 -33 82 -38 91 -16 31 -10 103 16 182 14 42 25 87 25 99 0 35 29 120 50 149 11 15 20 31 20 35 0 5 24 36 54 70 30 34 56 66 57 71 4 9 186 112 199 112 4 0 15 9 25 20 21 23 30 24 128 10z"/>
 <path d="M7386 6355 c-16 -8 -35 -15 -43 -15 -17 0 -113 -98 -113 -115 0 -7 -9 -20 -20 -30 -11 -10 -20 -24 -20 -32 0 -29 -105 -172 -142 -193 -21 -12 -38 -25 -38 -31 0 -5 -6 -9 -13 -9 -7 0 -28 -13 -47 -30 -19 -16 -43 -29 -52 -30 -10 0 -25 -11 -33 -24 -13 -20 -14 -31 -4 -72 6 -27 20 -63 30 -79 10 -17 34 -73 54 -125 20 -52 44 -113 54 -135 44 -99 101 -290 101 -341 0 -22 7 -65 15 -96 19 -73 22 -332 5 -370 -12 -26 -75 -58 -115 -58 -42 0 -98 23 -133 54 -20 18 -53 42 -72 54 -19 11 -71 58 -116 104 -71 74 -85 84 -117 85 -30 1 -46 -8 -94 -49 -75 -66 -103 -110 -103 -168 0 -42 5 -51 71 -125 65 -73 129 -179 129 -214 0 -7 12 -46 26 -85 22 -60 26 -88 26 -177 0 -59 -5 -116 -11 -127 -6 -11 -11 -34 -11 -50 0 -51 -32 -99 -152 -226 -69 -73 -120 -109 -193 -136 -11 -4 -51 -22 -88 -40 -48 -23 -65 -36 -58 -43 8 -8 23 -4 52 11 22 12 46 22 52 22 7 0 50 19 97 42 69 34 100 58 167 128 46 47 83 90 83 95 0 6 14 27 30 47 18 22 34 56 39 85 5 26 14 61 20 76 6 16 11 77 11 137 0 89 -4 121 -25 182 -14 40 -25 82 -25 93 0 44 -50 122 -124 195 -66 65 -76 79 -76 110 0 19 8 47 18 61 19 29 132 139 143 139 3 0 48 -45 99 -100 51 -56 109 -109 129 -119 20 -11 45 -29 56 -41 32 -36 70 -50 132 -50 121 0 175 36 187 124 6 46 -9 336 -23 436 -5 36 -18 87 -30 113 -11 27 -21 55 -21 64 0 19 -50 164 -61 179 -5 6 -25 61 -44 122 -20 61 -40 114 -45 117 -15 9 -60 97 -60 116 0 11 6 19 13 19 7 0 26 14 42 30 16 17 34 30 41 30 6 0 17 7 24 15 7 9 28 23 47 31 18 9 46 34 61 56 15 22 37 52 48 67 12 14 32 45 44 68 12 23 28 47 36 54 8 6 14 17 14 24 0 6 9 20 20 30 11 10 20 24 20 32 0 7 8 16 18 20 9 3 23 11 30 16 8 6 21 12 30 13 10 1 24 4 33 8 12 5 39 -16 98 -73 89 -87 153 -141 169 -141 5 0 15 -6 21 -14 18 -21 100 -62 152 -76 24 -7 62 -21 83 -31 22 -10 45 -19 51 -19 6 0 29 -13 51 -30 21 -16 47 -30 56 -30 9 0 20 -5 23 -11 4 -5 12 -8 18 -6 7 2 42 -24 78 -58 37 -34 89 -77 115 -96 104 -70 167 -134 235 -238 38 -57 69 -107 69 -112 0 -4 29 -51 65 -103 35 -53 74 -115 86 -138 12 -23 56 -76 98 -118 73 -73 82 -78 205 -128 124 -49 131 -51 154 -36 24 16 24 18 19 133 -2 64 -9 130 -15 146 -6 17 -17 59 -26 95 -9 36 -21 81 -27 100 -6 19 -16 62 -22 95 -7 33 -17 59 -22 58 -18 -4 -16 -67 5 -138 59 -197 73 -264 77 -362 4 -94 3 -103 -14 -103 -10 0 -71 21 -135 46 -109 43 -123 52 -184 115 -37 37 -79 89 -93 116 -15 26 -47 78 -73 115 -25 37 -55 86 -67 110 -11 24 -51 88 -88 143 -58 85 -82 110 -163 171 -52 40 -126 101 -164 136 -38 35 -74 63 -80 63 -6 0 -22 8 -36 18 -13 9 -29 17 -34 17 -5 0 -24 11 -42 25 -18 14 -39 25 -46 25 -7 0 -34 11 -60 25 -26 14 -54 25 -62 25 -7 0 -61 24 -119 53 -91 45 -120 66 -204 148 -129 125 -140 133 -177 114z"/>
 <path d="M5970 6204 c-24 -10 -71 -57 -86 -86 -12 -24 -12 -32 0 -61 21 -51 89 -102 175 -133 76 -26 156 -63 240 -108 24 -14 80 -63 125 -110 45 -47 86 -86 91 -86 17 -1 65 -48 65 -64 0 -9 10 -32 23 -53 21 -36 22 -48 22 -248 l0 -210 45 -61 c72 -97 177 -216 206 -230 42 -22 57 -17 107 34 l47 48 1 150 c1 102 -2 157 -10 173 -7 13 -31 75 -53 139 -73 212 -115 288 -275 489 -34 43 -68 84 -75 92 -35 37 -131 105 -193 137 -38 20 -79 45 -90 54 -11 10 -31 21 -45 25 -14 4 -43 20 -65 35 -73 50 -128 72 -184 76 -31 2 -63 1 -71 -2z m175 -60 c27 -12 65 -34 84 -48 19 -14 40 -26 47 -26 6 0 34 -15 60 -33 27 -18 72 -46 101 -62 128 -69 294 -255 396 -445 49 -90 73 -143 87 -185 7 -22 19 -53 26 -70 7 -16 15 -47 19 -68 4 -20 11 -40 16 -43 5 -3 9 -81 9 -173 0 -165 0 -168 -25 -191 -39 -36 -70 -23 -157 67 -42 43 -92 99 -112 125 l-36 48 1 220 c0 192 -2 223 -18 246 -9 15 -19 45 -23 68 -4 33 -9 42 -30 46 -36 7 -72 34 -158 117 -42 41 -97 87 -122 101 -25 15 -60 37 -79 49 -19 13 -61 32 -95 42 -34 11 -74 26 -91 35 -16 9 -35 16 -42 16 -22 0 -93 84 -93 111 0 25 39 71 70 82 26 10 113 -6 165 -29z"/>
 <path d="M3845 6170 c-22 -16 -46 -29 -53 -30 -21 0 -72 -42 -72 -59 -1 -22 -29 -55 -67 -77 -18 -10 -55 -46 -83 -80 -40 -50 -50 -71 -52 -106 l-3 -43 55 2 c50 2 71 8 122 34 10 5 29 9 42 9 14 0 28 5 31 10 3 6 28 10 55 10 66 0 140 17 168 39 18 13 26 32 31 77 5 32 13 72 20 87 20 49 14 98 -16 129 -23 24 -34 28 -82 27 -45 0 -64 -6 -96 -29z m147 -17 c20 -18 26 -97 8 -108 -5 -3 -10 -30 -10 -60 0 -48 -3 -56 -29 -74 -23 -17 -44 -21 -101 -21 -57 0 -77 -4 -97 -20 -14 -11 -36 -20 -49 -20 -13 0 -39 -9 -59 -20 -20 -11 -49 -20 -65 -20 -26 0 -30 3 -30 29 0 24 18 47 95 123 52 51 95 97 95 102 0 18 33 46 54 46 12 1 39 14 61 30 46 33 99 39 127 13z"/>
 <path d="M643 5809 c-56 -26 -105 -86 -129 -156 -10 -32 -27 -71 -36 -88 -10 -16 -18 -38 -18 -48 0 -22 -38 -184 -50 -212 -4 -11 -13 -47 -20 -80 -6 -33 -20 -89 -31 -125 -26 -90 -70 -459 -73 -610 -3 -162 11 -269 64 -470 6 -25 17 -88 25 -140 14 -107 63 -340 74 -355 4 -5 13 -30 20 -55 7 -25 24 -69 38 -98 13 -30 30 -70 38 -90 23 -66 62 -130 124 -204 33 -40 80 -97 103 -127 50 -63 84 -79 125 -59 46 22 42 52 -14 111 -38 40 -72 97 -145 247 -141 288 -177 386 -231 620 -31 130 -34 162 -36 310 -1 113 4 221 18 345 12 99 21 221 21 272 0 53 6 109 14 130 27 77 36 110 36 137 0 14 8 52 19 84 10 31 24 86 31 122 6 36 16 74 20 85 10 23 18 73 26 160 2 33 14 75 24 93 11 18 20 39 20 45 0 7 9 31 21 52 20 40 27 94 14 114 -9 16 -44 12 -92 -10z m77 -25 c0 -6 -55 -126 -72 -158 -6 -11 -12 -48 -13 -82 -2 -34 -5 -67 -8 -71 -9 -15 -44 -152 -57 -226 -7 -37 -16 -70 -21 -73 -5 -3 -9 -19 -9 -35 0 -45 -30 -179 -47 -212 -10 -19 -16 -66 -18 -133 -2 -57 -6 -112 -9 -122 -20 -62 -35 -576 -20 -682 6 -40 34 -151 81 -320 18 -66 23 -78 57 -152 14 -31 26 -60 26 -64 0 -4 43 -94 95 -200 67 -137 109 -209 145 -250 27 -31 50 -60 50 -64 0 -4 -7 -13 -15 -20 -24 -20 -56 3 -109 74 -25 34 -68 85 -96 114 -49 51 -101 144 -116 207 -4 17 -13 39 -20 51 -22 33 -81 214 -94 284 -6 36 -18 88 -26 115 -8 28 -19 88 -24 135 -12 115 -24 173 -48 250 -17 54 -22 103 -28 281 -4 119 -4 225 1 235 9 22 13 48 20 124 15 161 29 268 37 290 6 14 20 68 33 121 12 52 27 104 32 115 6 10 18 62 28 114 9 52 26 113 36 135 9 22 25 60 34 85 23 63 74 120 116 130 44 10 59 11 59 4z"/>
 <path d="M5815 5803 c-16 -9 -41 -24 -54 -34 -13 -11 -30 -19 -39 -19 -8 0 -44 -21 -79 -46 -85 -61 -108 -107 -106 -214 1 -41 -2 -93 -7 -115 -10 -46 -1 -87 49 -224 17 -46 31 -86 31 -88 0 -11 110 -119 146 -144 42 -29 243 -119 266 -119 7 0 31 -12 53 -25 48 -30 116 -33 162 -7 62 33 129 126 168 233 34 92 35 103 29 176 -8 103 -19 143 -62 233 -70 145 -244 316 -381 376 -87 37 -130 42 -176 17z m154 -47 c25 -13 57 -29 71 -35 41 -18 144 -111 207 -186 90 -106 131 -199 145 -330 9 -82 9 -111 0 -126 -7 -10 -12 -30 -12 -43 0 -14 -4 -27 -9 -30 -5 -3 -12 -21 -15 -40 -7 -34 -91 -141 -130 -163 -32 -19 -100 -16 -127 6 -13 10 -49 26 -79 36 -30 10 -70 24 -88 31 -18 8 -40 14 -48 14 -18 0 -172 100 -195 127 -24 28 -79 139 -79 160 0 5 -10 29 -22 54 -21 40 -23 55 -20 182 2 87 9 150 17 170 19 45 92 112 145 133 25 10 60 28 79 41 44 30 100 30 160 -1z"/>
 <path d="M3725 5580 c-91 -15 -121 -25 -174 -57 -75 -44 -174 -153 -203 -222 -10 -25 -23 -54 -28 -63 -6 -10 -10 -27 -10 -38 0 -11 -10 -57 -21 -102 -23 -87 -22 -188 3 -302 21 -98 118 -224 190 -249 148 -50 135 -48 228 -22 46 14 100 25 119 25 53 1 115 33 179 93 31 30 72 62 90 71 17 9 32 20 32 25 0 5 24 33 53 63 94 95 122 191 106 369 -14 164 -89 287 -228 373 -78 47 -88 51 -155 53 -39 1 -120 -7 -181 -17z m290 -50 c22 -12 47 -28 55 -34 8 -7 23 -16 32 -19 9 -3 25 -19 35 -34 9 -15 30 -44 45 -63 37 -48 59 -117 68 -219 8 -91 -2 -179 -25 -215 -7 -12 -16 -34 -19 -51 -4 -18 -32 -56 -71 -95 -58 -59 -84 -82 -192 -166 -39 -30 -105 -54 -150 -54 -19 0 -60 -7 -90 -16 -58 -17 -119 -14 -197 9 -85 26 -175 158 -188 277 -4 36 -10 82 -14 103 -3 21 -1 59 6 85 37 150 64 239 85 287 15 33 130 155 146 155 6 0 24 9 40 20 29 21 91 36 214 50 104 12 174 6 220 -20z"/>
 <path d="M4795 5374 c-71 -18 -71 -18 -275 -216 -90 -88 -156 -178 -171 -233 -6 -22 -17 -60 -24 -85 -9 -25 -16 -97 -17 -165 -3 -129 -6 -117 64 -265 19 -39 56 -91 93 -130 34 -36 70 -78 80 -93 10 -16 36 -37 59 -49 38 -19 56 -20 289 -19 137 0 253 3 258 7 5 3 6 10 3 16 -4 6 -72 9 -183 8 -97 -1 -215 -2 -263 -1 l-88 1 -89 93 c-88 90 -107 119 -176 272 -23 51 -23 272 0 320 8 17 17 46 20 66 11 75 146 247 244 312 22 14 54 44 71 66 18 22 44 42 59 46 71 18 132 23 163 14 18 -6 85 -12 148 -14 64 -1 127 -8 142 -15 31 -14 68 -6 51 11 -6 6 -24 12 -40 14 -15 1 -35 5 -43 8 -27 9 -94 18 -160 21 -36 1 -94 5 -130 9 -36 3 -74 4 -85 1z"/>
 <path d="M5276 5311 c-4 -5 10 -19 29 -31 19 -12 35 -25 35 -29 0 -4 34 -42 75 -84 41 -43 75 -82 75 -87 0 -6 15 -31 34 -57 27 -39 35 -64 44 -128 6 -44 16 -109 22 -145 14 -81 15 -118 5 -200 -17 -143 -112 -267 -263 -341 -48 -24 -91 -42 -95 -41 -17 5 -49 -20 -39 -30 7 -7 18 -6 33 3 13 7 29 12 36 11 7 -2 30 9 52 23 23 14 46 25 53 25 7 0 51 33 96 72 124 107 162 193 164 368 0 36 -4 88 -10 115 -6 28 -17 92 -25 142 -7 51 -21 101 -29 110 -8 10 -27 38 -42 63 -29 51 -216 250 -234 250 -6 0 -13 -4 -16 -9z"/>
 <path d="M8009 5089 c-9 -17 -3 -43 33 -142 l43 -122 -1 -390 c0 -250 -5 -413 -12 -455 -6 -36 -14 -82 -17 -103 -3 -21 -9 -46 -13 -55 -5 -9 -19 -55 -31 -102 -13 -47 -27 -94 -32 -105 -17 -40 -49 -149 -49 -167 0 -19 -55 -136 -95 -203 -24 -40 -36 -120 -21 -143 4 -7 20 -12 35 -12 42 0 96 65 140 170 36 84 37 86 91 235 28 77 61 160 72 185 11 24 24 71 29 105 4 33 18 107 29 165 11 58 20 116 19 130 -1 14 3 36 8 50 6 14 14 81 18 150 6 94 12 135 27 164 18 35 19 53 14 160 -6 151 -16 214 -45 293 -51 143 -113 213 -188 213 -33 0 -45 -5 -54 -21z m111 -26 c43 -30 63 -64 106 -181 22 -62 24 -81 24 -249 0 -100 -4 -184 -9 -187 -5 -3 -12 -63 -16 -133 -9 -168 -12 -195 -19 -213 -5 -14 -40 -210 -52 -290 -7 -46 -23 -108 -40 -145 -23 -55 -55 -139 -84 -220 -69 -198 -138 -325 -177 -325 -29 0 -13 69 41 172 31 57 62 133 70 171 9 38 25 89 35 115 10 26 29 83 41 127 12 44 30 103 40 130 37 99 44 192 41 590 l-2 380 -44 129 c-24 71 -42 133 -39 138 9 14 58 9 84 -9z"/>
 <path d="M3003 5023 c-12 -10 -38 -37 -58 -60 -52 -59 -76 -165 -63 -277 6 -52 6 -113 -2 -184 -7 -59 -15 -147 -20 -197 -4 -49 -16 -126 -25 -170 -18 -85 -18 -95 22 -295 8 -41 18 -97 23 -125 8 -55 49 -204 75 -275 20 -54 95 -164 116 -168 47 -9 89 113 70 203 -35 161 -43 225 -47 364 -3 121 -1 167 12 220 21 80 130 360 151 383 29 33 28 89 -5 148 -37 68 -123 269 -141 330 -32 110 -65 141 -108 103z m61 -57 c9 -19 16 -41 16 -50 0 -14 28 -95 50 -141 5 -11 28 -60 51 -110 75 -163 72 -142 35 -220 -18 -39 -38 -86 -46 -105 -7 -19 -16 -39 -20 -45 -3 -5 -12 -30 -19 -55 -7 -25 -18 -56 -23 -70 -39 -97 -47 -140 -49 -266 -1 -151 10 -322 22 -330 5 -3 9 -27 9 -54 0 -27 5 -52 11 -56 10 -6 9 -38 -7 -111 -3 -18 -9 -33 -13 -33 -23 1 -91 86 -91 114 0 9 -4 24 -9 34 -24 47 -63 201 -90 352 -31 175 -33 197 -20 300 6 52 15 133 20 180 4 47 13 126 18 175 6 50 8 140 5 201 -4 69 -2 124 5 145 5 19 13 45 15 59 6 29 83 120 101 120 7 0 20 -15 29 -34z"/>
 <path d="M7435 4920 c-3 -5 -14 -10 -24 -10 -32 0 -90 -77 -116 -155 -13 -36 -14 -57 -6 -103 6 -31 12 -73 14 -92 7 -52 -10 -216 -28 -288 -9 -35 -15 -75 -14 -90 1 -15 -1 -34 -4 -42 -21 -50 -69 -279 -61 -291 3 -5 -1 -21 -9 -36 -8 -15 -12 -33 -10 -40 2 -6 -3 -32 -11 -58 -9 -25 -16 -60 -16 -78 0 -18 -6 -41 -14 -52 -7 -11 -13 -27 -13 -35 0 -8 -12 -41 -26 -73 -15 -32 -27 -66 -27 -75 0 -10 -4 -22 -8 -27 -4 -6 -14 -28 -21 -50 -7 -22 -19 -53 -26 -70 -7 -16 -20 -50 -30 -75 -22 -56 -66 -144 -177 -353 -9 -18 -17 -40 -18 -50 -1 -47 -215 -449 -283 -530 -23 -29 -49 -65 -57 -81 -8 -16 -32 -47 -52 -70 -21 -23 -38 -46 -38 -53 0 -7 -8 -20 -18 -30 -10 -10 -37 -43 -60 -74 -23 -30 -84 -101 -137 -156 -52 -56 -95 -105 -95 -111 0 -14 -122 -102 -142 -102 -37 0 -160 141 -202 232 -9 20 -21 40 -26 43 -5 3 -7 12 -3 21 3 8 -2 23 -11 33 -9 10 -14 20 -11 23 7 7 -22 75 -47 109 -12 16 -36 33 -53 39 -32 11 -44 8 -120 -24 -42 -18 -141 -36 -206 -37 -30 0 -87 -6 -126 -13 -40 -7 -131 -14 -203 -15 -139 -2 -192 -9 -280 -36 -30 -10 -71 -19 -90 -22 -79 -12 -99 -66 -107 -296 -4 -118 -2 -133 22 -205 15 -42 36 -96 46 -119 10 -24 28 -63 39 -87 11 -25 20 -49 20 -53 0 -5 11 -25 25 -45 14 -20 25 -46 25 -57 0 -11 5 -23 10 -26 6 -3 10 -17 10 -30 0 -13 5 -27 10 -30 6 -3 10 -13 10 -22 0 -31 104 -184 280 -414 129 -168 289 -305 435 -373 22 -10 52 -27 67 -37 32 -23 59 -24 118 -3 75 27 149 44 188 44 20 1 55 7 77 15 22 8 54 15 71 15 17 0 66 11 108 25 42 14 81 25 87 25 20 0 154 62 186 86 21 16 45 24 73 24 52 0 101 21 152 65 23 19 47 35 53 35 14 0 95 85 113 118 24 47 15 70 -68 167 -44 52 -80 97 -80 101 0 4 -34 40 -75 81 -109 108 -165 186 -165 227 0 43 36 112 72 138 16 11 28 25 28 32 0 7 9 21 20 31 11 10 20 23 20 30 0 7 9 20 19 29 11 10 29 38 41 63 12 25 43 79 71 120 27 41 49 78 49 81 0 4 13 23 28 42 83 103 134 175 177 250 26 47 58 99 71 117 13 17 24 34 24 38 0 3 9 27 21 53 23 51 22 49 98 202 29 58 57 114 61 125 5 11 36 77 69 148 34 70 61 133 61 141 0 7 3 16 8 20 4 4 7 11 7 14 0 4 15 36 32 72 17 36 34 76 38 90 12 42 108 264 120 280 7 8 15 26 18 40 4 21 33 105 89 265 64 182 104 360 115 510 2 39 8 75 13 80 4 6 13 46 19 90 7 44 17 101 23 128 9 36 9 68 -1 140 -13 96 -38 214 -48 231 -4 5 -5 38 -4 74 3 89 -9 102 -105 102 -40 0 -76 -4 -79 -10z m145 -39 c5 -11 10 -39 10 -64 0 -24 3 -47 6 -50 4 -4 8 -21 10 -39 1 -18 8 -64 14 -103 23 -129 12 -383 -18 -439 -10 -20 -15 -48 -13 -78 1 -26 -5 -80 -14 -120 -69 -305 -86 -367 -110 -401 -8 -12 -15 -35 -15 -51 0 -35 -14 -81 -46 -151 -12 -27 -30 -70 -39 -95 -26 -69 -57 -145 -100 -244 -14 -32 -25 -64 -25 -71 0 -7 -6 -18 -14 -24 -13 -11 -29 -57 -31 -91 0 -9 -11 -30 -23 -47 -12 -17 -22 -34 -22 -37 0 -7 -57 -136 -72 -161 -16 -28 -32 -61 -63 -130 -15 -33 -55 -118 -91 -190 -35 -71 -64 -135 -64 -141 0 -6 -22 -46 -50 -88 -27 -42 -50 -79 -50 -82 0 -2 -12 -23 -27 -47 -15 -23 -32 -50 -38 -59 -5 -9 -38 -53 -72 -97 -34 -45 -75 -103 -90 -129 -14 -26 -39 -63 -53 -82 -14 -19 -39 -57 -55 -85 -34 -60 -122 -177 -141 -188 -8 -4 -14 -13 -14 -18 0 -6 -13 -30 -30 -54 -32 -47 -37 -74 -18 -108 19 -37 79 -109 161 -193 43 -45 87 -96 98 -113 10 -17 22 -31 27 -31 4 0 34 -32 66 -72 l59 -71 -29 -55 c-26 -50 -77 -102 -101 -102 -5 0 -20 -12 -34 -26 -33 -36 -65 -50 -129 -58 -32 -4 -71 -17 -92 -32 -21 -13 -42 -24 -47 -24 -6 0 -32 -14 -58 -30 -30 -19 -60 -30 -83 -30 -20 0 -40 -4 -46 -8 -14 -13 -84 -32 -134 -36 -25 -3 -58 -9 -73 -15 -16 -6 -48 -11 -72 -11 -23 0 -91 -16 -151 -35 -114 -37 -134 -41 -150 -26 -5 5 -36 24 -69 42 -81 44 -103 57 -171 105 -59 42 -227 213 -264 269 -39 59 -109 153 -146 195 -19 22 -45 65 -90 150 -8 14 -14 31 -14 38 0 7 -4 20 -9 30 -22 41 -41 86 -41 99 0 8 -11 29 -25 47 -14 18 -25 39 -25 46 0 7 -17 49 -39 94 -21 44 -44 99 -51 121 -7 22 -17 49 -23 60 -15 30 -20 192 -7 260 6 33 14 81 19 108 4 26 12 52 18 58 6 6 55 24 109 40 89 27 117 30 274 35 96 3 193 9 215 14 22 5 81 12 132 15 93 5 208 29 230 47 7 6 36 11 65 12 l52 1 37 -67 c20 -37 35 -69 32 -72 -3 -2 1 -15 8 -28 7 -12 13 -27 14 -33 3 -44 125 -217 189 -268 51 -40 82 -36 148 21 59 50 157 154 223 237 22 28 65 79 96 115 30 36 58 72 61 80 3 8 26 41 52 72 25 31 46 59 46 63 0 7 60 94 98 143 16 20 48 73 70 118 22 44 53 103 69 130 16 27 35 65 43 84 7 19 21 46 30 60 9 14 23 48 30 75 7 28 16 55 20 60 19 25 50 87 50 99 0 7 9 21 20 31 11 10 20 24 20 32 0 8 15 44 34 81 41 80 103 232 143 352 8 25 24 60 35 78 11 18 18 39 15 46 -3 7 0 19 6 25 6 6 14 32 18 58 4 27 14 81 23 121 9 40 19 94 21 121 3 26 14 74 25 107 12 32 23 85 25 116 2 32 6 62 9 67 3 5 13 35 21 68 l15 58 -4 -100 c-4 -98 -21 -215 -35 -245 -4 -8 -6 -31 -4 -50 3 -21 -4 -62 -16 -98 -12 -35 -19 -67 -16 -71 5 -10 -23 -100 -37 -118 -5 -7 -7 -17 -4 -22 4 -5 -19 -68 -49 -138 -31 -70 -74 -175 -96 -233 -50 -130 -88 -208 -140 -286 -14 -21 -34 -64 -43 -94 -20 -62 -81 -187 -131 -270 -18 -30 -45 -84 -60 -119 -15 -36 -43 -90 -63 -120 -21 -31 -46 -73 -56 -93 -10 -21 -39 -61 -64 -90 -25 -29 -56 -78 -69 -108 -14 -30 -34 -67 -45 -83 -13 -18 -28 -67 -38 -123 -16 -86 -20 -96 -64 -145 l-46 -51 5 -66 c7 -92 20 -102 75 -60 24 18 52 49 63 68 10 19 34 51 52 70 18 19 40 51 49 70 9 19 46 68 82 109 36 40 70 83 75 95 22 47 39 70 107 140 72 74 73 75 178 303 13 28 24 54 24 57 0 3 18 44 41 93 50 108 269 660 269 679 0 4 6 15 14 23 8 9 37 61 64 116 52 104 78 214 53 229 -13 9 -26 -21 -41 -94 -6 -30 -40 -113 -75 -185 -61 -123 -86 -182 -140 -337 -13 -36 -30 -81 -38 -100 -9 -18 -23 -55 -31 -81 -9 -26 -27 -69 -40 -95 -12 -26 -31 -69 -41 -97 -11 -27 -26 -61 -34 -74 -9 -13 -23 -45 -32 -70 -9 -25 -28 -64 -42 -85 -15 -21 -27 -45 -27 -53 0 -7 -4 -21 -9 -31 -5 -9 -15 -30 -22 -47 -20 -46 -90 -136 -137 -179 -23 -21 -42 -44 -42 -51 0 -6 -9 -20 -20 -30 -11 -10 -20 -22 -20 -28 0 -5 -30 -46 -67 -91 -70 -83 -93 -118 -93 -137 0 -5 -15 -25 -32 -43 -18 -18 -50 -54 -71 -79 -21 -26 -42 -47 -47 -47 -13 0 -18 73 -6 100 6 14 30 47 54 74 32 37 42 55 38 72 -12 45 78 264 135 329 30 35 149 236 199 337 27 54 58 111 69 127 12 16 21 33 21 38 0 4 10 24 22 43 27 42 64 128 84 193 8 27 31 65 50 86 19 22 34 49 34 63 0 13 4 28 9 34 19 19 52 87 82 167 16 45 34 90 40 99 5 10 9 22 9 28 0 6 16 43 36 83 59 120 125 337 141 467 13 105 46 290 57 320 8 22 12 65 10 115 -2 44 0 89 5 100 5 11 12 37 16 58 5 33 37 77 55 77 23 0 30 -64 29 -258 -1 -214 -9 -310 -33 -422 -8 -36 -18 -87 -21 -115 -4 -27 -16 -72 -27 -98 -15 -35 -18 -51 -10 -59 15 -15 61 90 72 167 5 33 21 123 34 200 21 118 25 172 26 341 l0 201 -30 42 c-26 35 -33 40 -49 31 -35 -18 -77 -68 -87 -102 -8 -26 -12 -1 -17 129 -7 162 -7 163 20 219 21 46 34 60 67 74 58 26 142 26 156 1z"/>
 <path d="M5380 1931 c-41 -4 -80 -9 -85 -13 -6 -3 -64 -16 -129 -27 -142 -26 -241 -69 -303 -133 -50 -52 -123 -164 -123 -189 0 -38 19 -27 43 23 34 74 108 170 143 187 16 7 38 18 49 24 11 6 47 17 80 24 33 8 78 19 100 24 22 6 92 17 155 25 63 8 124 20 135 26 16 9 25 5 57 -32 21 -23 38 -52 38 -64 0 -12 14 -35 30 -51 17 -16 30 -35 30 -42 0 -7 4 -21 9 -31 5 -9 14 -34 21 -55 6 -21 29 -65 51 -97 21 -33 39 -64 39 -71 0 -9 171 -198 252 -277 174 -170 341 -328 360 -340 13 -8 51 -48 86 -88 54 -63 62 -78 62 -113 0 -36 -6 -46 -52 -91 -36 -34 -61 -50 -79 -50 -15 0 -32 -7 -39 -15 -7 -8 -19 -15 -27 -15 -7 0 -35 -11 -61 -24 -67 -34 -403 -136 -447 -136 -12 0 -25 -4 -30 -9 -9 -8 -115 -18 -210 -20 -43 -1 -65 14 -108 73 -21 29 -56 71 -77 94 -22 23 -49 58 -61 79 -11 21 -60 89 -107 151 -82 106 -133 178 -149 212 -4 7 -23 41 -43 75 -34 58 -50 89 -69 138 -5 12 -29 68 -55 125 -25 56 -46 108 -46 115 0 7 -5 18 -11 24 -6 6 -19 35 -29 65 -9 29 -21 53 -26 53 -20 0 -14 -57 10 -102 14 -27 32 -65 41 -85 8 -21 22 -54 30 -73 9 -19 22 -52 29 -73 36 -102 165 -323 248 -423 21 -26 38 -50 38 -54 0 -4 15 -25 33 -48 19 -23 48 -68 66 -100 18 -31 47 -68 65 -82 18 -13 50 -50 72 -80 86 -123 68 -114 206 -114 111 -1 134 2 248 35 159 45 436 140 475 164 17 9 42 20 57 24 15 3 54 31 88 62 53 50 60 60 60 94 0 32 -10 51 -59 112 -32 40 -107 118 -166 173 -60 55 -138 129 -174 165 -37 36 -84 81 -106 100 -61 55 -258 280 -275 315 -8 18 -27 46 -42 64 -16 18 -28 41 -28 51 0 10 -4 22 -10 25 -5 3 -10 14 -10 24 0 24 -27 79 -57 114 -12 16 -23 37 -23 47 0 19 -90 121 -106 118 -5 0 -43 -4 -84 -7z"/>
 <path d="M5905 4593 c-66 -4 -72 -6 -113 -46 -49 -47 -102 -124 -123 -177 -7 -19 -30 -60 -50 -90 -64 -97 -99 -176 -99 -224 0 -73 73 -191 163 -263 39 -32 98 -83 132 -114 93 -87 110 -94 242 -92 l113 2 60 47 c37 29 82 79 116 128 31 45 66 95 79 113 37 53 58 130 56 213 -2 135 -12 152 -216 384 -101 115 -109 119 -207 121 -46 1 -114 0 -153 -2z m228 -44 c23 -12 197 -189 197 -201 0 -4 20 -30 44 -57 49 -55 61 -87 71 -178 9 -91 -21 -199 -70 -253 -29 -31 -95 -129 -95 -140 0 -14 -56 -56 -105 -80 -35 -17 -65 -22 -129 -23 -105 -1 -137 13 -237 107 -42 39 -91 82 -109 95 -18 14 -49 47 -68 74 -93 130 -96 175 -16 314 31 54 73 122 93 152 20 30 45 68 56 85 43 68 64 87 112 100 60 17 227 20 256 5z"/>
 <path d="M3950 4363 c-19 -9 -50 -17 -67 -18 -44 -3 -166 -67 -228 -120 -32 -27 -61 -64 -79 -101 -42 -85 -48 -99 -45 -110 1 -5 -4 -22 -11 -39 -19 -42 -26 -191 -10 -210 7 -9 27 -43 44 -78 68 -138 220 -290 296 -298 52 -5 70 4 139 70 39 37 71 76 71 86 0 27 42 75 208 242 83 84 152 159 152 167 0 8 8 34 19 58 18 42 18 44 -2 88 -11 25 -19 50 -19 56 1 5 -20 35 -46 65 -26 29 -58 68 -70 86 -32 46 -120 73 -231 72 -54 0 -99 -6 -121 -16z m248 -29 c40 -12 67 -28 91 -53 58 -63 116 -145 113 -163 -2 -9 2 -19 8 -23 29 -18 -14 -156 -61 -193 -16 -13 -26 -28 -23 -34 4 -6 3 -8 -3 -5 -10 6 -212 -194 -255 -253 -14 -19 -33 -52 -43 -73 -20 -42 -86 -102 -132 -117 -58 -21 -176 55 -230 147 -14 24 -30 46 -37 51 -7 4 -32 46 -55 94 -42 85 -43 88 -37 160 10 113 12 121 29 155 10 18 17 39 17 47 0 26 57 110 91 135 53 40 146 89 181 96 18 4 42 12 53 18 11 6 30 10 42 8 11 -1 24 3 28 8 10 17 160 13 223 -5z"/>
 <path d="M5065 3890 c-15 -16 -17 -32 -13 -102 6 -94 31 -159 84 -222 19 -22 34 -48 34 -58 0 -10 17 -37 39 -61 43 -46 103 -143 143 -227 14 -30 53 -86 87 -125 33 -38 72 -86 85 -105 14 -19 78 -89 143 -155 107 -109 124 -123 183 -144 36 -12 80 -25 98 -28 18 -3 35 -9 38 -14 13 -22 53 -8 74 26 18 29 20 40 11 72 -6 21 -11 73 -11 116 0 43 -5 88 -11 99 -7 12 -18 49 -25 82 -39 172 -141 348 -239 413 -22 14 -53 35 -68 45 -22 15 -31 17 -43 8 -29 -25 -11 -94 45 -173 37 -52 63 -128 59 -170 -3 -28 -6 -32 -28 -29 -14 2 -29 10 -35 19 -5 8 -20 29 -32 47 -12 17 -35 58 -51 91 -21 43 -66 98 -156 192 -81 85 -126 140 -126 154 0 11 11 34 25 51 21 25 23 33 13 51 -17 33 -115 127 -131 127 -8 0 -34 9 -58 20 -57 26 -111 26 -134 0z m127 -31 c74 -23 129 -62 153 -109 13 -25 12 -29 -5 -45 -14 -12 -20 -31 -20 -59 0 -36 6 -46 53 -91 29 -27 61 -62 70 -77 9 -15 31 -35 47 -43 17 -9 30 -21 30 -29 0 -7 12 -23 26 -37 14 -13 38 -51 54 -85 17 -34 37 -67 45 -74 8 -7 15 -23 15 -36 0 -24 46 -64 73 -64 9 0 18 -4 21 -9 4 -5 20 -3 37 6 29 15 31 18 25 57 -9 58 -35 124 -68 174 -15 24 -28 52 -28 62 0 10 -4 22 -10 25 -5 3 -10 12 -10 20 0 11 7 11 45 -2 104 -35 213 -229 260 -460 4 -18 11 -35 16 -38 12 -8 12 -265 -1 -265 -19 0 -115 23 -125 30 -5 3 -35 17 -66 29 -45 18 -75 42 -150 119 -52 53 -114 122 -139 152 -24 30 -64 77 -88 104 -23 27 -68 98 -98 157 -30 60 -74 130 -98 156 -23 26 -50 67 -60 90 -10 23 -27 50 -38 60 -29 26 -58 99 -64 162 -3 31 -7 68 -9 83 -4 24 15 58 32 58 3 0 36 -10 75 -21z"/>
 <path d="M4577 3819 c-26 -22 -68 -52 -93 -65 -26 -14 -79 -51 -118 -82 -39 -32 -87 -69 -106 -84 -77 -57 -116 -107 -170 -212 -41 -81 -66 -118 -100 -146 -57 -47 -112 -141 -146 -245 -14 -44 -30 -85 -36 -92 -5 -7 -9 -34 -7 -60 1 -26 -4 -61 -10 -78 -20 -49 -41 -137 -41 -170 0 -42 31 -89 69 -105 44 -18 100 0 149 48 82 83 246 283 284 348 23 38 60 92 82 119 42 50 70 92 122 175 15 25 36 51 46 58 24 17 108 187 108 218 0 36 -36 67 -68 60 -30 -7 -89 -67 -142 -145 -19 -28 -56 -67 -82 -86 -67 -51 -166 -197 -167 -246 -1 -40 -30 -89 -52 -89 -24 0 -24 11 1 60 11 22 20 44 20 50 0 6 14 31 30 55 17 24 30 48 30 54 0 28 55 101 151 198 57 60 119 129 137 154 17 26 38 49 47 52 8 4 15 12 15 20 0 16 51 64 112 105 42 29 88 85 88 109 0 6 -11 22 -25 37 -35 38 -70 34 -128 -15z m107 -11 c15 -25 -10 -65 -70 -108 -66 -48 -114 -98 -169 -175 -15 -22 -55 -67 -89 -100 -105 -105 -168 -181 -206 -252 -20 -37 -41 -77 -47 -88 -21 -37 -53 -115 -53 -127 0 -18 31 -48 51 -48 26 0 77 65 84 107 15 86 34 116 170 256 44 45 93 103 109 129 29 46 74 76 95 63 16 -9 13 -71 -3 -84 -7 -6 -21 -33 -31 -59 -10 -26 -32 -63 -50 -82 -17 -19 -51 -66 -75 -105 -24 -38 -56 -85 -72 -104 -29 -33 -148 -208 -148 -217 0 -3 -35 -44 -78 -92 -42 -48 -90 -104 -106 -125 -33 -43 -64 -62 -119 -72 -61 -12 -77 10 -77 106 0 46 5 81 11 85 6 3 9 20 7 36 -3 16 -1 31 4 34 4 3 8 23 8 45 0 21 4 47 9 57 14 27 38 83 54 127 37 100 53 127 112 188 45 47 79 97 121 177 51 97 65 117 123 163 104 84 223 171 261 193 19 10 55 36 79 57 47 40 76 44 95 15z"/>
 <path d="M1310 3763 c-18 -23 -20 -36 -16 -97 11 -156 20 -201 37 -190 7 4 10 35 9 83 -5 164 -2 201 19 201 26 0 32 -32 36 -195 4 -161 21 -385 34 -465 18 -105 23 -125 46 -200 111 -353 175 -528 190 -520 6 3 9 12 9 20 -1 12 -38 116 -84 235 -14 35 -28 78 -45 140 -9 33 -25 89 -37 125 -11 36 -25 83 -30 105 -16 68 -39 340 -46 551 -8 222 -11 234 -67 234 -24 0 -39 -7 -55 -27z"/>
 <path d="M4831 3735 c-39 -39 -82 -163 -89 -257 -3 -50 0 -64 27 -111 45 -80 91 -194 105 -264 14 -70 36 -109 72 -125 37 -17 74 21 74 76 0 23 9 57 19 76 63 113 74 145 79 229 4 65 1 87 -9 95 -8 6 -24 31 -37 56 -89 172 -152 260 -186 260 -12 0 -36 -16 -55 -35z m96 -37 c17 -18 42 -55 55 -83 13 -27 29 -59 35 -70 6 -11 19 -37 29 -59 11 -21 25 -40 32 -43 32 -13 -8 -212 -50 -241 -10 -8 -18 -25 -18 -42 0 -16 -4 -32 -10 -35 -5 -3 -10 -26 -10 -51 0 -49 -15 -63 -48 -45 -13 7 -23 26 -27 53 -4 24 -18 67 -31 97 -13 29 -24 60 -24 68 0 8 -20 49 -45 92 -54 94 -56 126 -16 255 27 85 59 136 85 136 7 0 26 -15 43 -32z"/>
 <path d="M8647 3692 c-9 -10 -22 -34 -28 -53 -6 -19 -28 -81 -49 -139 -21 -58 -54 -156 -74 -217 -39 -126 -132 -322 -201 -428 -26 -38 -78 -124 -117 -190 -73 -123 -174 -250 -237 -297 -40 -29 -69 -65 -96 -118 -10 -19 -37 -57 -60 -85 -23 -27 -55 -68 -71 -91 -16 -23 -42 -58 -58 -78 -25 -32 -27 -40 -18 -61 17 -37 59 -33 100 9 18 19 63 58 99 88 84 69 403 386 403 401 0 6 13 25 29 42 16 16 41 50 55 75 27 47 136 266 136 274 0 2 18 35 40 74 22 38 40 73 40 79 0 5 22 48 50 94 27 46 50 92 50 101 0 10 10 34 22 55 11 21 24 54 29 73 4 19 19 80 33 135 31 120 32 173 6 224 -26 53 -55 64 -83 33z m62 -148 c-3 -49 -16 -118 -28 -153 -11 -35 -21 -75 -21 -87 0 -13 -11 -44 -25 -70 -14 -26 -25 -54 -25 -63 0 -9 -6 -25 -14 -36 -28 -40 -146 -268 -192 -370 -10 -22 -31 -62 -47 -90 -17 -27 -41 -70 -55 -95 -14 -25 -37 -61 -51 -80 -15 -19 -35 -47 -44 -62 -18 -28 -269 -283 -323 -327 -17 -14 -70 -59 -118 -99 -108 -92 -141 -84 -58 14 91 108 145 179 172 224 16 27 72 93 125 146 85 85 195 228 195 252 0 5 38 68 85 141 113 173 195 340 235 476 20 66 137 392 147 408 4 6 15 0 27 -14 20 -23 21 -33 15 -115z"/>
 <path d="M6037 3412 c-15 -16 -27 -38 -27 -50 0 -26 49 -162 85 -238 14 -28 25 -58 25 -65 0 -8 4 -19 9 -25 5 -5 11 -22 13 -37 4 -32 21 -41 26 -13 5 25 -15 87 -50 155 -15 29 -28 64 -28 76 0 13 -4 27 -10 30 -5 3 -10 19 -10 35 0 16 -4 32 -10 35 -16 10 -12 77 6 96 26 29 -1 30 -29 1z"/>
 <path d="M1324 3396 c-4 -9 -3 -31 1 -49 3 -17 10 -68 15 -112 7 -76 15 -109 55 -250 10 -33 20 -76 22 -95 3 -19 9 -39 13 -45 4 -5 10 -28 13 -51 4 -22 18 -75 32 -118 14 -42 25 -85 25 -96 0 -10 5 -22 10 -25 6 -3 10 -18 10 -33 0 -25 22 -92 79 -242 12 -30 21 -60 21 -67 0 -18 50 -122 82 -169 15 -23 28 -44 28 -47 0 -7 156 -259 179 -289 12 -14 21 -32 21 -40 0 -7 9 -24 20 -38 11 -14 20 -28 20 -33 0 -4 18 -37 40 -73 22 -36 40 -70 40 -74 0 -4 24 -34 53 -66 28 -33 85 -99 126 -147 70 -84 76 -88 110 -85 31 3 36 7 39 32 3 23 -6 39 -50 85 -112 115 -186 222 -232 331 -47 111 -65 145 -108 196 -22 27 -51 72 -63 99 -13 28 -30 57 -39 64 -8 7 -22 25 -29 40 -8 14 -37 70 -66 123 -28 53 -51 103 -51 111 0 7 -14 39 -31 71 -21 39 -35 54 -42 47 -7 -7 -1 -28 17 -66 14 -30 26 -58 26 -61 0 -18 119 -241 143 -267 15 -17 30 -43 34 -57 7 -29 33 -69 84 -128 20 -23 47 -68 60 -100 37 -93 85 -185 123 -235 20 -26 36 -51 36 -55 0 -4 36 -45 80 -91 80 -85 95 -111 62 -111 -33 0 -266 294 -311 392 -11 26 -26 50 -31 53 -6 4 -20 23 -31 43 -47 85 -142 240 -191 313 -21 31 -38 61 -38 67 0 5 -18 41 -40 78 -22 38 -40 76 -40 84 0 8 -9 40 -20 70 -26 68 -75 221 -89 275 -5 22 -17 65 -26 95 -8 30 -19 71 -24 90 -33 125 -66 245 -81 296 -6 17 -10 42 -10 57 0 14 -5 38 -11 54 -6 15 -15 62 -20 103 -15 119 -21 150 -30 156 -5 3 -12 -2 -15 -10z"/>
 <path d="M4631 3260 c-33 -7 -60 -47 -67 -95 -8 -54 -49 -142 -86 -184 -16 -19 -38 -53 -48 -75 -9 -23 -38 -64 -64 -91 -63 -67 -136 -162 -136 -178 0 -16 -132 -147 -148 -147 -7 0 -50 -39 -95 -86 -50 -53 -99 -94 -127 -107 -25 -11 -59 -32 -76 -47 -44 -38 -164 -94 -176 -82 -6 6 -4 91 6 243 16 244 28 342 44 362 5 7 22 48 37 92 15 44 43 117 63 162 19 45 32 89 28 98 -9 25 -22 10 -41 -47 -9 -29 -22 -60 -29 -68 -13 -15 -38 -80 -61 -162 -7 -25 -18 -55 -23 -65 -23 -43 -43 -192 -54 -390 -12 -228 -8 -263 32 -263 26 0 126 50 188 94 26 19 66 43 89 55 23 11 72 54 109 96 38 41 76 75 85 75 9 0 29 16 43 35 15 19 33 35 41 35 14 0 95 101 95 118 0 4 14 21 30 37 17 16 30 33 30 38 0 5 25 36 55 69 30 34 64 80 75 102 11 23 34 59 50 81 16 22 37 56 46 75 10 19 27 47 37 62 11 14 19 39 19 55 0 15 9 38 21 51 55 59 128 -9 156 -143 7 -33 15 -75 19 -93 11 -53 27 -37 27 26 -1 78 -39 175 -89 223 -40 39 -66 49 -105 39z"/>
 <path d="M5190 3162 c-27 -27 -49 -97 -55 -177 -2 -16 -6 -38 -10 -48 -12 -28 0 -269 15 -302 7 -16 12 -36 11 -44 -7 -41 12 -103 42 -135 36 -38 57 -70 57 -86 0 -6 -15 -19 -32 -30 -26 -16 -51 -20 -119 -20 -87 0 -113 -8 -211 -60 -20 -11 -41 -20 -46 -20 -17 0 -21 42 -8 69 31 60 41 291 19 426 -7 44 -14 98 -15 120 -5 73 -23 33 -20 -45 7 -188 4 -399 -6 -445 -25 -112 -25 -115 -7 -135 25 -28 39 -25 124 17 69 36 81 38 187 43 102 5 115 7 138 29 37 35 33 66 -19 129 -30 36 -45 64 -45 82 0 16 -5 41 -11 57 -15 38 -17 55 -26 220 -6 109 -5 147 5 160 6 9 12 31 12 47 0 47 24 117 44 128 25 14 40 5 77 -49 38 -58 154 -183 345 -376 152 -153 203 -197 227 -197 9 0 19 -4 22 -10 3 -5 18 -10 32 -10 13 0 37 -8 51 -17 54 -36 68 -44 110 -63 54 -25 94 -25 115 -2 25 28 37 130 26 229 -13 128 -43 278 -54 275 -13 -3 -11 -93 3 -152 15 -62 26 -250 18 -294 -10 -51 -44 -58 -111 -22 -85 47 -138 72 -180 86 -22 7 -55 26 -73 41 -18 16 -45 35 -60 43 -30 15 -142 129 -142 144 0 5 -18 21 -40 36 -22 14 -46 41 -54 60 -8 18 -30 46 -50 61 -20 15 -36 33 -36 39 0 6 -27 35 -60 64 -33 29 -60 61 -60 71 0 19 -72 91 -91 91 -6 0 -23 -13 -39 -28z"/>
 <path d="M4975 2654 c-14 -15 -25 -32 -26 -38 -2 -46 -11 -106 -19 -130 -16 -48 -12 -101 10 -121 38 -34 129 -3 160 56 6 10 3 37 -5 70 -8 30 -15 65 -15 80 0 26 -54 109 -71 109 -6 0 -21 -12 -34 -26z m58 -56 c9 -18 21 -64 28 -101 11 -63 10 -69 -7 -83 -58 -45 -110 -36 -101 19 5 33 24 136 32 175 8 32 29 27 48 -10z"/>
 </g>
<g id="layer2" fill="#d32750" stroke="none">
 <path d="M4725 6540 c-10 -11 -21 -20 -25 -20 -21 0 -212 -115 -222 -133 -6 -12 -33 -47 -60 -76 -26 -30 -48 -59 -48 -63 0 -5 -9 -21 -20 -36 -21 -29 -50 -114 -50 -149 0 -12 -11 -57 -25 -99 -26 -79 -32 -151 -16 -182 5 -9 22 -50 38 -91 24 -63 38 -82 99 -139 80 -73 115 -87 249 -97 44 -3 97 -11 117 -17 32 -9 48 -7 105 12 70 23 122 36 208 49 66 10 130 44 174 93 20 22 53 51 73 64 41 26 81 82 105 148 25 67 20 242 -10 342 -25 86 -86 179 -148 226 -16 13 -47 37 -67 53 -47 38 -86 56 -192 88 -77 24 -199 47 -248 47 -10 0 -27 -9 -37 -20z"/>
 <path d="M5809 5777 c-19 -13 -54 -31 -79 -41 -52 -20 -145 -107 -165 -153 -8 -20 -15 -83 -17 -170 -3 -127 -1 -142 20 -182 12 -25 22 -49 22 -54 0 -10 24 -67 47 -112 9 -16 28 -43 42 -58 32 -36 185 -137 205 -137 8 0 30 -6 48 -14 18 -7 58 -21 88 -31 30 -10 66 -26 79 -36 28 -22 94 -25 129 -5 41 22 141 147 148 183 3 18 10 36 15 39 5 3 9 16 9 30 0 13 5 33 12 43 9 15 9 44 0 126 -10 93 -17 118 -57 198 -35 72 -61 109 -122 172 -88 90 -189 175 -208 175 -7 0 -33 11 -56 25 -57 32 -115 33 -160 2z"/>
 <path d="M3795 5570 c-119 -14 -184 -28 -213 -47 -15 -10 -40 -25 -55 -33 -32 -16 -136 -131 -154 -170 -18 -40 -46 -135 -83 -282 -7 -26 -9 -64 -6 -85 4 -21 10 -67 14 -103 4 -38 18 -88 34 -120 37 -75 122 -162 173 -177 79 -23 140 -26 198 -9 30 9 71 16 90 16 45 0 111 24 150 54 18 14 54 42 81 63 83 65 195 186 202 218 3 17 12 39 19 51 36 57 36 243 0 350 -21 63 -123 204 -148 204 -6 0 -18 6 -26 14 -63 56 -142 72 -276 56z"/>
 <path d="M4845 5364 c-125 -25 -124 -25 -161 -70 -20 -24 -53 -54 -73 -66 -93 -57 -244 -250 -256 -327 -3 -20 -12 -49 -20 -66 -23 -48 -23 -269 0 -320 69 -152 83 -174 152 -247 40 -42 73 -81 73 -86 0 -6 17 -20 37 -32 36 -21 47 -22 311 -21 301 1 302 1 437 67 90 44 199 151 237 234 39 85 49 198 28 320 -6 36 -16 101 -22 145 -9 64 -17 89 -44 128 -19 26 -34 51 -34 55 0 13 -177 204 -208 224 -15 10 -40 18 -55 18 -16 0 -37 5 -48 10 -10 6 -72 12 -136 15 -65 2 -134 9 -153 14 -19 6 -37 10 -40 10 -3 -1 -14 -3 -25 -5z"/>
 <path d="M5875 4564 c-51 -14 -82 -42 -130 -119 -11 -18 -36 -56 -56 -86 -20 -30 -62 -98 -93 -152 -79 -138 -77 -185 16 -314 19 -26 54 -64 77 -83 23 -19 77 -67 119 -106 101 -94 133 -108 238 -107 65 1 94 6 131 24 47 23 123 84 123 99 0 11 67 110 95 140 50 55 78 160 69 258 -11 112 -10 110 -196 321 -121 137 -129 141 -248 140 -52 -1 -117 -8 -145 -15z"/>
 <path d="M3976 4361 c-3 -5 -20 -11 -38 -14 -145 -23 -314 -130 -359 -227 -40 -87 -58 -158 -66 -253 -5 -65 -4 -71 41 -162 26 -52 52 -98 59 -102 7 -5 23 -24 35 -44 32 -53 112 -123 167 -148 39 -17 54 -19 79 -11 44 14 130 92 151 137 33 69 92 139 224 264 113 108 132 130 150 180 23 61 27 104 11 114 -5 3 -10 15 -10 26 0 23 -56 102 -121 170 -34 36 -57 50 -101 63 -60 17 -213 22 -222 7z"/>
 </g>
<g id="layer3" fill="#040404" stroke="none">
 <path d="M7290 8637 c-41 -19 -100 -49 -130 -68 -72 -44 -120 -68 -259 -129 -62 -27 -137 -68 -167 -90 -29 -22 -57 -40 -62 -40 -5 0 -17 -9 -27 -20 -10 -11 -22 -20 -27 -20 -5 0 -39 -24 -76 -53 -37 -30 -99 -75 -138 -101 -39 -25 -98 -75 -130 -109 -36 -37 -86 -76 -124 -96 -93 -49 -205 -125 -280 -190 -36 -32 -94 -78 -130 -104 -36 -26 -90 -67 -120 -91 -30 -24 -93 -69 -140 -101 -47 -32 -105 -75 -130 -96 -53 -44 -114 -79 -137 -79 -9 0 -36 -12 -61 -26 -73 -43 -98 -47 -352 -55 -135 -4 -272 -12 -305 -17 -33 -4 -109 -16 -170 -26 -114 -18 -201 -31 -320 -48 -38 -5 -91 -19 -116 -29 -25 -11 -70 -26 -100 -33 -30 -8 -99 -30 -154 -51 -181 -68 -183 -68 -218 -58 -32 9 -32 10 -31 68 2 74 20 158 47 215 22 46 25 124 6 144 -10 11 -68 -13 -148 -61 -68 -41 -114 -43 -137 -8 -24 37 -9 101 49 210 53 99 59 117 48 141 -6 14 -19 24 -31 24 -28 0 -100 -30 -135 -56 -17 -12 -59 -28 -95 -34 -68 -12 -109 -37 -167 -98 -23 -25 -36 -32 -52 -27 -31 10 -36 43 -12 76 16 21 21 43 21 90 0 73 14 125 52 196 36 65 35 79 -4 103 -55 33 -124 20 -190 -35 -16 -14 -36 -25 -43 -25 -8 0 -36 -29 -62 -65 l-48 -65 -65 0 c-65 0 -66 0 -111 -47 -25 -27 -51 -61 -58 -78 -7 -16 -18 -39 -24 -50 -73 -136 -106 -254 -118 -427 -7 -107 -7 -161 1 -200 6 -29 15 -102 19 -163 4 -60 13 -123 19 -138 7 -16 12 -52 12 -81 l0 -52 -67 -47 c-38 -26 -115 -92 -173 -148 -58 -55 -126 -118 -152 -140 -26 -22 -69 -72 -95 -110 -26 -38 -64 -93 -84 -122 -22 -32 -50 -96 -72 -167 -21 -64 -46 -134 -58 -155 -11 -22 -42 -95 -70 -162 -45 -110 -49 -128 -49 -202 0 -44 7 -104 15 -133 29 -104 54 -204 65 -263 7 -33 30 -105 51 -161 54 -138 77 -222 94 -341 14 -97 34 -161 91 -294 13 -31 24 -60 24 -64 0 -17 95 -224 126 -276 19 -31 34 -64 34 -72 0 -33 160 -278 228 -349 34 -36 39 -38 98 -38 56 0 66 3 92 29 32 33 86 137 97 190 12 55 -25 267 -70 406 -94 290 -110 348 -131 495 -29 200 -29 242 0 304 14 30 26 59 26 64 0 38 184 124 328 152 59 12 154 7 179 -8 14 -9 20 -103 10 -147 -4 -16 -3 -45 2 -63 10 -35 -3 -117 -34 -203 -13 -38 -15 -79 -12 -240 4 -192 13 -275 34 -314 6 -11 13 -65 16 -119 4 -55 11 -104 17 -110 5 -5 10 -20 10 -32 0 -13 5 -26 10 -29 6 -3 10 -16 10 -28 0 -23 23 -94 40 -125 5 -9 14 -46 19 -82 6 -36 13 -81 16 -100 22 -119 124 -220 224 -220 45 0 53 4 95 45 25 24 46 53 46 64 0 11 5 23 10 26 6 3 10 19 10 35 0 16 4 31 9 34 19 12 20 120 0 203 -33 142 -21 396 23 472 49 87 88 37 128 -164 7 -33 21 -78 31 -99 11 -22 19 -43 19 -47 0 -15 72 -126 100 -154 16 -16 44 -50 62 -74 18 -24 40 -48 48 -52 35 -18 110 -49 118 -49 5 0 17 -9 28 -21 15 -16 16 -24 6 -39 -7 -11 -12 -42 -12 -70 0 -32 -9 -70 -26 -107 -14 -32 -42 -103 -61 -158 -20 -55 -40 -105 -45 -112 -16 -20 -28 -117 -44 -353 -15 -229 -14 -267 10 -276 18 -7 140 52 180 86 17 15 51 36 76 47 27 13 79 56 129 107 46 47 89 86 95 86 14 0 166 148 166 162 0 17 63 102 122 165 32 33 67 81 77 106 10 24 32 59 49 78 36 41 82 134 82 166 0 44 27 93 52 94 48 3 64 -3 94 -34 51 -53 75 -126 85 -267 5 -69 15 -161 22 -205 22 -136 12 -366 -19 -427 -15 -28 -6 -69 16 -83 10 -6 92 28 162 66 10 5 55 9 102 9 94 0 145 16 164 52 16 29 3 59 -45 107 -24 23 -33 44 -38 79 -3 26 -12 77 -20 113 -27 120 -14 339 26 467 11 34 42 57 62 46 27 -16 57 -48 57 -63 0 -9 48 -65 105 -124 58 -60 105 -113 105 -119 0 -17 223 -238 267 -264 24 -13 47 -32 52 -42 5 -9 31 -23 58 -30 47 -14 87 -32 190 -88 43 -24 56 -27 79 -19 49 17 56 45 49 185 -3 69 -10 145 -16 170 -6 25 -15 92 -19 149 -5 57 -14 109 -20 115 -5 5 -10 17 -10 25 0 7 -11 37 -25 65 -37 78 -85 212 -85 239 0 28 28 57 55 57 10 0 48 14 84 31 36 18 77 36 91 42 93 37 134 68 225 169 108 120 135 162 135 210 0 16 5 39 11 50 6 11 11 68 11 127 0 89 -4 117 -26 177 -14 39 -26 78 -26 85 0 35 -64 141 -129 214 -65 73 -71 84 -71 123 0 57 11 76 82 144 87 84 102 82 209 -28 46 -47 100 -95 119 -106 19 -12 52 -36 72 -54 36 -32 91 -54 135 -54 43 0 111 38 129 71 21 42 21 292 -1 377 -8 31 -15 74 -15 96 0 51 -57 242 -101 341 -10 22 -34 83 -54 135 -20 52 -44 108 -54 125 -23 38 -43 118 -35 139 3 9 14 16 23 16 9 0 32 13 51 30 19 16 38 29 42 30 4 0 30 17 58 38 50 38 160 186 160 215 0 8 9 22 20 32 11 10 20 23 20 30 0 36 149 132 179 115 9 -4 63 -54 121 -110 91 -88 119 -108 214 -156 59 -30 114 -54 122 -54 8 0 38 -12 67 -26 53 -27 67 -34 151 -78 27 -14 54 -26 60 -26 7 0 32 -21 56 -46 25 -25 96 -85 159 -132 100 -76 121 -98 174 -177 33 -49 75 -118 93 -152 19 -34 54 -90 78 -125 24 -35 53 -81 64 -103 11 -22 54 -74 95 -116 70 -71 80 -77 193 -122 65 -26 126 -47 135 -47 33 0 41 25 36 127 -4 93 -18 161 -76 358 -12 38 -21 95 -21 126 0 71 -13 139 -40 213 -17 44 -40 75 -96 132 -41 41 -74 79 -74 85 0 5 -11 27 -25 49 -14 22 -25 44 -25 50 0 6 -11 26 -25 44 -14 18 -25 37 -25 43 0 26 -36 75 -97 135 -56 53 -91 76 -195 126 -69 34 -129 66 -133 72 -4 6 -37 26 -73 46 -85 45 -247 161 -333 239 -51 46 -62 75 -49 126 21 75 102 100 253 78 51 -7 146 -13 212 -14 l120 -2 145 -57 c176 -70 307 -133 400 -194 38 -25 71 -42 83 -42 5 0 29 -18 53 -40 24 -22 49 -40 55 -40 7 0 61 -48 121 -106 119 -116 175 -149 317 -184 83 -22 127 -25 135 -11 4 5 -7 37 -24 72 -16 34 -34 88 -41 118 -14 73 -35 136 -64 191 -12 25 -31 63 -40 84 -10 22 -47 69 -84 106 -60 60 -81 86 -148 186 -13 18 -49 51 -82 73 -38 26 -70 58 -90 91 -30 48 -117 139 -134 140 -4 0 -35 18 -68 40 -33 22 -64 40 -67 40 -4 0 -23 13 -42 28 -41 33 -197 131 -257 161 -89 45 -191 74 -313 91 -46 6 -112 19 -145 27 -75 19 -188 13 -300 -17 -52 -14 -137 -25 -245 -31 -184 -12 -244 -27 -326 -85 -62 -44 -126 -62 -241 -68 -76 -4 -102 -10 -150 -34 -32 -17 -94 -40 -137 -52 -44 -12 -140 -44 -215 -71 -120 -43 -139 -48 -164 -38 -16 7 -40 12 -54 13 -15 1 -28 6 -30 13 -5 14 240 284 393 433 118 114 228 201 272 214 12 4 34 18 50 31 33 27 79 55 150 90 28 15 52 30 52 34 0 5 28 28 63 52 64 44 247 225 247 244 0 6 16 27 35 45 33 32 36 39 33 85 -2 40 -7 52 -25 61 -13 6 -31 18 -40 26 -27 23 -99 41 -183 45 -68 3 -82 0 -150 -30z m18 -200 c18 -22 24 -90 10 -116 -7 -13 -33 -35 -58 -48 -25 -14 -54 -33 -65 -42 -11 -10 -37 -25 -57 -35 -21 -9 -58 -33 -82 -54 -24 -20 -63 -52 -85 -70 -23 -18 -41 -40 -41 -48 0 -8 -4 -14 -8 -14 -4 0 -33 -22 -63 -49 -29 -26 -67 -55 -84 -64 -16 -8 -57 -42 -91 -75 -59 -57 -160 -139 -216 -174 -15 -10 -29 -31 -33 -48 -9 -40 -50 -87 -150 -169 -91 -76 -133 -103 -226 -149 -37 -18 -85 -53 -112 -81 -27 -28 -60 -52 -77 -56 -16 -3 -34 -13 -41 -21 -6 -8 -21 -14 -33 -14 -12 0 -49 -22 -82 -48 -32 -26 -76 -58 -96 -70 -83 -52 -116 -128 -53 -126 17 1 65 3 108 5 44 2 81 7 84 11 2 5 13 8 25 8 26 0 78 37 78 55 0 24 61 85 110 110 94 48 151 58 265 47 129 -13 143 -10 295 61 41 19 91 40 110 47 46 16 75 29 195 85 98 46 148 60 251 72 48 5 52 4 73 -25 11 -17 21 -43 21 -60 0 -34 24 -68 81 -113 36 -29 43 -30 64 -19 20 11 27 11 40 0 8 -7 15 -17 15 -22 0 -17 96 -133 178 -215 46 -47 82 -92 82 -103 0 -35 -45 -105 -120 -183 -41 -43 -79 -85 -83 -93 -12 -22 -86 -68 -167 -104 -41 -19 -106 -60 -145 -91 -38 -31 -92 -66 -119 -78 -41 -18 -47 -23 -36 -36 14 -17 8 -21 -58 -28 -27 -3 -52 -14 -66 -29 -58 -58 -104 -86 -151 -94 -27 -4 -63 -15 -80 -25 -29 -18 -32 -18 -65 -1 -18 9 -43 29 -53 44 -18 24 -19 32 -9 67 15 47 43 66 162 105 106 35 114 39 141 77 18 25 20 35 10 55 -13 29 -34 30 -81 5 -19 -10 -67 -30 -107 -44 -86 -31 -88 -31 -212 72 -87 73 -123 90 -147 70 -20 -17 -17 -32 11 -59 14 -13 25 -29 25 -37 0 -7 34 -38 75 -69 81 -61 85 -71 58 -129 -23 -49 -50 -46 -115 14 -29 27 -69 56 -88 64 -55 23 -170 109 -261 194 -142 133 -232 183 -330 183 -38 0 -51 -4 -63 -22 -24 -34 -19 -73 14 -121 41 -58 34 -81 -24 -72 -64 10 -75 15 -81 35 -7 23 -106 96 -180 133 -27 14 -75 41 -105 61 -30 20 -86 48 -125 62 -38 14 -78 29 -87 35 -30 15 -149 10 -213 -10 -33 -10 -79 -24 -103 -30 -23 -7 -57 -25 -75 -40 -17 -16 -48 -33 -67 -39 -19 -7 -65 -21 -102 -33 -48 -15 -82 -35 -121 -70 -31 -27 -57 -49 -60 -49 -3 0 -34 -16 -69 -36 -109 -62 -152 -74 -268 -75 -91 0 -195 -11 -320 -34 -19 -4 -60 -18 -90 -32 -203 -95 -213 -97 -256 -77 -31 15 -35 15 -68 -5 -56 -35 -58 -41 -66 -199 -6 -133 -11 -160 -49 -287 -49 -161 -100 -277 -140 -320 -15 -16 -38 -46 -50 -67 -12 -20 -28 -39 -36 -42 -8 -3 -36 -38 -61 -78 -26 -40 -69 -98 -96 -128 -27 -30 -61 -67 -74 -82 -14 -16 -37 -31 -52 -35 -15 -3 -43 -17 -62 -30 -19 -12 -39 -23 -43 -23 -5 0 -59 -22 -121 -49 -61 -27 -137 -57 -169 -66 -67 -21 -88 -44 -132 -145 -41 -96 -45 -185 -12 -281 14 -43 28 -112 32 -164 5 -64 14 -103 31 -137 13 -26 24 -58 24 -70 0 -13 6 -32 13 -43 22 -32 45 -105 63 -190 9 -44 20 -102 26 -129 12 -60 6 -76 -27 -76 -41 0 -111 65 -136 127 -12 30 -29 59 -38 66 -17 12 -81 111 -81 125 0 4 -11 23 -24 43 -34 50 -142 302 -182 426 -19 58 -45 127 -58 154 -14 26 -39 92 -56 146 l-32 98 5 190 c3 120 9 201 17 220 7 18 12 67 11 121 -2 82 2 103 38 210 79 236 91 262 160 338 26 29 65 79 87 112 66 99 154 185 240 233 44 24 104 61 136 82 65 44 103 60 208 88 41 11 90 24 108 30 42 13 172 84 247 136 76 53 289 123 440 146 243 35 282 44 420 87 61 19 272 91 300 103 23 9 58 15 170 29 44 6 108 15 141 20 34 6 167 12 295 15 205 5 300 13 374 31 11 3 47 9 80 14 101 14 169 36 250 79 93 50 302 191 335 226 13 14 29 25 35 25 6 0 40 30 75 67 122 125 195 193 254 236 33 23 76 57 96 75 21 17 41 32 45 32 10 0 138 112 218 192 37 37 70 68 73 68 3 0 33 18 66 41 34 22 82 51 107 64 25 13 88 50 139 84 51 34 96 61 100 61 5 0 21 14 38 31 28 30 96 69 119 69 6 0 30 9 53 20 22 11 47 20 54 20 7 0 42 16 78 35 68 36 120 44 138 22z m837 -863 c50 -8 128 -20 175 -25 104 -12 270 -62 360 -110 38 -20 228 -130 251 -146 15 -10 77 -63 139 -118 103 -91 203 -208 239 -277 8 -15 30 -38 50 -51 20 -13 59 -57 86 -98 57 -84 152 -205 185 -234 34 -31 41 -51 28 -79 -8 -19 -19 -26 -39 -26 -42 0 -119 41 -174 94 -27 26 -84 67 -125 91 -41 24 -102 67 -135 95 -33 28 -78 61 -100 72 -22 11 -57 36 -77 54 -21 18 -50 36 -65 40 -82 17 -225 102 -240 142 -5 12 -47 35 -235 128 -27 13 -56 24 -65 24 -10 0 -36 14 -57 30 -47 36 -63 37 -136 9 -48 -18 -79 -21 -240 -22 -177 -1 -188 0 -250 24 -111 45 -153 63 -205 89 l-50 25 -3 55 -2 55 48 33 c27 17 60 32 73 32 14 0 29 4 35 10 5 5 43 12 84 16 42 4 92 15 115 27 58 29 154 56 200 56 22 0 81 -7 130 -15z m-5584 -15 c18 -9 20 -20 19 -112 -1 -56 3 -140 9 -187 6 -47 11 -108 11 -136 0 -28 3 -53 6 -57 9 -9 55 17 79 43 23 26 116 87 153 101 41 16 55 -5 47 -70 -8 -71 2 -96 65 -165 36 -41 50 -64 50 -86 0 -26 -4 -30 -37 -36 -21 -4 -58 -15 -83 -24 -25 -10 -73 -21 -105 -25 -73 -8 -103 -17 -220 -70 -33 -15 -67 -33 -77 -42 -9 -8 -46 -17 -90 -20 -69 -5 -75 -4 -105 21 -53 44 -73 100 -73 198 0 135 29 141 133 24 30 -33 67 -76 82 -93 15 -18 31 -33 35 -33 5 0 21 11 37 24 26 23 28 28 25 98 -3 65 -8 79 -40 127 -20 29 -47 60 -59 68 -30 20 -67 142 -58 191 13 72 75 185 138 253 20 22 30 23 58 8z m5454 -1022 c25 -28 76 -52 140 -67 87 -20 224 -106 324 -203 36 -35 71 -66 77 -68 15 -6 141 -146 171 -191 14 -21 29 -38 33 -38 4 0 19 -17 32 -37 14 -21 46 -62 72 -92 25 -30 46 -63 46 -73 0 -9 20 -40 45 -68 83 -93 144 -249 145 -365 0 -23 4 -45 9 -50 5 -6 11 -54 14 -107 4 -76 2 -99 -9 -109 -23 -19 -60 -2 -74 33 -6 18 -16 43 -21 56 -10 24 -45 42 -86 42 -47 0 -91 37 -121 103 -51 110 -63 136 -77 177 -8 23 -24 54 -35 70 -11 15 -20 33 -20 40 0 7 -62 74 -138 149 -129 127 -200 186 -245 204 -10 4 -47 27 -81 52 -35 25 -68 45 -74 45 -5 0 -24 13 -41 29 -25 23 -31 37 -31 69 0 74 -37 117 -162 186 -81 45 -113 85 -113 141 1 49 45 120 83 133 30 10 102 -23 137 -61z m-3095 3 c59 -15 162 -52 225 -79 43 -19 82 -48 138 -105 111 -110 137 -171 156 -373 15 -158 -24 -265 -123 -334 -23 -16 -50 -42 -61 -58 -10 -16 -40 -39 -65 -50 -47 -21 -66 -27 -215 -62 -49 -11 -99 -27 -110 -33 -31 -20 -84 -24 -130 -10 -23 6 -73 15 -111 19 -110 11 -143 23 -214 80 -49 39 -73 68 -92 107 -44 90 -52 120 -56 208 -3 68 1 97 16 135 11 28 25 82 32 120 14 82 49 148 119 228 27 31 56 65 63 76 8 11 52 38 99 60 46 23 100 50 119 61 38 22 145 27 210 10z m1221 -380 c24 -13 62 -35 84 -50 22 -15 51 -31 65 -35 14 -4 34 -15 45 -25 11 -9 52 -34 90 -54 59 -30 124 -80 183 -138 7 -7 44 -50 81 -95 135 -159 185 -250 259 -465 22 -64 46 -126 53 -139 8 -16 11 -71 10 -173 l-1 -150 -37 -38 c-20 -21 -44 -38 -53 -38 -22 0 -70 23 -70 33 0 5 -12 22 -27 37 -70 71 -102 109 -139 160 l-39 55 0 215 c0 205 -1 217 -23 253 -12 21 -22 43 -22 51 0 12 -72 76 -86 76 -4 0 -43 39 -87 86 -45 47 -99 94 -122 105 -22 11 -55 29 -74 41 -18 12 -81 38 -138 59 -119 43 -169 76 -189 125 -12 30 -12 38 0 62 15 29 42 56 66 66 29 12 127 -2 171 -24z m-2129 3 c22 -20 24 -80 3 -130 -8 -19 -15 -52 -15 -72 0 -20 -7 -46 -15 -58 -17 -24 -89 -43 -165 -43 -27 0 -52 -4 -55 -10 -3 -5 -17 -10 -31 -10 -13 0 -33 -4 -44 -10 -11 -5 -28 -14 -38 -19 -10 -5 -42 -12 -71 -16 l-52 -7 7 38 c4 26 20 53 45 79 22 23 39 45 39 50 0 6 21 24 47 40 25 17 54 45 63 62 24 46 40 63 59 63 9 1 34 14 56 30 48 34 136 42 167 13z m1985 -400 c79 -33 97 -47 198 -148 97 -96 117 -122 152 -196 48 -100 59 -138 67 -242 6 -73 5 -84 -29 -176 -40 -107 -96 -188 -152 -215 -47 -24 -111 -20 -158 9 -22 13 -46 25 -53 25 -23 0 -224 90 -266 119 -36 25 -126 114 -126 124 0 2 -14 42 -31 88 -50 137 -59 178 -49 224 5 22 8 74 8 115 -2 105 17 147 92 199 32 23 65 41 73 41 8 0 25 8 38 19 79 61 121 64 236 14z m-1941 -236 c85 -52 132 -105 180 -206 48 -103 50 -321 3 -418 -11 -23 -52 -73 -90 -110 -175 -172 -248 -223 -319 -223 -20 0 -74 -11 -120 -25 -93 -26 -80 -28 -227 22 -69 23 -151 133 -171 229 -25 114 -26 215 -3 302 11 45 21 91 21 102 0 11 4 28 10 38 5 9 18 37 28 62 29 69 112 161 184 204 52 31 82 41 173 56 61 10 142 18 181 17 65 -2 77 -6 150 -50z m954 -183 c72 -3 164 -17 248 -39 50 -13 64 -23 141 -107 47 -50 97 -110 110 -132 13 -23 31 -49 39 -59 8 -9 22 -59 29 -110 8 -50 19 -114 25 -142 6 -27 10 -79 10 -115 -2 -172 -41 -263 -156 -357 -41 -35 -80 -63 -86 -63 -6 0 -27 -11 -48 -23 -72 -46 -156 -57 -438 -58 -212 -1 -244 1 -275 16 -19 10 -41 27 -48 39 -8 12 -43 50 -76 86 -37 38 -75 92 -93 130 -70 148 -67 136 -64 268 2 74 9 139 17 160 7 21 16 53 19 73 11 66 152 245 238 303 26 18 61 50 78 72 47 58 102 76 200 67 36 -4 94 -8 130 -9z m-1944 -351 c6 -16 17 -48 25 -73 18 -62 104 -263 141 -330 33 -59 34 -115 5 -148 -21 -23 -130 -303 -151 -383 -29 -118 -14 -371 35 -581 8 -35 8 -61 -2 -105 -13 -62 -24 -83 -44 -83 -16 0 -80 97 -101 152 -24 65 -65 217 -74 273 -5 28 -15 84 -23 125 -40 200 -40 210 -22 295 9 44 21 121 25 170 5 50 13 138 20 197 8 71 8 132 2 184 -13 113 11 218 64 277 61 68 82 74 100 30z m3073 -426 c23 -8 60 -40 105 -92 208 -236 216 -251 217 -390 1 -81 -20 -159 -56 -208 -8 -12 -41 -59 -73 -104 -31 -45 -81 -100 -109 -123 l-53 -41 -112 -2 c-128 -1 -164 11 -228 78 -19 20 -72 66 -118 102 -69 55 -90 79 -127 146 -68 120 -59 176 54 347 20 30 43 71 50 90 20 50 74 130 113 167 30 29 40 32 103 36 145 7 201 6 234 -6z m-1923 -227 c35 -12 65 -29 73 -43 8 -12 34 -45 58 -72 38 -43 85 -137 85 -170 0 -5 -9 -36 -21 -67 -18 -49 -41 -77 -168 -206 -161 -162 -203 -211 -203 -237 0 -26 -119 -135 -149 -136 -53 -3 -81 7 -139 50 -50 37 -143 157 -181 234 -18 37 -37 70 -42 73 -5 3 -9 37 -9 76 0 133 69 310 144 372 59 48 173 104 234 116 29 5 61 14 70 20 31 18 183 12 248 -10z m983 -470 c24 -11 50 -20 57 -20 16 0 96 -76 113 -108 8 -16 6 -25 -14 -46 -44 -48 -36 -65 101 -209 93 -97 134 -148 155 -192 63 -134 125 -196 172 -173 36 18 9 147 -47 220 -14 19 -32 51 -41 71 -16 38 -21 91 -7 85 98 -47 186 -135 232 -233 54 -115 68 -153 84 -221 7 -33 18 -70 25 -82 6 -11 11 -56 11 -99 0 -43 5 -95 11 -116 8 -31 7 -43 -6 -63 -15 -24 -49 -32 -59 -15 -3 5 -20 11 -38 14 -18 3 -62 16 -98 29 -59 21 -76 34 -177 139 -62 63 -123 129 -135 146 -13 18 -49 62 -81 100 -33 37 -71 93 -85 123 -40 85 -101 181 -143 227 -22 24 -39 51 -39 61 0 10 -15 36 -34 58 -51 61 -78 128 -83 216 -3 42 -3 84 0 93 9 21 72 19 126 -5z m-504 -51 c18 -19 18 -21 1 -54 -10 -19 -44 -51 -76 -72 -52 -35 -107 -94 -185 -198 -16 -22 -75 -86 -131 -143 -90 -92 -144 -165 -144 -194 0 -5 -13 -29 -30 -53 -16 -24 -30 -48 -30 -54 0 -6 -10 -31 -22 -55 -18 -37 -19 -47 -8 -60 7 -9 20 -16 30 -16 27 0 70 62 70 103 0 52 89 184 165 246 28 22 66 63 85 91 57 84 89 118 116 124 31 8 54 -8 54 -39 0 -30 -85 -201 -103 -208 -8 -3 -32 -34 -53 -69 -20 -35 -65 -99 -99 -143 -33 -44 -78 -109 -100 -145 -21 -36 -72 -103 -114 -150 -41 -47 -95 -111 -119 -142 -43 -55 -106 -98 -145 -98 -31 0 -66 23 -78 51 -14 35 -6 105 21 185 11 31 20 80 20 109 0 28 4 55 9 60 5 6 21 46 35 91 33 103 84 188 144 240 34 30 62 70 102 148 40 79 67 119 105 154 79 72 220 180 270 207 25 13 66 42 92 64 54 46 90 52 118 20z m233 -101 c26 -30 76 -114 123 -208 13 -25 30 -53 37 -62 11 -13 13 -37 10 -95 -5 -77 -18 -113 -79 -223 -10 -19 -19 -54 -19 -76 0 -47 -19 -69 -50 -59 -26 8 -41 37 -56 110 -14 68 -60 183 -105 262 -27 47 -30 61 -27 111 7 91 51 220 84 248 38 31 50 30 82 -8z m110 -1091 c12 -18 22 -44 22 -58 0 -13 7 -49 15 -79 13 -48 13 -57 -1 -78 -18 -28 -58 -44 -98 -40 -27 3 -31 7 -34 37 -2 19 1 53 7 75 6 23 13 63 16 91 5 43 27 85 44 85 3 0 16 -15 29 -33z"/>
 <path d="M7103 6863 c-32 -6 -63 -50 -63 -88 0 -65 75 -114 131 -85 109 56 52 198 -68 173z"/>
 <path d="M7930 7483 c-57 -21 -120 -56 -120 -66 0 -7 15 -27 33 -43 27 -25 42 -30 92 -33 32 -2 70 -7 83 -12 34 -13 116 -11 130 3 10 10 17 10 32 0 11 -6 33 -12 49 -12 17 0 33 -4 36 -10 3 -5 31 -10 62 -10 46 0 63 -5 92 -27 53 -41 79 -53 117 -53 19 0 42 -4 52 -9 27 -13 84 -32 122 -40 19 -5 55 -17 80 -29 63 -28 94 -34 114 -19 16 11 16 15 0 45 -21 43 -91 98 -193 151 -106 55 -267 113 -295 105 -11 -3 -37 1 -56 9 -42 18 -174 36 -290 41 -47 2 -94 6 -105 9 -11 3 -27 3 -35 0z"/>
 <path d="M8097 6384 c-3 -3 -2 -16 3 -28 12 -32 228 -247 285 -283 45 -29 174 -156 277 -273 32 -36 40 -41 53 -30 20 17 19 24 -9 79 -64 127 -96 167 -191 243 -27 22 -76 70 -107 106 -92 106 -279 218 -311 186z"/>
 <path d="M660 5800 c-45 -11 -111 -82 -134 -147 -10 -26 -26 -66 -35 -88 -10 -22 -27 -83 -36 -135 -10 -52 -22 -104 -28 -114 -5 -11 -20 -63 -32 -115 -13 -53 -27 -107 -33 -121 -8 -22 -22 -129 -37 -290 -7 -76 -11 -102 -20 -124 -5 -10 -5 -116 -1 -235 6 -178 11 -227 28 -281 24 -77 36 -135 48 -250 5 -47 16 -107 24 -135 8 -27 20 -79 26 -115 13 -70 72 -251 94 -284 7 -12 16 -34 20 -51 16 -66 70 -161 125 -219 31 -34 76 -87 100 -118 67 -90 106 -108 136 -62 18 28 19 27 -47 101 -31 34 -228 412 -228 437 0 4 -12 33 -26 64 -34 74 -39 86 -57 152 -47 169 -75 280 -81 320 -15 106 0 620 20 682 3 10 7 65 9 122 2 67 8 114 18 133 17 33 47 167 47 212 0 16 4 32 9 35 5 3 14 36 21 73 13 74 48 211 57 226 3 4 6 37 8 71 1 34 7 71 13 82 6 10 25 50 42 87 25 54 29 71 19 83 -13 15 -18 16 -69 4z"/>
 <path d="M8027 5082 c-15 -17 -13 -27 28 -147 l44 -130 2 -380 c3 -398 -4 -491 -41 -590 -10 -27 -28 -86 -40 -130 -12 -44 -31 -101 -41 -127 -10 -26 -26 -77 -35 -115 -8 -38 -39 -114 -70 -171 -56 -107 -67 -159 -39 -182 48 -40 127 84 215 335 29 81 61 165 84 220 17 37 33 99 40 145 3 19 18 112 35 205 16 94 33 227 37 298 3 70 10 130 15 133 12 7 12 367 0 396 -5 13 -19 50 -32 83 -30 79 -64 131 -104 155 -40 25 -77 26 -98 2z"/>
 <path d="M7424 4900 c-42 -19 -67 -47 -97 -113 -14 -32 -16 -60 -11 -205 6 -156 4 -175 -21 -292 -14 -69 -32 -161 -40 -205 -7 -44 -20 -100 -29 -124 -9 -24 -18 -65 -21 -92 -2 -27 -12 -81 -21 -121 -9 -40 -19 -94 -23 -121 -4 -26 -12 -52 -18 -58 -6 -6 -9 -18 -6 -25 3 -7 -4 -28 -15 -46 -11 -18 -27 -53 -35 -78 -40 -120 -102 -272 -143 -352 -19 -37 -34 -73 -34 -81 0 -8 -7 -20 -15 -27 -15 -13 -79 -139 -90 -180 -9 -31 -68 -160 -101 -220 -13 -25 -45 -85 -71 -135 -25 -49 -59 -107 -75 -127 -41 -52 -98 -136 -98 -144 0 -4 -22 -33 -50 -65 -27 -32 -50 -64 -50 -73 0 -8 -7 -19 -15 -23 -8 -5 -25 -23 -38 -40 -54 -75 -181 -224 -199 -234 -10 -6 -27 -23 -36 -39 -28 -45 -127 -120 -159 -120 -59 0 -195 168 -237 293 -32 95 -67 166 -95 191 -17 15 -30 18 -67 12 -26 -3 -52 -10 -58 -15 -21 -17 -139 -41 -229 -46 -51 -3 -110 -10 -132 -15 -22 -5 -116 -11 -210 -13 -156 -4 -179 -7 -283 -37 -124 -36 -130 -42 -143 -120 -5 -25 -13 -72 -19 -105 -13 -68 -8 -230 7 -260 6 -11 16 -38 23 -60 7 -22 30 -77 51 -121 22 -45 39 -87 39 -94 0 -7 11 -28 25 -46 14 -18 25 -39 25 -47 0 -13 19 -58 41 -99 5 -10 9 -23 9 -28 0 -36 70 -149 183 -294 12 -15 31 -40 42 -55 12 -14 29 -38 38 -53 28 -45 197 -216 260 -265 33 -25 79 -56 103 -69 24 -13 65 -36 92 -50 26 -14 51 -30 56 -35 16 -15 36 -11 150 26 60 19 128 35 151 35 24 0 56 5 72 11 15 6 48 12 73 15 50 4 120 23 134 36 6 4 26 8 46 8 23 0 53 11 83 30 26 17 51 30 56 30 12 0 70 30 76 40 3 5 31 12 63 16 66 8 97 22 131 58 14 14 29 26 34 26 32 0 124 103 141 158 7 22 -27 71 -115 167 -124 134 -265 295 -281 320 -34 57 -26 76 107 250 34 44 74 103 90 130 16 28 41 66 55 85 14 19 39 56 53 82 15 26 56 84 90 129 34 44 67 88 72 97 6 9 23 36 38 59 15 24 27 45 27 47 0 3 23 40 50 82 28 42 50 82 50 88 0 6 29 70 64 141 36 72 76 157 91 190 31 69 47 102 63 130 16 27 72 154 72 163 0 4 9 18 20 32 11 14 20 33 20 43 0 10 11 42 24 70 13 29 34 77 46 107 12 30 28 69 35 85 29 72 54 133 70 175 9 25 27 68 39 95 32 70 46 116 46 151 0 16 7 39 15 51 24 34 41 96 110 401 9 40 15 94 14 120 -2 30 3 58 13 78 18 33 31 153 31 284 -1 79 -8 136 -32 265 -5 28 -10 69 -10 91 -1 26 -9 51 -22 68 -18 22 -28 26 -72 25 -29 0 -70 -9 -93 -19z m55 -384 c19 -31 21 -48 21 -232 -1 -167 -5 -222 -26 -339 -13 -77 -29 -167 -34 -200 -5 -33 -20 -85 -33 -115 -14 -32 -27 -86 -31 -129 -5 -61 -15 -91 -57 -175 -28 -56 -57 -108 -65 -117 -8 -8 -14 -19 -14 -23 0 -19 -219 -571 -269 -679 -23 -49 -41 -90 -41 -93 0 -6 -35 -82 -96 -210 -33 -69 -56 -102 -101 -144 -56 -52 -84 -90 -119 -158 -9 -18 -34 -48 -55 -66 -22 -18 -39 -37 -39 -43 0 -5 -9 -18 -19 -27 -11 -10 -27 -34 -37 -54 -25 -54 -178 -231 -189 -220 -3 3 -8 35 -10 71 l-5 67 39 39 c51 51 56 61 71 156 8 49 22 94 36 117 13 21 35 62 48 90 12 29 43 77 68 106 25 29 54 69 64 90 10 20 35 62 56 93 20 30 48 84 63 120 15 35 42 89 60 119 50 83 111 208 131 270 9 30 29 73 43 94 52 78 90 156 140 286 22 58 65 163 96 233 30 70 53 133 49 138 -3 5 -1 15 4 22 14 18 42 108 37 118 -3 4 4 36 16 71 12 36 19 77 16 98 -2 19 0 42 4 50 15 32 31 151 39 290 10 177 29 249 77 290 18 17 35 30 38 30 2 0 13 -15 24 -34z m-1967 -2638 c21 -23 38 -49 38 -59 0 -10 11 -30 23 -46 30 -35 57 -90 57 -114 0 -10 5 -21 10 -24 6 -3 10 -14 10 -24 0 -9 12 -33 26 -52 14 -19 32 -50 41 -69 9 -19 53 -73 97 -120 45 -47 108 -114 141 -150 33 -36 132 -132 220 -215 281 -264 325 -314 325 -375 0 -33 -7 -44 -51 -84 -28 -26 -63 -49 -78 -52 -14 -4 -39 -15 -56 -24 -39 -24 -316 -119 -476 -164 -111 -32 -139 -36 -240 -36 -131 0 -119 -6 -200 102 -27 38 -61 75 -75 85 -14 9 -43 48 -64 88 -22 39 -51 82 -65 95 -14 13 -25 28 -25 33 0 5 -17 30 -38 56 -83 100 -212 321 -248 423 -7 21 -21 55 -30 76 -9 20 -23 53 -31 72 -7 19 -25 56 -38 81 -21 39 -25 61 -25 126 0 76 2 83 41 144 23 35 55 79 72 97 52 54 158 98 293 123 65 11 123 24 129 27 5 4 44 9 85 13 41 3 79 7 84 7 5 1 26 -17 48 -40z"/>
 <path d="M1331 3766 c-16 -19 -16 -317 -1 -391 6 -27 15 -84 20 -125 4 -41 13 -88 19 -103 6 -16 11 -40 11 -54 0 -15 4 -40 10 -57 15 -51 48 -171 81 -296 5 -19 16 -60 24 -90 9 -30 21 -73 26 -95 14 -54 63 -207 89 -275 11 -30 20 -62 20 -70 0 -8 18 -46 40 -84 22 -37 40 -73 40 -78 0 -6 17 -36 38 -67 49 -73 143 -227 191 -312 11 -19 27 -41 35 -48 9 -8 16 -20 16 -29 0 -22 128 -209 182 -267 27 -27 48 -53 48 -57 0 -4 22 -31 49 -59 36 -38 54 -50 72 -47 17 2 25 10 27 28 2 20 -14 42 -78 105 -44 44 -80 83 -80 87 0 4 -16 29 -36 55 -38 50 -86 142 -123 235 -13 32 -40 77 -60 100 -52 60 -77 99 -85 130 -3 15 -19 42 -35 61 -25 28 -141 243 -141 261 0 3 -11 29 -25 58 -14 28 -25 59 -25 67 0 9 -16 57 -36 106 -19 50 -55 153 -80 230 -95 295 -92 286 -115 415 -13 81 -30 305 -34 472 -3 157 -14 201 -51 206 -11 2 -26 -4 -33 -12z"/>
 <path d="M8650 3681 c-14 -28 -129 -344 -150 -416 -39 -132 -124 -306 -224 -459 -40 -62 -87 -139 -105 -171 -55 -100 -95 -150 -213 -265 -37 -36 -80 -89 -97 -117 -28 -48 -81 -117 -173 -227 -43 -51 -49 -67 -30 -88 20 -24 26 -23 60 10 16 15 64 56 106 92 98 82 378 358 402 396 10 16 30 45 45 64 14 19 37 55 51 80 14 25 38 68 55 95 16 28 37 68 47 90 46 102 164 330 192 370 8 11 14 27 14 36 0 9 11 37 25 63 14 26 25 57 25 70 0 12 10 52 21 87 12 35 25 104 28 154 7 88 6 90 -22 122 -34 38 -42 40 -57 14z"/>
 </g>

</svg>