<!DOCTYPE svg PUBLIC "-//W3C//DTD SVG 20010904//EN" "http://www.w3.org/TR/2001/REC-SVG-20010904/DTD/svg10.dtd">
<svg version="1.0" xmlns="http://www.w3.org/2000/svg" width="490px" height="490px" viewBox="0 0 4900 4900" preserveAspectRatio="xMidYMid meet">
<g id="layer1" fill="#d6264f" stroke="none">
 <path d="M2618 4893 c7 -3 16 -2 19 1 4 3 -2 6 -13 5 -11 0 -14 -3 -6 -6z"/>
 <path d="M2349 3075 c-67 -18 -169 -128 -169 -182 0 -10 -7 -31 -15 -47 -13 -24 -13 -36 -4 -65 27 -83 77 -131 137 -131 17 0 34 -4 37 -10 8 -13 48 -13 61 0 6 6 27 12 47 13 20 2 39 6 43 10 4 4 15 7 23 7 9 0 22 9 29 20 7 12 24 25 37 30 14 5 30 22 35 37 6 16 15 36 20 45 13 22 13 75 1 82 -5 4 -12 24 -16 45 -5 33 -16 47 -58 79 -29 21 -70 45 -92 52 -22 7 -44 16 -49 21 -12 10 -8 11 -67 -6z"/>
 <path d="M2759 2769 c-19 -10 -48 -33 -64 -49 -25 -27 -29 -37 -28 -85 2 -61 26 -139 54 -170 10 -11 46 -31 81 -45 35 -13 67 -30 71 -37 25 -41 108 10 122 74 3 18 11 35 16 38 21 13 9 81 -23 131 -18 28 -38 59 -44 70 -6 10 -24 26 -40 36 -42 25 -103 58 -106 57 -2 0 -19 -9 -39 -20z"/>
 <path d="M2004 2699 c-4 -6 -19 -9 -36 -5 -21 4 -40 -1 -71 -21 -61 -38 -82 -64 -97 -119 -7 -27 -17 -53 -21 -58 -5 -6 -9 -25 -9 -43 0 -30 6 -48 32 -93 4 -8 12 -24 17 -36 23 -52 161 -48 232 8 20 15 41 28 46 28 16 0 41 33 48 62 4 15 13 32 21 39 8 6 14 26 14 44 0 41 -57 156 -81 162 -11 3 -19 9 -19 14 0 5 -9 9 -19 9 -11 0 -23 5 -26 10 -8 13 -22 13 -31 -1z"/>
 <path d="M1 2614 c0 -11 3 -14 6 -6 3 7 2 16 -1 19 -3 4 -6 -2 -5 -13z"/>
 <path d="M2303 2571 c-87 -73 -115 -120 -121 -203 -6 -86 12 -136 73 -200 l44 -48 118 0 c139 0 176 13 239 82 50 54 59 97 40 195 -14 74 -19 84 -77 151 -43 51 -70 61 -174 68 l-82 5 -60 -50z"/>
 <path d="M4891 2594 c0 -11 3 -14 6 -6 3 7 2 16 -1 19 -3 4 -6 -2 -5 -13z"/>
 <path d="M4891 2314 c0 -11 3 -14 6 -6 3 7 2 16 -1 19 -3 4 -6 -2 -5 -13z"/>
 <path d="M2 2300 c0 -14 2 -19 5 -12 2 6 2 18 0 25 -3 6 -5 1 -5 -13z"/>
 <path d="M2810 2297 c-26 -9 -46 -29 -82 -82 -26 -38 -55 -78 -64 -87 -33 -34 -10 -71 102 -164 57 -47 82 -56 128 -43 40 11 126 103 126 134 0 7 5 17 10 20 6 3 10 19 10 35 0 16 -4 32 -10 35 -5 3 -10 15 -10 25 0 10 -11 27 -25 38 -14 11 -25 24 -25 29 0 19 -56 61 -90 66 -19 3 -51 0 -70 -6z"/>
 <path d="M2002 2212 c-29 -11 -66 -32 -82 -47 -32 -31 -60 -101 -60 -150 0 -57 104 -185 150 -185 10 0 36 21 57 46 21 26 66 76 100 113 69 74 82 105 60 147 -45 86 -123 112 -225 76z"/>
 <path d="M2298 3 c7 -3 16 -2 19 1 4 3 -2 6 -13 5 -11 0 -14 -3 -6 -6z"/>
 <path d="M2598 3 c7 -3 16 -2 19 1 4 3 -2 6 -13 5 -11 0 -14 -3 -6 -6z"/>
 </g>
<g id="layer2" fill="#010101" stroke="none">
 <path d="M2140 4885 c-358 -34 -737 -177 -1075 -406 -588 -398 -990 -1066 -1051 -1744 -17 -201 -17 -344 0 -560 33 -391 179 -785 421 -1130 411 -587 1066 -975 1740 -1031 536 -44 945 26 1355 231 214 107 326 180 505 330 488 410 803 1003 851 1605 17 221 17 333 -1 540 -69 813 -595 1564 -1357 1938 -237 117 -515 202 -730 223 -164 17 -508 19 -658 4z m638 -280 c727 -105 1352 -558 1667 -1210 102 -211 166 -419 202 -655 21 -140 23 -443 5 -575 -25 -177 -77 -387 -119 -485 -8 -19 -20 -46 -25 -60 -27 -65 -39 -90 -68 -150 -18 -36 -44 -86 -58 -112 -15 -26 -37 -66 -50 -89 -58 -105 -197 -275 -351 -430 -118 -118 -193 -180 -261 -214 -25 -12 -97 -52 -160 -88 -136 -79 -150 -85 -260 -131 -267 -109 -519 -159 -820 -160 -370 -2 -651 62 -1000 226 -406 192 -783 568 -985 983 -162 333 -229 620 -229 980 0 498 150 940 456 1343 340 448 905 768 1468 831 52 6 111 13 130 15 67 8 355 -4 458 -19z"/>
 <path d="M3340 3911 c-25 -9 -61 -25 -80 -35 -51 -27 -269 -173 -312 -210 -56 -48 -124 -96 -135 -96 -6 0 -17 -9 -24 -20 -20 -30 -195 -156 -259 -187 -47 -23 -73 -27 -190 -34 -205 -11 -374 -44 -462 -90 -38 -20 -51 -12 -44 29 4 20 12 51 18 68 21 61 -10 82 -67 44 -16 -11 -33 -20 -37 -20 -15 0 -8 41 13 81 35 70 8 94 -68 59 -26 -12 -60 -28 -74 -35 l-27 -13 5 42 c3 22 10 49 14 58 16 31 10 58 -16 70 -22 10 -30 8 -55 -10 -16 -12 -33 -22 -38 -22 -5 0 -18 -11 -28 -25 -10 -14 -28 -25 -40 -25 -27 0 -54 -31 -100 -115 -38 -69 -39 -72 -37 -170 1 -55 8 -123 15 -150 l14 -50 -84 -78 c-80 -74 -172 -185 -172 -207 0 -6 -14 -41 -32 -78 -44 -95 -46 -136 -10 -272 63 -238 73 -274 78 -282 3 -5 14 -41 25 -81 11 -39 26 -79 33 -87 7 -8 24 -35 37 -60 42 -78 108 -150 138 -150 53 0 95 69 86 138 -8 52 -41 190 -54 224 -5 13 -15 61 -21 107 l-13 84 31 28 c30 27 114 59 154 59 15 0 18 -9 18 -56 0 -30 -5 -65 -12 -77 -14 -27 -14 -159 1 -212 6 -22 11 -53 11 -69 0 -27 11 -71 31 -121 4 -11 10 -36 12 -55 9 -59 23 -85 59 -104 88 -48 130 18 133 209 1 66 3 122 4 125 1 3 9 -20 17 -50 23 -85 71 -158 125 -189 l47 -27 -13 -34 c-7 -19 -22 -60 -34 -91 -27 -76 -49 -282 -31 -304 18 -21 29 -19 74 15 22 17 45 30 51 30 15 0 133 117 160 160 13 19 34 46 49 59 14 14 26 28 26 32 0 5 12 25 26 46 14 21 30 49 35 62 10 24 10 24 23 5 26 -37 39 -109 39 -219 0 -60 -2 -118 -4 -129 -7 -31 23 -42 64 -23 19 9 51 17 69 17 21 0 42 7 52 19 16 18 16 21 -6 62 -18 35 -23 60 -23 124 0 44 4 93 8 108 l8 28 46 -53 c103 -118 179 -185 245 -217 54 -27 70 -31 87 -22 17 10 21 21 21 65 0 73 -16 158 -47 244 -14 40 -24 74 -22 76 2 1 30 13 62 26 67 26 161 120 171 172 17 87 -9 195 -60 248 -19 20 -34 43 -34 51 0 17 43 69 58 69 4 0 23 -16 42 -35 62 -64 105 -88 145 -81 50 10 59 33 52 143 -4 71 -14 117 -43 200 -20 59 -44 118 -52 131 -17 26 -7 44 40 68 15 8 47 44 69 80 52 82 71 90 113 51 61 -56 95 -78 175 -112 90 -37 203 -127 242 -193 55 -92 109 -169 135 -193 40 -35 113 -62 131 -48 17 15 17 91 -2 161 -8 31 -19 84 -24 119 -8 50 -17 70 -44 98 -19 20 -45 56 -58 81 -32 62 -86 118 -136 140 -85 37 -223 147 -223 176 0 7 13 15 29 19 34 7 219 -11 235 -24 6 -4 32 -15 58 -25 82 -30 162 -79 210 -128 26 -27 67 -57 90 -68 51 -23 116 -26 124 -6 9 23 -70 180 -118 237 -112 134 -136 157 -202 203 -39 26 -82 59 -96 71 -14 13 -45 29 -70 35 -25 7 -49 15 -55 20 -5 4 -34 13 -63 21 -42 10 -63 10 -105 1 -28 -7 -91 -17 -140 -22 -86 -10 -103 -15 -161 -47 -15 -8 -56 -17 -90 -20 -33 -3 -65 -9 -71 -13 -12 -10 -161 -60 -176 -60 -19 0 223 233 270 260 62 36 153 112 190 159 43 54 39 78 -19 107 -52 27 -68 27 -130 5z m10 -119 c0 -10 -19 -30 -44 -46 -24 -15 -61 -43 -82 -63 -21 -19 -51 -41 -66 -49 -15 -8 -35 -26 -44 -39 -9 -14 -38 -41 -65 -61 -27 -19 -57 -49 -66 -65 -17 -28 -115 -99 -217 -157 -58 -33 -136 -92 -136 -102 0 -20 37 -28 88 -19 40 6 66 18 99 45 41 34 54 38 122 44 60 5 98 17 181 54 119 53 172 63 178 31 6 -30 44 -67 64 -62 10 3 18 1 18 -3 0 -5 23 -34 51 -64 l51 -56 -28 -41 c-23 -34 -120 -109 -140 -109 -2 0 -29 -18 -59 -40 -30 -22 -57 -40 -61 -40 -4 0 -18 -10 -30 -21 -13 -13 -41 -23 -68 -26 -41 -5 -44 -4 -39 15 3 13 22 27 55 39 60 21 80 45 58 68 -14 13 -21 13 -67 -5 l-51 -19 -40 35 c-42 35 -82 45 -82 19 0 -8 17 -32 38 -54 24 -26 36 -45 31 -53 -6 -9 -15 -6 -36 14 -15 14 -42 33 -59 41 -18 9 -44 30 -58 48 -81 96 -200 118 -183 34 4 -26 4 -26 -17 -7 -35 32 -69 50 -141 77 -102 36 -158 32 -224 -17 -13 -10 -34 -18 -47 -18 -12 0 -36 -11 -52 -25 -49 -41 -112 -65 -174 -65 -36 0 -89 -11 -142 -29 -53 -18 -88 -25 -94 -19 -13 13 -59 -18 -76 -51 -8 -14 -17 -51 -20 -81 -17 -135 -39 -192 -106 -265 -20 -22 -42 -52 -49 -67 -14 -27 -30 -35 -161 -86 -73 -28 -76 -31 -93 -78 -10 -27 -16 -60 -13 -74 25 -124 36 -168 72 -278 57 -176 -84 35 -156 234 -34 93 -39 122 -41 239 -1 96 2 120 25 191 46 136 75 183 146 241 66 53 99 70 179 94 24 7 63 26 86 41 54 36 166 74 242 83 32 4 103 22 158 40 137 45 144 46 282 50 206 6 337 42 417 114 23 21 57 48 76 61 19 13 58 46 86 74 81 81 195 176 244 203 25 14 67 41 93 59 40 29 152 81 180 83 4 1 7 -7 7 -17z m423 -338 c40 -9 83 -23 97 -31 17 -9 18 -12 5 -8 -34 11 -108 26 -157 32 -27 3 -48 9 -48 14 0 13 21 11 103 -7z m-2271 -191 c18 -22 42 -14 73 24 l29 37 8 -39 c5 -21 16 -47 24 -57 15 -16 14 -17 -12 -23 -16 -4 -51 -14 -79 -24 l-50 -17 -3 48 c-1 27 -13 65 -27 90 -31 53 -31 79 -2 123 l22 34 3 -91 c1 -51 8 -98 14 -105z m2038 164 c0 -29 38 -49 97 -52 80 -5 132 -14 168 -30 17 -8 63 -24 103 -36 57 -17 76 -19 85 -10 9 9 8 18 -5 41 -9 17 -15 30 -13 30 21 0 225 -219 225 -241 0 -5 16 -27 36 -49 69 -76 0 -40 -152 79 -27 22 -72 49 -99 61 -26 11 -63 34 -81 50 -19 16 -53 35 -76 41 -24 7 -51 19 -60 27 -14 12 -28 12 -83 3 -101 -18 -260 18 -253 57 6 33 108 60 108 29z m-2084 -267 c9 0 12 -4 9 -10 -9 -14 -48 -12 -68 3 -10 6 -20 30 -24 52 l-6 40 37 -42 c21 -24 44 -43 52 -43z m2170 -92 c26 -18 32 -28 28 -48 -3 -21 7 -35 58 -80 34 -30 90 -83 124 -117 35 -35 68 -63 74 -63 41 0 -4 90 -77 154 -44 38 -51 52 -20 40 17 -6 151 -160 174 -198 39 -65 73 -166 73 -215 l0 -24 -23 21 c-13 12 -31 22 -40 22 -11 0 -29 25 -52 73 -41 83 -129 178 -217 234 -35 21 -58 43 -58 53 0 26 -35 65 -75 84 -36 18 -42 34 -25 67 13 24 17 24 56 -3z m-1169 -14 c60 -17 115 -60 140 -108 11 -20 17 -57 17 -103 1 -72 1 -73 -40 -113 -78 -79 -272 -103 -350 -44 -35 27 -60 95 -51 141 25 126 56 176 135 218 56 29 77 30 149 9z m473 -158 c8 -7 22 -16 30 -20 132 -58 270 -272 270 -418 0 -82 -19 -88 -77 -23 l-43 49 0 82 c0 45 -6 95 -12 110 -18 40 -103 117 -169 152 -79 42 -109 63 -109 77 0 7 6 15 13 18 16 5 78 -12 97 -27z m-874 -18 c-9 -54 -12 -58 -46 -58 -16 0 -48 -7 -70 -16 -23 -9 -44 -14 -47 -10 -8 7 75 99 102 114 11 6 31 11 44 11 22 1 23 -1 17 -41z m842 -155 c56 -46 102 -131 102 -185 0 -42 -22 -102 -47 -130 -16 -18 -63 -25 -76 -11 -4 3 -30 14 -59 24 -94 34 -138 101 -138 213 0 70 11 91 61 117 52 27 102 18 157 -28z m-828 -48 c70 -36 105 -132 81 -221 -25 -95 -186 -182 -278 -151 -56 18 -78 63 -77 157 2 133 52 203 159 221 65 11 84 10 115 -6z m482 -94 c30 -11 107 -96 113 -125 31 -148 27 -197 -22 -248 -49 -53 -97 -68 -223 -69 l-112 -1 -39 38 c-56 54 -77 118 -68 199 10 77 38 125 111 184 l52 42 82 -5 c45 -3 93 -10 106 -15z m-862 -148 c0 -14 16 -55 36 -91 l36 -64 -20 -27 c-30 -41 -62 -155 -62 -220 1 -31 7 -85 14 -120 8 -35 11 -73 7 -84 -7 -17 -9 -16 -24 15 -43 91 -61 290 -38 414 5 27 7 68 4 90 -3 28 0 53 12 78 20 42 35 47 35 9z m1263 -195 c27 -29 53 -63 58 -76 22 -58 4 -119 -57 -191 -33 -38 -40 -41 -84 -41 -44 0 -55 5 -110 51 -34 28 -68 66 -77 85 -18 38 -17 41 43 144 37 64 52 78 88 83 65 9 89 -1 139 -55z m-803 -41 c13 -7 35 -28 48 -47 34 -50 24 -81 -51 -160 -34 -36 -75 -83 -90 -103 -15 -20 -36 -37 -46 -37 -44 0 -131 109 -131 165 0 44 27 119 51 141 25 23 115 53 159 54 19 0 46 -6 60 -13z m423 -205 c12 -11 14 -19 7 -26 -19 -19 -10 -39 43 -96 28 -31 64 -78 79 -103 47 -81 97 -56 65 32 -9 25 -14 47 -12 49 2 2 15 -14 29 -34 31 -46 63 -141 69 -207 4 -43 3 -47 -14 -42 -79 26 -193 135 -244 235 -13 25 -31 52 -39 59 -9 8 -16 18 -16 24 0 6 -7 19 -17 29 -9 10 -19 38 -23 62 l-7 45 31 -6 c17 -3 39 -13 49 -21z m-346 -95 c-70 -75 -104 -122 -127 -172 -20 -45 -28 -71 -21 -78 16 -16 41 1 57 39 12 27 87 127 132 174 2 3 1 -6 -3 -20 -7 -25 -71 -127 -91 -145 -6 -5 -21 -27 -33 -48 -53 -88 -131 -161 -146 -137 -21 33 38 215 81 250 8 7 26 36 40 64 19 40 43 65 107 113 45 34 86 62 91 62 5 1 -35 -45 -87 -102z m223 7 c34 -59 34 -63 4 -149 -12 -33 -20 -44 -22 -31 -2 10 -17 44 -33 75 -16 30 -29 60 -29 65 0 19 33 96 41 96 4 0 22 -25 39 -56z m20 -431 c0 -15 -6 -23 -16 -23 -11 0 -14 5 -10 16 3 9 6 25 6 37 0 18 2 19 10 7 5 -8 10 -25 10 -37z"/>
 <path d="M3250 3194 c-10 -11 -11 -23 -4 -42 8 -22 16 -27 44 -27 28 0 36 5 44 27 12 34 -6 58 -44 58 -15 0 -33 -7 -40 -16z"/>
 <path d="M723 2776 c-17 -14 -37 -45 -46 -68 -25 -67 -61 -233 -72 -326 -14 -129 -15 -157 -4 -210 6 -31 11 -64 11 -72 1 -8 5 -21 10 -27 6 -7 8 -19 5 -27 -6 -14 10 -86 39 -181 20 -69 66 -150 84 -150 21 0 24 32 7 69 -65 136 -83 247 -81 501 1 206 28 336 91 438 41 66 12 100 -44 53z"/>
 <path d="M3654 2495 c-3 -8 0 -38 6 -66 9 -36 11 -95 7 -188 -9 -190 -24 -287 -53 -340 -22 -39 -23 -46 -10 -59 12 -13 18 -13 30 -3 33 27 58 84 72 159 21 114 29 355 15 422 -16 72 -53 114 -67 75z"/>
 <path d="M3392 2434 c-37 -26 -54 -69 -46 -119 3 -25 1 -73 -5 -107 -54 -298 -55 -300 -99 -408 -91 -221 -188 -397 -288 -525 -79 -102 -128 -149 -147 -142 -20 8 -71 83 -88 130 -7 21 -21 45 -31 53 -15 15 -21 15 -65 0 -26 -8 -102 -18 -168 -22 -66 -4 -140 -12 -165 -19 -40 -10 -47 -16 -58 -51 -22 -65 -11 -157 30 -244 20 -41 43 -91 51 -111 39 -95 180 -251 275 -304 46 -26 48 -26 92 -12 25 9 65 19 90 22 58 8 105 22 155 45 22 10 52 21 66 24 30 7 119 86 119 107 0 8 -36 54 -80 103 -44 48 -80 95 -80 104 0 8 26 52 58 96 84 117 183 272 213 336 15 30 43 89 62 130 20 41 45 98 56 125 10 28 37 88 60 134 23 47 41 93 41 103 0 10 9 44 19 75 10 32 27 116 36 188 15 111 16 139 5 200 -7 38 -17 78 -22 88 -11 21 -56 22 -86 1z m24 -301 c-8 -131 -30 -213 -107 -402 -33 -79 -59 -147 -59 -152 0 -19 -114 -239 -148 -285 -20 -27 -59 -80 -86 -117 -54 -73 -72 -80 -39 -14 11 23 30 62 42 87 11 25 32 65 47 90 78 134 114 202 144 270 19 41 42 84 51 95 10 11 20 34 24 50 4 17 18 53 31 81 14 28 31 86 40 130 8 43 21 108 29 144 8 36 15 77 15 91 0 24 7 39 18 39 3 0 2 -48 -2 -107z m-725 -980 c39 -77 59 -102 191 -233 82 -81 148 -154 148 -162 0 -8 -8 -22 -17 -30 -32 -27 -215 -84 -329 -102 -36 -6 -41 -4 -51 16 -6 13 -29 43 -51 69 -72 81 -150 207 -181 295 -17 47 -31 93 -31 102 0 10 11 34 25 54 22 33 32 38 102 53 43 9 92 20 108 24 17 4 33 6 37 4 3 -2 26 -42 49 -90z"/>
 <path d="M1001 1982 c-5 -10 -8 -36 -6 -58 17 -184 17 -186 65 -359 49 -178 62 -208 149 -353 93 -156 173 -262 197 -262 29 0 27 31 -4 63 -17 18 -50 68 -73 112 -22 44 -48 89 -57 100 -40 47 -104 184 -142 300 -57 176 -59 188 -66 315 -4 69 -11 133 -16 143 -11 22 -35 22 -47 -1z"/>
 <path d="M3834 1845 c-7 -19 -14 -39 -14 -44 0 -15 -36 -91 -75 -156 -19 -33 -45 -78 -56 -100 -29 -53 -64 -101 -113 -152 -30 -32 -37 -46 -29 -54 22 -22 68 9 127 85 31 40 66 90 77 112 12 21 36 64 54 94 17 30 38 71 45 90 7 19 17 40 21 45 13 18 28 86 22 101 -10 27 -43 16 -59 -21z"/>
 </g>
<g id="layer3" fill="#ffffff" stroke="none">
 <path d="M2320 4644 c-19 -2 -78 -9 -130 -15 -727 -82 -1401 -564 -1725 -1234 -102 -211 -166 -418 -202 -655 -23 -157 -23 -453 0 -610 75 -493 286 -910 637 -1260 165 -164 438 -363 550 -401 19 -7 42 -17 50 -24 46 -36 294 -125 460 -164 181 -42 311 -56 520 -55 244 1 437 30 655 100 136 43 342 133 417 182 51 33 143 86 178 103 136 63 515 464 621 657 13 23 34 59 46 80 13 20 30 53 38 72 9 19 20 42 25 50 11 17 24 44 68 150 5 14 17 41 25 60 42 98 94 308 119 485 18 132 16 435 -5 575 -94 619 -424 1151 -937 1512 -269 189 -615 325 -952 373 -103 15 -391 27 -458 19z m1133 -749 c67 -28 66 -45 -11 -123 -38 -39 -83 -77 -100 -86 -17 -9 -48 -28 -69 -41 -43 -29 -273 -254 -273 -267 0 -21 37 -18 113 7 45 15 87 30 92 35 6 4 38 11 72 13 35 3 75 13 90 21 56 30 74 36 160 46 49 5 112 15 140 22 42 9 63 9 105 -1 29 -8 58 -17 63 -21 6 -5 30 -13 55 -20 24 -7 59 -25 77 -41 18 -15 57 -44 85 -62 92 -59 215 -206 269 -321 21 -46 39 -87 39 -90 0 -13 -67 -5 -105 13 -22 10 -63 41 -91 68 -52 51 -131 99 -212 129 -26 10 -52 21 -58 26 -6 4 -56 13 -111 19 -111 12 -166 4 -171 -25 -7 -36 140 -161 241 -206 49 -22 84 -57 116 -120 13 -25 39 -61 58 -81 27 -28 36 -48 44 -98 5 -35 16 -88 24 -119 8 -31 15 -78 15 -105 0 -43 -2 -48 -17 -42 -10 4 -31 12 -48 17 -52 18 -58 26 -181 219 -42 66 -172 173 -242 199 -77 29 -130 61 -171 104 -56 58 -84 47 -149 -57 -17 -26 -51 -62 -76 -78 -49 -33 -54 -43 -33 -74 8 -11 31 -69 51 -128 30 -87 39 -129 43 -207 6 -99 6 -99 -20 -111 -38 -17 -66 -6 -134 56 -34 30 -66 55 -71 55 -15 0 -72 -69 -72 -87 0 -10 15 -33 34 -53 52 -54 80 -179 58 -258 -14 -47 -88 -118 -149 -142 -90 -36 -91 -37 -60 -122 42 -119 62 -267 38 -291 -7 -7 -26 -3 -68 18 -79 39 -125 78 -213 179 -41 47 -80 86 -87 86 -25 0 -37 -46 -38 -135 0 -75 4 -97 23 -133 12 -24 20 -48 17 -53 -4 -5 -23 -9 -43 -9 -20 0 -50 -7 -66 -15 -44 -23 -58 -20 -49 13 11 39 6 222 -7 273 -13 46 -45 99 -60 99 -5 0 -21 -24 -35 -52 -15 -29 -33 -60 -41 -69 -8 -8 -14 -19 -14 -24 0 -18 -198 -235 -215 -235 -6 0 -29 -13 -51 -30 -63 -47 -68 -43 -60 52 10 123 25 194 52 255 34 79 32 98 -15 123 -22 11 -52 35 -66 54 -28 37 -65 124 -65 155 0 10 -7 24 -15 31 -30 25 -38 -4 -40 -134 -2 -98 -7 -133 -21 -163 -41 -84 -124 -37 -138 79 -1 13 -5 30 -8 38 -12 32 -27 97 -32 135 -3 22 -10 70 -15 107 -8 47 -7 80 0 115 6 26 12 80 13 118 1 65 0 70 -22 73 -43 6 -133 -28 -175 -67 l-41 -38 13 -74 c7 -41 26 -123 41 -184 41 -160 45 -203 20 -242 -40 -66 -102 -30 -169 97 -13 25 -29 52 -36 60 -8 8 -23 48 -34 87 -11 40 -22 76 -25 81 -5 8 -15 44 -78 282 -36 136 -34 177 10 272 18 37 32 72 32 78 0 28 141 186 229 257 24 19 24 20 10 89 -7 38 -13 107 -13 154 1 89 10 116 71 213 18 28 30 37 51 37 15 0 32 8 38 18 20 32 91 74 113 67 19 -6 20 -9 7 -38 -7 -18 -16 -58 -20 -90 -8 -62 0 -71 34 -37 11 11 27 20 35 20 8 0 32 9 52 20 66 35 77 26 43 -40 -40 -78 -17 -116 49 -78 22 12 43 19 47 15 4 -4 1 -24 -6 -46 -20 -62 -19 -115 4 -119 10 -2 28 1 40 6 35 18 138 49 196 61 93 19 120 22 265 30 167 9 198 21 346 133 54 40 127 96 164 123 37 28 84 64 104 81 42 36 260 183 311 210 43 22 119 51 141 53 9 0 33 -6 52 -14z m-2683 -1125 c0 -6 -10 -27 -23 -48 -79 -127 -111 -356 -87 -622 11 -120 59 -312 81 -326 5 -3 9 -15 9 -27 -1 -16 -8 -8 -27 28 -29 56 -36 78 -63 184 -10 41 -16 80 -13 88 3 7 1 19 -5 26 -5 6 -15 48 -22 93 -10 67 -9 100 5 210 26 203 70 363 109 390 24 17 36 18 36 4z m2931 -348 c14 -69 6 -309 -15 -424 -14 -74 -47 -148 -67 -148 -13 0 -12 2 16 52 19 34 28 74 39 164 14 121 15 346 1 398 -5 20 -5 27 3 22 6 -3 16 -32 23 -64z m-225 -57 c7 -33 13 -76 13 -95 1 -48 -27 -232 -46 -300 -8 -30 -19 -72 -24 -93 -5 -21 -25 -70 -44 -108 -20 -38 -44 -93 -55 -122 -20 -52 -32 -78 -106 -232 -41 -86 -132 -231 -226 -361 -32 -44 -58 -88 -58 -96 0 -8 36 -56 81 -106 61 -70 79 -96 74 -111 -7 -24 -82 -81 -107 -81 -9 0 -32 -8 -50 -18 -38 -21 -95 -38 -158 -47 -25 -3 -65 -13 -90 -22 -44 -14 -46 -14 -90 11 -25 14 -65 42 -88 62 -51 43 -148 171 -169 223 -8 20 -31 70 -50 111 -39 81 -52 167 -36 230 12 44 45 55 208 64 66 4 141 14 167 22 26 9 51 13 56 10 5 -3 14 -23 22 -45 13 -41 74 -127 101 -144 12 -8 23 -5 41 9 31 25 146 157 180 209 140 212 279 521 302 675 2 8 7 40 13 70 30 154 35 194 29 235 -5 31 -3 53 8 74 18 33 30 41 65 38 21 -2 26 -10 37 -62z m-2432 -522 c4 -70 13 -148 20 -173 71 -232 133 -379 188 -445 9 -11 35 -56 57 -100 23 -44 55 -93 71 -110 31 -32 37 -45 21 -45 -28 0 -246 348 -276 440 -23 72 -70 242 -84 305 -15 66 -33 244 -25 256 14 24 22 -10 28 -128z m2830 -10 c-4 -16 -17 -52 -30 -81 -13 -29 -24 -55 -24 -58 0 -3 -22 -43 -50 -90 -27 -47 -50 -87 -50 -90 0 -11 -91 -123 -116 -143 -46 -36 -50 -23 -8 22 49 51 84 99 113 152 11 22 37 67 56 100 38 63 75 141 75 155 0 5 4 20 10 34 13 35 32 34 24 -1z"/>
 <path d="M3273 3805 c-34 -14 -84 -40 -110 -59 -26 -18 -68 -45 -93 -59 -47 -26 -158 -117 -245 -203 -29 -28 -67 -61 -86 -74 -19 -13 -52 -40 -75 -61 -80 -72 -211 -108 -417 -114 -138 -4 -145 -5 -282 -50 -55 -18 -126 -36 -158 -40 -76 -9 -188 -47 -242 -83 -23 -15 -62 -34 -86 -41 -24 -7 -58 -19 -76 -26 -50 -22 -154 -103 -184 -143 -32 -44 -84 -171 -103 -251 -18 -80 -5 -269 23 -334 12 -27 21 -53 21 -58 0 -4 22 -55 49 -111 57 -118 122 -201 142 -181 13 13 9 38 -26 153 -9 30 -23 82 -30 115 -8 33 -17 70 -21 83 -3 12 -1 43 6 68 14 49 36 65 135 98 69 22 107 48 125 82 8 16 29 43 46 59 59 58 95 146 109 270 4 33 12 69 18 80 15 28 40 45 52 35 6 -5 47 3 98 21 56 18 109 29 145 29 62 0 125 24 174 65 16 14 40 25 52 25 13 0 34 8 47 18 66 49 122 53 224 17 81 -30 112 -48 141 -82 29 -34 46 -22 38 28 -6 35 -4 39 14 39 38 0 67 -17 135 -79 37 -34 72 -61 77 -61 5 0 25 -14 45 -31 29 -26 38 -29 50 -19 23 19 18 38 -22 77 -45 46 -27 57 23 14 39 -35 59 -38 111 -16 43 18 43 18 43 1 0 -8 -21 -21 -49 -31 -57 -19 -74 -35 -69 -67 3 -20 8 -23 50 -22 31 0 54 6 68 19 11 10 29 23 40 29 63 36 210 134 238 160 19 17 40 44 49 59 14 28 13 30 -30 76 -24 26 -50 57 -56 69 -7 13 -21 22 -34 22 -27 0 -47 17 -47 40 0 9 -9 25 -19 34 -26 23 -54 17 -184 -42 -80 -35 -118 -47 -178 -52 -68 -6 -81 -10 -122 -44 -33 -27 -59 -39 -99 -45 -29 -5 -57 -7 -61 -4 -11 7 77 70 123 89 19 8 40 21 45 28 6 7 41 32 78 56 37 23 78 57 90 75 12 18 46 52 75 75 29 23 56 48 59 56 3 8 20 22 37 31 17 9 47 31 66 49 19 18 58 48 85 67 41 28 50 39 50 63 0 37 -15 39 -92 9z m45 -637 c-2 -17 -10 -23 -28 -23 -18 0 -26 6 -28 23 -3 19 1 22 28 22 27 0 31 -3 28 -22z"/>
 <path d="M3645 3481 c-37 -8 -49 -44 -13 -40 12 1 30 -1 38 -4 8 -3 33 -8 55 -11 22 -3 63 -11 90 -17 74 -17 89 -16 93 3 4 21 -36 39 -136 62 -75 17 -80 17 -127 7z"/>
 <path d="M1464 3458 c-50 -60 -55 -93 -20 -154 12 -22 25 -59 29 -82 7 -56 -16 -57 -64 -1 -44 52 -64 46 -56 -15 6 -44 43 -86 76 -86 9 0 36 9 59 20 23 11 70 27 104 36 77 19 87 28 64 53 -10 11 -20 38 -23 60 -3 23 -10 44 -15 47 -6 4 -26 -10 -47 -30 -52 -51 -61 -47 -62 27 -2 153 -7 168 -45 125z"/>
 <path d="M3450 3442 c-24 -13 -36 -27 -38 -46 -3 -22 3 -29 40 -44 77 -33 159 -44 233 -31 55 9 69 9 83 -3 9 -8 36 -20 60 -27 23 -6 57 -25 76 -41 18 -16 55 -39 82 -50 27 -12 69 -38 94 -59 25 -20 61 -47 82 -59 20 -12 38 -29 41 -36 7 -19 66 -31 80 -17 7 7 -1 22 -26 51 -21 22 -37 44 -37 49 0 28 -223 261 -251 261 -19 0 -21 -31 -4 -50 10 -11 16 -23 13 -26 -7 -6 -129 30 -173 51 -16 8 -75 20 -129 25 -108 11 -104 10 -120 42 -15 30 -61 34 -106 10z"/>
 <path d="M3561 3084 c-12 -15 -21 -35 -21 -45 0 -18 48 -60 82 -72 9 -3 21 -21 26 -39 6 -25 23 -43 73 -76 96 -64 164 -136 199 -211 37 -77 56 -101 81 -101 10 0 23 -9 29 -20 6 -11 20 -20 30 -20 16 0 20 7 20 33 0 57 -32 153 -73 223 -28 48 -164 198 -199 220 -38 24 -68 31 -68 16 0 -5 27 -35 61 -67 57 -54 115 -132 106 -141 -2 -2 -33 24 -68 59 -36 34 -89 84 -118 111 -42 39 -51 53 -47 72 5 18 -2 28 -36 53 -23 17 -45 31 -49 31 -4 0 -17 -12 -28 -26z"/>
 <path d="M1995 2928 c-34 -19 -126 -122 -122 -138 4 -21 33 -18 167 19 20 5 27 15 34 54 12 69 -22 97 -79 65z"/>
 <path d="M2812 2928 c-32 -32 -12 -51 118 -120 30 -16 71 -46 91 -67 20 -21 42 -40 49 -43 11 -3 15 -32 18 -109 l5 -104 44 -57 c25 -32 52 -58 62 -58 33 0 51 33 51 92 0 76 -35 163 -107 265 -23 35 -43 67 -43 72 0 9 -53 46 -155 108 -57 35 -111 43 -133 21z"/>
 <path d="M1648 2448 c-18 -26 -23 -48 -25 -103 -1 -38 -6 -114 -11 -169 -13 -136 13 -292 60 -359 40 -56 63 -4 42 95 -7 35 -13 88 -14 119 0 65 32 179 62 220 l20 27 -36 64 c-20 36 -36 74 -36 86 0 59 -27 68 -62 20z"/>
 <path d="M2477 2033 c-9 -15 10 -103 26 -121 10 -10 17 -23 17 -29 0 -6 7 -16 16 -24 8 -7 27 -35 40 -61 40 -80 153 -199 218 -232 75 -37 87 -28 76 59 -15 116 -84 245 -131 245 -23 0 -23 2 1 -51 37 -83 12 -113 -30 -36 -12 23 -46 66 -74 95 -46 48 -49 54 -37 74 11 18 10 24 -16 48 -27 27 -97 48 -106 33z"/>
 <path d="M2240 1970 c-36 -27 -77 -59 -92 -70 -15 -11 -38 -44 -52 -74 -14 -29 -32 -59 -40 -66 -27 -21 -74 -132 -81 -188 -11 -88 29 -108 92 -47 34 33 56 63 168 226 49 73 68 129 43 129 -20 0 -145 -150 -159 -189 -6 -17 -15 -31 -21 -31 -5 0 -7 3 -5 8 3 4 18 36 35 72 22 47 56 92 122 159 50 52 89 99 87 105 -8 23 -34 14 -97 -34z"/>
 <path d="M2371 1929 c-11 -29 -21 -56 -21 -62 0 -6 13 -38 29 -71 16 -34 34 -74 40 -89 15 -39 33 -30 47 24 7 24 18 59 25 77 12 30 11 37 -11 79 -32 60 -58 93 -74 93 -8 0 -23 -23 -35 -51z"/>
 <path d="M2435 1528 c-3 -13 -6 -39 -8 -58 -2 -31 1 -35 22 -35 36 0 47 26 31 74 -14 45 -37 54 -45 19z"/>
 <path d="M3395 2278 c-3 -7 -9 -40 -14 -73 -16 -101 -51 -278 -62 -315 -6 -19 -20 -50 -31 -68 -11 -18 -18 -35 -15 -38 3 -3 -4 -22 -15 -42 -28 -48 -88 -171 -88 -179 0 -5 -56 -105 -124 -223 -15 -25 -36 -65 -47 -90 -12 -25 -31 -64 -42 -86 -19 -40 -18 -74 3 -74 9 0 58 61 162 204 34 46 148 266 148 285 0 4 23 63 50 131 28 68 50 128 50 133 0 5 6 23 14 40 54 118 75 407 30 407 -8 0 -17 -6 -19 -12z"/>
 <path d="M2555 1249 c-105 -18 -138 -33 -172 -78 -18 -23 -33 -51 -33 -61 0 -72 115 -291 206 -392 18 -21 45 -56 59 -78 26 -41 27 -41 68 -35 69 12 188 43 256 69 72 26 111 55 111 83 0 10 -65 83 -149 166 -127 127 -154 159 -187 225 -59 120 -56 119 -159 101z"/>
 </g>

</svg>